<svg id="Layer_1" data-name="Layer 1" xmlns="http://www.w3.org/2000/svg" width="113.2" height="111.19" viewBox="0 0 113.2 111.19">
  <title>gallery</title>
  <path d="M6.6,9v92.77a2.73,2.73,0,0,0,2.73,2.73h94.54a2.73,2.73,0,0,0,2.73-2.73V9a2.73,2.73,0,0,0-2.73-2.73H9.33A2.73,2.73,0,0,0,6.6,9Z" fill="#f2f2f2"/>
  <rect x="17.87" y="17.58" width="77.46" height="57.17" rx="2.73" ry="2.73" fill="#64a9dd"/>
  <rect x="17.87" y="84.02" width="77.47" height="9.27" transform="translate(113.2 177.31) rotate(180)" fill="#e6e6e6"/>
  <path d="M78,51.76c.2-5.63-1.21-17.58-3.2-22.43a2.56,2.56,0,0,0-3.89-1.44h0a51.93,51.93,0,0,0-8.41,6.33A22.68,22.68,0,0,0,50,34.2a51.92,51.92,0,0,0-8.4-6.32h0a2.56,2.56,0,0,0-3.89,1.44c-2,4.83-3.39,16.68-3.21,22.34v.12l.1,2.24a11.49,11.49,0,0,0,.3,1.51l.81,2.08a10.76,10.76,0,0,0,1,1.56l1.51,1.65c3.91,3.53,10.51,5.15,18,5.15S70.06,64.42,74,61l1.56-1.61a10.83,10.83,0,0,0,1.09-1.66l.84-2.07A11.46,11.46,0,0,0,77.83,54Z" fill="#ccc"/>
  <g>
    <ellipse cx="64.83" cy="47.95" rx="2.65" ry="2.89" fill="#666"/>
    <ellipse cx="48" cy="47.95" rx="2.65" ry="2.89" fill="#666"/>
    <path d="M57.74,53.36H55.16a1.3,1.3,0,0,0-1.19.72,1.08,1.08,0,0,0,.17,1.17l1.28,1.49a1.33,1.33,0,0,0,1,.45h0a1.34,1.34,0,0,0,1-.44l1.3-1.51a1.07,1.07,0,0,0,.17-1.17A1.3,1.3,0,0,0,57.74,53.36Z" fill="#666"/>
  </g>
</svg>
