<?xml version="1.0" encoding="utf-8"?>
<!-- Generator: Adobe Illustrator 19.2.1, SVG Export Plug-In . SVG Version: 6.00 Build 0)  -->
<svg version="1.1" xmlns="http://www.w3.org/2000/svg" xmlns:xlink="http://www.w3.org/1999/xlink" x="0px" y="0px"
	 viewBox="0 0 480 480" enable-background="new 0 0 480 480" xml:space="preserve">
	<path fill="#A5C6EF" d="M256.2,144.1c-7.5-3.3-14-5-18.7-5.8c-1.4-0.3-2.8-0.6-4.3-0.7c-0.9-0.1-3-0.3-3-0.3
		c-8.7,0-16.2,4.7-20.3,11.7c-2.1-1.3-5.9-3.3-10.5-3.3c-4.6,0-8.4,1.9-10.5,3.3c-4.1-7-11.6-11.9-20.3-11.9c0,0-0.1,0-0.1,0
		c-1,0-2.1,0.2-3.1,0.3c-1.4,0.2-2.8,0.4-4.1,0.7c-4.6,0.9-11.2,2.6-18.6,5.8c-1.1,0.5-1.8,1.6-1.8,2.8v2.4c0,0.9,0.4,1.7,1.1,2.3
		c1.2,1,2.7,3.9,3.1,7.6c0,0.1,0,0.1,0,0.2c0,0.5-0.1,1-0.1,1.5c0,13,10.5,23.5,23.5,23.5h0c6.3,0,12.2-2.4,16.6-6.9
		c4.4-4.4,6.9-10.3,6.9-16.6c0-2.1-0.3-4.2-0.8-6.2c0.9-0.6,4.1-2.9,8.1-2.9c4,0,7.3,2.3,8.1,2.9c-0.5,2-0.8,4-0.8,6.2
		c0,13,10.5,23.5,23.5,23.5s23.5-10.5,23.5-23.5c0-0.5,0-0.9,0-1.4c0-0.1,0.1-0.2,0.1-0.3c0.4-3.8,1.9-6.6,3.1-7.6
		c0.7-0.6,1.1-1.4,1.1-2.3v-2.4C258,145.6,257.3,144.6,256.2,144.1z M181.1,173.2c-3.3,3.3-7.7,5.1-12.4,5.1
		c-9.6,0-17.5-7.8-17.5-17.5c0-8.4,5.9-15.4,13.7-17.1c2.2-0.3,3.6-0.4,3.8-0.4c9.6,0,17.5,7.9,17.5,17.5
		C186.2,165.5,184.4,169.9,181.1,173.2z M230.2,178.3c-9.6,0-17.5-7.8-17.5-17.5c0-9.6,7.8-17.5,17.5-17.5c0.2,0,1.5,0.1,3.7,0.4
		c7.9,1.7,13.8,8.7,13.8,17.1C247.7,170.5,239.9,178.3,230.2,178.3z"/>
	<path fill="#EFEFEF" d="M253,149.2h-3c-0.8,0-1.5-0.7-1.5-1.5s0.7-1.5,1.5-1.5h3c0.8,0,1.5,0.7,1.5,1.5S253.8,149.2,253,149.2z"/>
	<path fill="#EFEFEF" d="M149,149.2h-3c-0.8,0-1.5-0.7-1.5-1.5s0.7-1.5,1.5-1.5h3c0.8,0,1.5,0.7,1.5,1.5S149.8,149.2,149,149.2z"/>
</svg>
