<?xml version="1.0" encoding="utf-8"?>
<!-- Generator: Adobe Illustrator 19.2.1, SVG Export Plug-In . SVG Version: 6.00 Build 0)  -->
<svg version="1.1" xmlns="http://www.w3.org/2000/svg" xmlns:xlink="http://www.w3.org/1999/xlink" x="0px" y="0px"
	 viewBox="0 0 480 480" enable-background="new 0 0 480 480" xml:space="preserve">
<path fill="none" stroke="#F2CC7B" stroke-width="3" stroke-miterlimit="10" d="M257.4,147c0,0-4.1,29.2-23.2,32.1
	c-12.3,1.9-23.3-5.3-24.5-15.2l0-0.2c-0.5-4.6-4.9-7.9-10.2-7.9s-9.7,3.2-10.2,7.9l0,0.2c-1.2,9.9-12.2,17.1-24.5,15.2
	c-19.1-3-23.2-32.1-23.2-32.1"/>
<path fill="none" stroke="#FFFFFF" stroke-width="8" stroke-linecap="round" stroke-miterlimit="10" d="M189.1,159.2
	c-1.2-7.9-7.7-14.3-18-15.5c-12.3-1.5-29.6,3.3-29.6,3.3"/>
<line fill="none" stroke="#F2CC7B" stroke-width="3" stroke-linecap="round" stroke-miterlimit="10" x1="144.3" y1="146.2" x2="142.2" y2="146.7"/>
<path fill="none" stroke="#FFFFFF" stroke-width="8" stroke-linecap="round" stroke-miterlimit="10" d="M209.5,159.2
	c1.2-7.9,7.7-14.3,18-15.5c12.3-1.5,29.6,3.3,29.6,3.3"/>
<line fill="none" stroke="#F2CC7B" stroke-width="3" stroke-linecap="round" stroke-miterlimit="10" x1="254.4" y1="146.2" x2="256.5" y2="146.7"/>
</svg>
