<svg version="1.1" xmlns="http://www.w3.org/2000/svg" xmlns:xlink="http://www.w3.org/1999/xlink" x="0px" y="0px"
	 viewBox="0 0 480 480" style="enable-background:new 0 0 480 480;" xml:space="preserve">
<style type="text/css">
	.st52{fill:#EFEFEF;}
</style>
<path class="st52" d="M169.3,174.5c-8.3,0-15-6.7-15-15s6.7-15,15-15c8.3,0,15,6.7,15,15S177.6,174.5,169.3,174.5z M169.3,147.5
	c-6.6,0-12,5.4-12,12s5.4,12,12,12c6.6,0,12-5.4,12-12S176,147.5,169.3,147.5z"/>
<path class="st52" d="M229.3,174.4c-8.2,0-14.8-6.7-14.8-14.8c0-8.2,6.7-14.8,14.8-14.8c8.2,0,14.8,6.7,14.8,14.8
	C244.2,167.7,237.5,174.4,229.3,174.4z M229.3,147.7c-6.5,0-11.8,5.3-11.8,11.8s5.3,11.8,11.8,11.8c6.5,0,11.8-5.3,11.8-11.8
	S235.9,147.7,229.3,147.7z"/>
<path class="st52" d="M216,162h-8.4l0-1.5c0-0.8-0.5-7.5-8.1-7.5c-7.9,0-8.9,7.3-9,7.6l-0.2,1.3l-7.3,0v-3h4.8
	c0.9-3.7,4.2-9,11.7-9c7.5,0,10.3,5.2,10.9,9h5.6V162z"/>
<circle class="st52" cx="153.5" cy="159.5" r="2"/>
<circle class="st52" cx="244.8" cy="159.5" r="2"/>
</svg>
