<?xml version="1.0" encoding="utf-8"?>
<!-- Generator: Adobe Illustrator 19.2.1, SVG Export Plug-In . SVG Version: 6.00 Build 0)  -->
<svg version="1.1" xmlns="http://www.w3.org/2000/svg" xmlns:xlink="http://www.w3.org/1999/xlink" x="0px" y="0px"
	 viewBox="0 0 480 480" enable-background="new 0 0 480 480" xml:space="preserve">
	<path opacity="0.5" fill="#FFFFFF" d="M259.9,142.7c-0.6-0.9-1.7-1.5-2.8-1.6l-25.1-1c0,0-0.1,0-0.1,0c-6.2,0-11,0.7-14.7,1.7
		c0,0-0.1,0-0.1,0c-5.1,1.4-8.1,3-9.6,4.3c-2.2-1.2-4.7-2.1-7.5-2.1h-1c-2.8,0-5.3,0.9-7.5,2.1c-1.5-1.2-4.5-3-9.6-4.4
		c0,0-0.1,0-0.1,0c-3.7-1-8.5-1.7-14.7-1.7c0,0-0.1,0-0.1,0l-25.1,1c-1.1,0-2.2,0.6-2.8,1.6c-0.6,0.9-0.8,2.1-0.4,3.2l2,5.3
		c0,0.1,0.1,0.2,0.2,0.4c0.1,1.2,0.2,2.4,0.3,3.7c0.9,11.6,2.3,29.2,25.6,29.5c0.2,0,0.4,0,0.7,0c8.4,0,14.6-2.1,18.9-6.3
		c6.4-6.4,6.6-15.9,6.5-23.8l0.1-0.6c1.1-1.8,3.4-3.1,6.1-3.1h1c2.7,0,5,1.3,6.1,3.1l0.1,0.5c-0.1,7.8,0.1,17.2,6.4,23.6
		c4.4,4.4,10.8,6.8,19.6,6.8c0.1,0,0.2,0,0.3,0c22.6,0,24.2-17.3,25.2-28.6c0.1-1.6,0.3-3.2,0.5-4.7c0.1-0.1,0.1-0.3,0.2-0.4l2-5.3
		C260.7,144.9,260.5,143.7,259.9,142.7z M181.4,173.5c-2.9,2.9-7.9,4.4-14.6,4.3c-15.7-0.2-17.6-9.3-18.7-23.1
		c-0.1-1.4-0.2-2.7-0.4-3.9c1.1-1.2,3.3-3,6.1-3.1c0.1,0,0.3,0,0.4,0l12.9-0.5c5.7,0,10,0.7,13.2,1.5c3.7,1.2,4.8,5,5.8,6.2v3.7
		C186,164.3,185,170,181.4,173.5z M232.4,178c-0.1,0-0.2,0-0.2,0c-6.9,0-11.8-1.6-14.7-4.6c-3.5-3.6-4.5-9.3-4.5-14.9v-3.6
		c1-1.2,2-5,5.7-6.2c3.1-0.8,7.4-1.5,13.1-1.5l12.9,0.5c0.1,0,0.3,0,0.4,0c2.8,0.1,4.9,1.9,6.1,3.1c-0.2,1.6-0.3,3.2-0.5,4.9
		C249.4,169.5,247.6,178,232.4,178z"/>

	<line fill="none" stroke="#FFFFFF" stroke-width="3" stroke-linecap="round" stroke-miterlimit="10" x1="143.4" y1="145.8" x2="146.4" y2="145.8"/>

	<line fill="none" stroke="#FFFFFF" stroke-width="3" stroke-linecap="round" stroke-miterlimit="10" x1="255.5" y1="145.8" x2="252.5" y2="145.8"/>
</svg>
