<svg xmlns="http://www.w3.org/2000/svg" width="480" height="480" viewBox="0 0 480 480">
  <path d="M198.65,142h-60v29h3.87a4.85,4.85,0,0,0,5,5h40.92a5.6,5.6,0,0,0,4.88-3.06,6.15,6.15,0,0,1,5.47-3.37m0,0a6.58,6.58,0,0,1,5.75,3.37,5.75,5.75,0,0,0,5,3.06h41a4.85,4.85,0,0,0,5-5h4.13V142h-61m-10,21.3a7.7,7.7,0,0,1-7.7,7.7h-22.6a7.7,7.7,0,0,1-7.7-7.7v-8.6a7.7,7.7,0,0,1,7.7-7.7h22.6a7.7,7.7,0,0,1,7.7,7.7Zm59,0a7.7,7.7,0,0,1-7.7,7.7h-22.6a7.7,7.7,0,0,1-7.7-7.7v-8.6a7.7,7.7,0,0,1,7.7-7.7h22.6a7.7,7.7,0,0,1,7.7,7.7Z" fill="#fff"/>
  <g opacity="0.8">
    <rect x="147.65" y="145" width="42" height="28" fill="#5994c9"/>
  </g>
  <g opacity="0.8">
    <rect x="207.65" y="145" width="42" height="27" fill="#fc5959"/>
  </g>
  <path d="M198.65,142h-60v29h3.87a4.85,4.85,0,0,0,5,5h40.92a5.6,5.6,0,0,0,4.88-3.06,6.15,6.15,0,0,1,5.47-3.37m0,0a6.58,6.58,0,0,1,5.75,3.37,5.75,5.75,0,0,0,5,3.06h41a4.85,4.85,0,0,0,5-5h4.13V142h-61m-10,21.3a7.7,7.7,0,0,1-7.7,7.7h-22.6a7.7,7.7,0,0,1-7.7-7.7v-8.6a7.7,7.7,0,0,1,7.7-7.7h22.6a7.7,7.7,0,0,1,7.7,7.7Zm59,0a7.7,7.7,0,0,1-7.7,7.7h-22.6a7.7,7.7,0,0,1-7.7-7.7v-8.6a7.7,7.7,0,0,1,7.7-7.7h22.6a7.7,7.7,0,0,1,7.7,7.7Z" fill="#fff"/>
</svg>
