<?xml version="1.0" encoding="utf-8"?>
<!-- Generator: Adobe Illustrator 19.2.1, SVG Export Plug-In . SVG Version: 6.00 Build 0)  -->
<svg version="1.1" xmlns="http://www.w3.org/2000/svg" xmlns:xlink="http://www.w3.org/1999/xlink" x="0px" y="0px"
	 viewBox="0 0 480 480" enable-background="new 0 0 480 480" xml:space="preserve">
	<path fill="#5994C9" d="M251.6,132.3l-7.3-1c-2.3-0.3-4.5-0.6-6.8-0.8c-0.7-0.1-1.3-0.1-2-0.2c-1.7-0.2-3.4-0.4-5.2-0.5
		c-0.6-0.1-1.3-0.1-1.9-0.2c-2.2-0.2-4.5-0.4-6.7-0.5c-0.4,0-0.9,0-1.3-0.1c-1.8-0.1-3.7-0.2-5.5-0.3c-0.3,0-0.7,0-1-0.1
		c-0.1,0-0.2-0.1-0.3-0.1c-4.7-0.2-9.5-0.5-14.2-0.5c0,0,0,0,0,0c-4.7,0-9.5,0.3-14.2,0.5c-0.1,0-0.2,0.1-0.3,0.1
		c-0.3,0-0.7,0.1-1,0.1c-1.8,0.1-3.7,0.2-5.5,0.3c-0.4,0-0.9,0.1-1.3,0.1c-2.2,0.1-4.5,0.3-6.7,0.5c-0.6,0.1-1.3,0.1-1.9,0.2
		c-1.7,0.2-3.4,0.3-5.1,0.5c-0.7,0.1-1.3,0.1-2,0.2c-2.3,0.3-4.5,0.5-6.8,0.8l-7.2,1c-7.8,1-13.4,6.8-13.4,13.6v28.4
		c0,6.8,5.5,12.5,13.4,13.6l7.2,1c5.2,0.7,10.4,1.3,15.6,1.7c0.6,0.1,1.3,0.1,1.9,0.1c7.6,0,14.4-3.9,17.8-10.2l9.5-18.8l9.5,18.7
		l0.1,0.1c3.4,6.3,10.3,10.2,17.8,10.2c0.6,0,1.3,0,1.9-0.1c5.2-0.5,10.5-1,15.7-1.7l7.2-1c7.8-1,13.4-6.8,13.4-13.6v-28.4
		C265,139,259.4,133.3,251.6,132.3z M193.3,147.1l-14,27.7c-1.4,2.6-4.7,4.1-8.1,3.8c-5-0.4-10.1-1-15.1-1.7l-7.2-1
		c-2.1-0.3-2.9-1.4-2.9-1.7v-28.4c0-0.3,0.8-1.4,2.9-1.7l7.2-1c2.2-0.3,4.3-0.6,6.5-0.8c0.6-0.1,1.3-0.1,1.9-0.2
		c1.7-0.2,3.3-0.3,5-0.5c0.6-0.1,1.2-0.1,1.8-0.2c2.2-0.2,4.3-0.4,6.5-0.5c0.4,0,0.8,0,1.2-0.1c1.8-0.1,3.6-0.2,5.4-0.3
		c0.5,0,0.9,0,1.4-0.1c2.2,0,4.3,0.8,5.8,2.2c0.8,0.8,1.8,2.1,1.8,3.9C193.5,146.8,193.4,146.9,193.3,147.1z M253,174.3
		c0,0.3-0.9,1.4-3,1.7l-7.3,1c-5,0.7-10.1,1.2-15.1,1.7c-3.4,0.3-6.7-1.2-8.1-3.8l-14-27.7c-0.1-0.1-0.1-0.3-0.1-0.4
		c0-1.8,1-3.1,1.8-3.9c1.5-1.4,3.7-2.2,6-2.2c0.4,0,0.8,0,1.2,0.1c1.8,0.1,3.6,0.2,5.4,0.3c0.4,0,0.8,0,1.2,0.1
		c2.2,0.1,4.3,0.3,6.5,0.5c0.6,0.1,1.2,0.1,1.8,0.2c1.7,0.2,3.3,0.3,5,0.5c0.6,0.1,1.3,0.1,1.9,0.2c2.2,0.2,4.4,0.5,6.5,0.8l7.2,1
		c2.1,0.3,3,1.4,3,1.7V174.3z"/>
	<path fill="#5994C9" d="M212.8,214.6h-26.7c-5.9,0-10.8-4.8-10.8-10.7v-3.6c0-5.9,4.8-10.7,10.8-10.7h26.7
		c5.9,0,10.8,4.8,10.8,10.7v3.6C223.6,209.7,218.7,214.6,212.8,214.6z"/>
	<path fill="#F9914B" d="M237.3,253.8c-26.4,0-47.8-21.5-47.8-47.8c0-5.5,4.5-10,10-10s10,4.5,10,10c0,15.3,12.5,27.8,27.8,27.8
			s27.8-12.5,27.8-27.8V41h20v164.9C285.1,232.3,263.7,253.8,237.3,253.8z"/>
	<path opacity="0.4" fill="#FFFFFF" d="M202.5,154.8l11.5,22.8c2.5,4.7,8.1,7.5,13.9,7c5.1-0.4,10.3-1,15.4-1.7l7.3-1
		c4.8-0.6,8.3-3.9,8.3-7.6v-28.4c0-3.8-3.5-7-8.3-7.6l-7.3-1c-14.6-2-29.4-2.9-44.2-2.9c-14.8,0-29.5,1-44.2,2.9l-7.3,1
		c-4.8,0.6-8.3,3.9-8.3,7.6v28.4c0,3.8,3.5,7,8.3,7.6l7.3,1c5.1,0.7,10.2,1.2,15.4,1.7c5.8,0.5,11.4-2.3,13.9-7l11.5-22.8v0
		C197.5,152.4,201,152.4,202.5,154.8L202.5,154.8z"/>
	<path fill="#5994C9" d="M285,47h-20c-2.8,0-5-2.2-5-5s2.2-5,5-5h20c2.8,0,5,2.2,5,5S287.8,47,285,47z"/>
	<path fill="#5994C9" d="M285,165h-20c-2.8,0-5-2.2-5-5s2.2-5,5-5h20c2.8,0,5,2.2,5,5S287.8,165,285,165z"/>
</svg>
