<?xml version="1.0" encoding="utf-8"?>
<!-- Generator: Adobe Illustrator 19.2.1, SVG Export Plug-In . SVG Version: 6.00 Build 0)  -->
<svg version="1.1" xmlns="http://www.w3.org/2000/svg" xmlns:xlink="http://www.w3.org/1999/xlink" x="0px" y="0px"
	 viewBox="0 0 480 480" enable-background="new 0 0 480 480" xml:space="preserve">
	<g opacity="0.8">
		<polygon fill="#222222" points="143.7,150.7 147.1,170.1 155.9,179.4 170.5,181.3 181.9,177.6 188.1,168 189.3,154.4 183.1,146.6
			162.5,145 145,145 		"/>
	</g>
	<g opacity="0.8">
		<polygon fill="#222222" points="255.3,150.7 251.9,170.1 243.1,179.4 228.5,181.3 217,177.6 210.8,168 209.7,154.4 215.9,146.6
			236.5,145 254,145 		"/>
	</g>
	<g opacity="0.5">
		<rect x="141.9" y="153.5" transform="matrix(0.705 -0.7092 0.7092 0.705 -64.6532 159.6336)" fill="#FFFFFF" width="35.3" height="8"/>
	</g>
	<g opacity="0.5">
		<rect x="147.6" y="160.5" transform="matrix(0.7071 -0.7071 0.7071 0.7071 -65.2595 167.4498)" fill="#FFFFFF" width="43.8" height="4"/>
	</g>
	<g opacity="0.5">
		<rect x="206.9" y="152.5" transform="matrix(0.705 -0.7092 0.7092 0.705 -44.7668 205.4391)" fill="#FFFFFF" width="35.3" height="8"/>
	</g>
	<g opacity="0.5">
		<rect x="212.6" y="159.5" transform="matrix(0.7071 -0.7071 0.7071 0.7071 -45.5143 213.1188)" fill="#FFFFFF" width="43.8" height="4"/>
	</g>
	<path fill="#222222" d="M167.4,184.8c-0.2,0-0.4,0-0.7,0c-23.2-0.3-24.6-17.9-25.6-29.5c-0.1-1.4-0.2-2.8-0.4-4.1l7-0.8
			c0.1,1.4,0.3,2.8,0.4,4.3c1.1,13.8,3,22.9,18.7,23.1c6.7,0.1,11.6-1.4,14.5-4.3c3.6-3.6,4.4-9.3,4.5-15v-4.9c0,0,0,0,0,0l3.4,0
			l-3.1-1.3c2-4.8,7-7.9,12.9-7.9h1c5.9,0,11,3.1,12.9,7.9l-3.1,1.3l3.3,0v4.9c0.1,5.6,0.9,11.2,4.4,14.8c3,3,7.8,4.5,14.7,4.6
			c0.1,0,0.2,0,0.2,0c15.1,0,17-8.4,18.2-22.2c0.2-1.8,0.3-3.6,0.5-5.3l6.9,0.9c-0.2,1.6-0.4,3.2-0.5,5c-1,11.4-2.6,28.5-25.2,28.5
			c-0.1,0-0.2,0-0.3,0c-8.8-0.1-15.3-2.2-19.6-6.7c-6.3-6.5-6.5-15.9-6.4-23.8c-1.1-1.9-3.4-3-6.2-3h-1c-2.8,0-5.1,1.2-6.2,3
			c0.1,8,0,17.6-6.5,24.1C182,182.8,175.8,184.8,167.4,184.8z"/>
	<path fill="#1C1C1C" d="M189.3,157.9c-1.6,0-3-1.1-3.4-2.7c0,0-1.4-5.1-5.8-6.6c-3.1-0.8-7.4-1.5-13-1.5l-12.9,0.5
			c-0.1,0-0.3,0-0.4,0c-4.2,0.2-7,4.2-7,4.2c-0.7,1.1-2,1.7-3.3,1.5c-1.3-0.2-2.4-1-2.9-2.2l-2-5.3c-0.4-1.1-0.3-2.2,0.4-3.2
			c0.6-0.9,1.7-1.5,2.8-1.6l25.1-1c0,0,0.1,0,0.1,0c6.2,0,11,0.7,14.7,1.7c0,0,0.1,0,0.1,0c7.6,2,10.5,5.1,10.9,5.6
			c0.7,0.8,1,1.8,0.8,2.9l-0.8,4.6c-0.3,1.6-1.7,2.9-3.3,2.9C189.4,157.9,189.3,157.9,189.3,157.9z"/>
	<path fill="#1C1C1C" d="M209.6,157.9c0,0-0.1,0-0.1,0c-1.7-0.1-3-1.3-3.3-2.9l-0.8-4.6c-0.2-1,0.1-2.1,0.8-2.9
			c0.4-0.5,3.4-3.6,10.9-5.6c0,0,0.1,0,0.1,0c3.7-1,8.5-1.7,14.7-1.7c0,0,0.1,0,0.1,0l25.1,1c1.1,0,2.2,0.6,2.8,1.6
			c0.6,0.9,0.8,2.1,0.4,3.2l-2,5.3c-0.5,1.2-1.6,2.1-2.9,2.2c-1.3,0.1-2.6-0.5-3.3-1.6c0,0-2.8-4-7-4.2c-0.1,0-0.3,0-0.4,0
			l-12.9-0.5c-5.7,0-10,0.7-13.1,1.5c-4.4,1.4-5.7,6.5-5.7,6.6C212.6,156.8,211.2,157.9,209.6,157.9z"/>
</svg>
