<svg version="1.1" id="Layer_1" xmlns="http://www.w3.org/2000/svg" xmlns:xlink="http://www.w3.org/1999/xlink" x="0px" y="0px"
	 viewBox="0 0 480 480" style="enable-background:new 0 0 480 480;" xml:space="preserve">
<style type="text/css">
	.st52{fill:#EFEFEF;}
	.st54{fill:#987FEF;}
	.st55{fill:#836EEA;}
</style>
<path class="st54" d="M234,107.5c0-29.8-15.7-54-35-54s-35,24.2-35,54"/>
<path class="st52" d="M201.2,33.3L201.2,33.3c1.5-2.2,5-1.1,4.9,1.6v0c-0.1,1.9,1.8,3.3,3.6,2.6l0,0c2.5-0.9,4.7,2.1,3.1,4.2l0,0
	c-1.2,1.5-0.4,3.7,1.4,4.3l0,0c2.6,0.8,2.6,4.4,0,5.2l0,0c-1.8,0.5-2.5,2.7-1.4,4.3l0,0c1.6,2.1-0.5,5.1-3.1,4.2l0,0
	c-1.8-0.6-3.7,0.7-3.6,2.6v0c0.1,2.7-3.4,3.8-4.9,1.6v0c-1.1-1.6-3.4-1.6-4.5,0v0c-1.5,2.2-5,1.1-4.9-1.6v0c0.1-1.9-1.8-3.3-3.6-2.6
	l0,0c-2.5,0.9-4.7-2.1-3.1-4.2v0c1.2-1.5,0.4-3.7-1.4-4.3l0,0c-2.6-0.8-2.6-4.4,0-5.2l0,0c1.8-0.5,2.5-2.7,1.4-4.3v0
	c-1.6-2.1,0.5-5.1,3.1-4.2l0,0c1.8,0.6,3.7-0.7,3.6-2.6v0c-0.1-2.7,3.4-3.8,4.9-1.6v0C197.8,34.9,200.2,34.9,201.2,33.3z"/>
<path class="st55" d="M233.4,120.6h-67.9c-3.2,0-5.8-2.6-5.8-5.8V97.8c0-3.2,2.6-5.8,5.8-5.8h67.9c3.2,0,5.8,2.6,5.8,5.8v16.9
	C239.2,117.9,236.6,120.6,233.4,120.6z"/>
<path class="st54" d="M196,55.2c-1,0-1,3,0,3C198,58.2,198,55.2,196,55.2z"/>
<path class="st54" d="M188,39.9c-1,0-1,2.7,0,2.7C190,42.5,190,39.9,188,39.9z"/>
<path class="st54" d="M191,48.1c-2,0-2,2.7,0,2.7S193,48.1,191,48.1z"/>
<path class="st54" d="M200,38.8c-2,0-2,2.7,0,2.7S202,38.8,200,38.8z"/>
<path class="st54" d="M209,45.9c-2,0-2,2.7,0,2.7C210,48.5,210,45.9,209,45.9z"/>
<path class="st54" d="M210,54c-1.9,0-1.9,3,0,3C211.9,57,211.9,54,210,54z"/>
<path class="st55" d="M197,41.7c-1,0-1,2.7,0,2.7C199,44.3,199,41.7,197,41.7z"/>
<path class="st55" d="M195,34.4c-1,0-1,2.7,0,2.7S196,34.4,195,34.4z"/>
<path class="st55" d="M186,54.8c-2,0-2,3,0,3S188,54.8,186,54.8z"/>
<path class="st55" d="M196,48.1c-1,0-1,2.7,0,2.7C198,50.7,198,48.1,196,48.1z"/>
<path class="st55" d="M204,58.8c-1,0-1,3,0,3C206,61.8,206,58.8,204,58.8z"/>
<path class="st55" d="M205,47.4c-2,0-2,2.7,0,2.7S207,47.4,205,47.4z"/>
<path class="st55" d="M210,39.2c-1,0-1,2.7,0,2.7S211,39.2,210,39.2z"/>
</svg>
