<svg version="1.1" id="Layer_1" xmlns="http://www.w3.org/2000/svg" xmlns:xlink="http://www.w3.org/1999/xlink" x="0px" y="0px"
	 viewBox="0 0 480 480" style="enable-background:new 0 0 480 480;" xml:space="preserve">
<style type="text/css">
	.st44{fill:#444444;}
	.st59{fill:#808080;}
</style>
<path class="st44" d="M199.5,118.3c-15.8,0-29.4-2.7-36.1-6.7c-2.4-1.2-4-3.5-4-6.5c0-4.2,3-7.8,7.8-7.8l0,0c0,0,6.3-17.8,10.2-23.9
	c2.4-3.7,6.5-5.8,10.8-5.6c4.2,0.2,9.3,2.7,11.4,2.7s7.2-2.6,11.4-2.7c4.4-0.2,8.5,2,10.8,5.6c3.9,6.1,10.2,23.9,10.2,23.9l0,0
	c4.8,0,7.8,3.7,7.8,7.8c0,3-1.6,5.3-4,6.5c-6.7,4.1-20.3,6.7-36.1,6.7H199.5z"/>
<path class="st59" d="M170.9,87.5c-1.5,3.2-3.7,9.8-4,9.8c5.7,3.8,18.2,6.4,32.7,6.4c14.5,0,26.9-2.6,32.7-6.4c0,0-2.4-7.1-3.9-10.3
	c-6.5,2.9-16.4,4.9-28.8,4.9S177.4,90.4,170.9,87.5z"/>
</svg>
