<svg version="1.1" id="Layer_1" xmlns="http://www.w3.org/2000/svg" xmlns:xlink="http://www.w3.org/1999/xlink" x="0px" y="0px"
	 viewBox="0 0 480 480" style="enable-background:new 0 0 480 480;" xml:space="preserve">
<style type="text/css">
	.st42{fill:#4B9AE2;}
	.st43{fill:#238BD8;}
	.st44{fill:none;stroke:#4B9AE2;stroke-miterlimit:10;}
</style>
<path class="st42" d="M164.2,106.4c0,3.2,15.5,5.7,34.8,5.7s33.8-2.6,33.8-5.7v-1.3c0-18.3-14.5-33.1-33.8-33.1
	s-34.9,14.8-34.9,33.1L164.2,106.4z"/>
<path class="st43" d="M225.9,109.9c1.2,0.1-5.2,2.7-17.9,6.7c-7.7,2.5-25.2-2.2-34.2-2.7s-17.7,2.1-20.1,2.4
	c-0.6,0.1-0.9-0.8-0.4-1.1l12.2-8.8c0,0,12.1-2.7,23-2.4C202.5,104.3,225.9,109.9,225.9,109.9z"/>
<path class="st43" d="M199,70h-2.2c-1,0-2,0.5-1.9,1.5c0,1,0.8,1.5,1.9,1.5h2.2c1,0,2-0.5,1.9-1.5C200.9,70.5,200.1,70,199,70z"/>
<path class="st43" d="M181.1,92.9c-0.3-0.4-0.3-1,0.1-1.3c1.3-1.4,4.8-4.4,8.7-4.3c5,0.2,8.9,5.6,8.9,5.6s-4.3,5.1-9.3,4.9
	C185.5,97.7,182.3,94.4,181.1,92.9z"/>
<path class="st43" d="M200.9,98l-5.5-4.4c-0.5-0.4-0.5-1.2,0.1-1.6l5.8-4c0.7-0.5,1.6,0,1.6,0.9l-1.4,4.3l1.1,4.1
	C202.5,98.1,201.6,98.5,200.9,98z"/>
<line class="st44" x1="188.6" y1="93.8" x2="185.5" y2="90.8"/>
<line class="st44" x1="188.5" y1="90.7" x2="185.6" y2="93.9"/>
</svg>
