<svg xmlns="http://www.w3.org/2000/svg" width="480" height="480" viewBox="0 0 480 480">
  <path d="M286.2,123.71c-2.47,7.19-6.39,13.91-9.62,15.53-5,2.51-17.82-6.78-24.12-13.56a20.36,20.36,0,0,1-3.21-4.25c-3-5.93-.52-14.71,6-18a23.17,23.17,0,0,1,5.13-1.65c9-2,24-2.09,27.25,4.35C289.52,110,288.49,117.07,286.2,123.71Z" fill="#F96E6E"/>
  <path d="M235.58,116.73a23.17,23.17,0,0,1-5.13,1.65c-9,2-24,2.09-27.25-4.35-1.91-3.82-.87-10.89,1.41-17.55,2.47-7.19,6.39-13.9,9.63-15.52,5-2.51,17.82,6.78,24.12,13.56a20.36,20.36,0,0,1,3.21,4.25C244.53,104.71,242.08,113.48,235.58,116.73Z" fill="#F96E6E"/>
  <path d="M266,111l-20.2-2L228.45,98.39a6,6,0,0,0-2.51-.84,5.9,5.9,0,0,0-1.13,11.74L245,111.24l17.35,10.53a6,6,0,0,0,2.46.82A5.84,5.84,0,1,0,266,111Z" fill="#F26161"/>
  <rect x="235.51" y="100.2" width="19.81" height="19.81" rx="8.14" ry="8.14" transform="translate(47.48 -72.03) rotate(18.46)" fill="#F26161"/>
</svg>
