<svg version="1.1" id="Layer_1" xmlns="http://www.w3.org/2000/svg" xmlns:xlink="http://www.w3.org/1999/xlink" x="0px" y="0px"
	 viewBox="0 0 480 480" style="enable-background:new 0 0 480 480;" xml:space="preserve">
<style type="text/css">
	.st19{fill:#FFFFFF;}
	.st20{fill:#E5E5E5;}
</style>
<path class="st19" d="M232.6,74h-66.9v36c0,1.3,0.9,2.5,2.2,2.7l2.5,0.5c19.8,4,40.2,3.8,60-0.5l0,0c1.3-0.3,2.2-1.4,2.2-2.7V74z"/>
<ellipse class="st19" cx="199.2" cy="53.5" rx="52.8" ry="32"/>
<path class="st20" d="M225.7,62.9c-2.5,5.2-0.6,14.7-0.6,14.7s8.7-4.3,11.2-9.5c2.5-5.2,0.9-7.9-2-9.4
	C231.4,57.2,228.3,57.6,225.7,62.9z"/>
<path class="st20" d="M209.3,67.4c-0.8,4.3,2.6,10.9,2.6,10.9s5.5-5,6.2-9.3c0.8-4.3-1-6-3.4-6.4C212.3,62.1,210,63.1,209.3,67.4z"
	/>
<path class="st20" d="M194.9,69.5c0,4.3,4.5,9.9,4.5,9.9s4.3-5.7,4.3-10s-2-5.6-4.4-5.5C196.8,63.9,194.9,65.2,194.9,69.5z"/>
<path class="st20" d="M172.1,62.9c2.5,5.2,0.6,14.7,0.6,14.7s-8.7-4.3-11.2-9.5c-2.5-5.2-0.9-7.9,2-9.4
	C166.4,57.2,169.5,57.6,172.1,62.9z"/>
<path class="st20" d="M188.5,67.4c0.8,4.3-2.6,10.9-2.6,10.9s-5.5-5-6.2-9.3c-0.8-4.3,1-6,3.4-6.4C185.5,62.1,187.8,63.1,188.5,67.4
	z"/>
</svg>
