<?xml version="1.0" encoding="utf-8"?>
<!-- Generator: Adobe Illustrator 19.2.1, SVG Export Plug-In . SVG Version: 6.00 Build 0)  -->
<svg version="1.1" xmlns="http://www.w3.org/2000/svg" xmlns:xlink="http://www.w3.org/1999/xlink" x="0px" y="0px"
	 viewBox="0 0 480 480" enable-background="new 0 0 480 480" xml:space="preserve">
<g id="Layer_1">
	<path fill="#FFFFFF" d="M203.5,40.2c0.5,2.6,0.9,8.4,0.9,8.4l1.2,3.4c1.2,3.4,1.6,7.1,1.3,10.7l-0.4,3.6l1.7,5.2
		c1,3,1.4,6.2,1.1,9.3l-0.4,5.9l2,6.7c0.8,2.7,1.2,5.6,1,8.5l-0.4,7.5c0,0,3.1,13.5-11.4,13.5c-14.6,0-14.7-15.5-12.5-23.8l1.4-4.2
		l-0.4-4.2c-0.3-3.3,0-6.6,1-9.8l1.8-5.7l-0.3-2.5c-0.5-3.6-0.1-7.3,1-10.8l1.5-4.7v0c-0.8-4.4-0.4-8.8,1.1-13l0.6-1.7l0.3-2.4
		c0.2-1.9,1.1-8.6,3.8-8.6S203,37.6,203.5,40.2z"/>
	<path fill="#EBEFFF" d="M207.3,110.9c1.2,0,2.6-0.1,3.9-0.4l0.5-0.1c-0.1-0.6-0.1-0.9-0.1-0.9l0.1-1.1l-0.8,0.2
		c-6.4,1.3-12-0.8-16.6-6.2c-3.5-4.1-5-8.6-5-8.7l-0.3-0.9l0.2,2.2l-0.7,2C190.8,101.7,196.6,110.9,207.3,110.9z"/>
	<path fill="#EBEFFF" d="M208.9,86.9l0.1-1.2l-0.9,0.2c-4.9,1-9.2-0.6-12.7-4.7c-2.7-3.2-3.9-6.7-3.9-6.7l-0.2-0.5l0.2,1.4l-0.7,2.4
		c2,3.8,6.5,10.4,14.6,10.4c1,0,2-0.1,3.1-0.3l0.7-0.1L208.9,86.9z"/>
	<path fill="#EBEFFF" d="M206.2,67.3l0.5-0.1l-0.3-0.8l0.1-1.2l-0.8,0.2c-8.6,1.7-12-8-12.1-8.4l-0.3-0.8c0.1,0.4,0.1,0.7,0.2,1.1
		l-0.8,2.5c1.6,2.9,5,7.7,11,7.7C204.6,67.6,205.4,67.5,206.2,67.3z"/>
	<path fill="#EBEFFF" d="M204.7,49.6l-0.3-1c0,0,0-0.4-0.1-1c-6.1,0.4-8.5-6.5-8.6-6.8l-0.1-0.3l-0.2,2l-0.5,1.3
		c1.6,2.8,4.5,5.8,8.9,5.8C204.1,49.7,204.4,49.7,204.7,49.6z"/>
</g>
<g id="eyes">
</g>
<g id="blink">
</g>
</svg>
