<?xml version="1.0" encoding="utf-8"?>
<!-- Generator: Adobe Illustrator 19.2.1, SVG Export Plug-In . SVG Version: 6.00 Build 0)  -->
<svg version="1.1" xmlns="http://www.w3.org/2000/svg" xmlns:xlink="http://www.w3.org/1999/xlink" x="0px" y="0px"
	 viewBox="0 0 480 480" enable-background="new 0 0 480 480" xml:space="preserve">
<g id="Layer_1">
	<path fill="#987FEF" d="M218.3,103c-0.3-10.4,18.6-27.5-18.7-27.5h0c-37.4,0-18.5,17.2-18.7,27.5H218.3z"/>
	<g>
		<path fill="#FFEAAE" d="M227.2,101.3l-5.8-1.5l4.8-18.7c0.8-3-0.8-5.3-1.8-6.3c-2.7-2.9-7.4-4.2-11.9-3.4l-13,2.4l-13-2.4
			c-4.5-0.8-9.2,0.5-11.9,3.4c-1,1.1-2.6,3.3-1.8,6.3l4.8,18.7l-5.8,1.5l-4.8-18.7c-1.1-4.2,0.1-8.6,3.2-11.9
			c4.1-4.4,10.8-6.4,17.3-5.2l11.9,2.2l11.9-2.2c6.6-1.2,13.2,0.8,17.3,5.2c3.1,3.4,4.3,7.7,3.2,11.9L227.2,101.3z"/>
	</g>
	<path fill="#FFEAAE" d="M223.9,97.4c-16.2,2-32.4,2-48.6,0l-3.3-0.4v3.4l0.9,9l2.3,0.3c7.7,1,16,1.5,24.3,1.5
		c8.3,0,16.6-0.5,24.4-1.5l2.3-0.3l1-8.5l0-3.9L223.9,97.4z"/>
	<g>
		<rect x="196.6" y="70" fill="#FFEAAE" width="6" height="30"/>
	</g>
	<circle fill="#987FEF" cx="214.4" cy="104.7" r="2.5"/>
	<circle fill="#987FEF" cx="185.3" cy="104.7" r="2.5"/>
	<circle fill="#FFFFFF" cx="173.1" cy="103.6" r="2.5"/>
	<circle fill="#FFFFFF" cx="199.7" cy="105.2" r="2.5"/>
	<circle fill="#FFFFFF" cx="226.1" cy="103.6" r="2.5"/>
	<path fill="#FFFFFF" d="M204.9,67.7c0-2.9-2.4-5.3-5.3-5.3s-5.3,2.4-5.3,5.3H204.9z"/>
	<g>
		<path fill="#FFEAAE" d="M216.9,101.1l-5.9-1.2l3.8-18.8c0.9-3.4-0.3-4.7-0.6-5.1c-2.6-2.9-10.6-2.8-14-2.3l-0.9,0l-0.2,0
			c-2.7-0.4-11.1-0.8-14,2.3c-0.4,0.4-1.5,1.7-0.6,5.1l0,0.2l3.7,18.7l-5.9,1.2l-3.7-18.6c-1.3-5.4,0.3-8.7,2-10.5
			c5.2-5.7,16.6-4.6,19-4.3c2.4-0.3,13.8-1.5,19,4.3c1.7,1.8,3.4,5.2,2,10.5L216.9,101.1z"/>
	</g>
</g>
<g id="eyes">
</g>
<g id="blink">
</g>
</svg>
