<?xml version="1.0" encoding="utf-8"?>
<!-- Generator: Adobe Illustrator 19.2.1, SVG Export Plug-In . SVG Version: 6.00 Build 0)  -->
<svg version="1.1" xmlns="http://www.w3.org/2000/svg" xmlns:xlink="http://www.w3.org/1999/xlink" x="0px" y="0px"
	 viewBox="0 0 480 480" enable-background="new 0 0 480 480" xml:space="preserve">
<g id="Layer_1">
	<g>
		<path fill="#FFFFFF" d="M292,149.1c-0.1-1.4-0.2-2.9-0.4-4.4c-0.4-3.9-0.8-8-1.3-12c-0.1-0.8-0.2-1.7-0.3-2.5
			c-0.5-4.2-3.6-7.7-7.7-8.8c-13-3.5-43.9-10.6-83-10.6c-39.1,0-70.2,7.1-83.3,10.6c-4.1,1.1-7.1,4.6-7.6,8.8
			c-0.6,5.1-1.4,13.2-2,18.9c-0.3,3.2,2.8,5.7,5.8,4.6l7.2-2.4c0.3-0.1,32.6-10.8,80-10.8c47,0,79.3,10.7,79.6,10.8
			c0,0,3.7,1.2,7.2,2.3C289.3,154.7,292.3,152.3,292,149.1z"/>
		<path fill="#A5C6EF" d="M108.2,132.9c-0.2,2-0.5,4.2-0.7,6.5l1.3-0.4c0.4-0.1,38.3-12.7,90.7-12.7s90.3,12.6,90.7,12.7l1,0.3
			c-0.2-2.1-0.5-4.3-0.7-6.5v0c-7.8-2.4-43.7-12.5-90.9-12.5C151.5,120.2,115.3,130.7,108.2,132.9z"/>
		<path fill="#FC7E7E" d="M107.6,138.4c-0.2,2.2-0.5,4.4-0.7,6.5l1.9-0.6c0.4-0.1,38.3-12.7,90.7-12.7c52.3,0,90.3,12.6,90.7,12.7
			l1.5,0.5c-0.2-2.1-0.4-4.3-0.6-6.5c-6.3-2-42.9-12.7-91.6-12.7C149.9,125.6,112.9,136.7,107.6,138.4z"/>
	</g>
</g>
<g id="eyes">
</g>
<g id="blink">
</g>
</svg>
