<?xml version="1.0" encoding="utf-8"?>
<!-- Generator: Adobe Illustrator 19.2.1, SVG Export Plug-In . SVG Version: 6.00 Build 0)  -->
<svg version="1.1" xmlns="http://www.w3.org/2000/svg" xmlns:xlink="http://www.w3.org/1999/xlink" x="0px" y="0px"
	 viewBox="0 0 480 480" enable-background="new 0 0 480 480" xml:space="preserve">
<g id="Layer_1">
	<path fill="#FFEAAE" d="M171.5,99.1c14.7,0,27.8-13.1,27.8-13.1h0.2c0,0,13.5,13.2,27.5,13.2l-1.8,10.1l-1.3,0.3
		c-7.8,1-16.1,1.5-24.4,1.5c-8.3,0-16.5-0.5-24.3-1.5l-1.3-0.3L171.5,99.1z"/>
	<path fill="#FFFFFF" d="M201.5,97.9L201.5,97.9c-1.2,1.2-3.2,1.2-4.4,0l0,0c-1.2-1.2-1.2-3.2,0-4.4l0,0c1.2-1.2,3.2-1.2,4.4,0l0,0
		C202.8,94.7,202.8,96.6,201.5,97.9z"/>
</g>
<g id="eyes">
</g>
<g id="blink">
</g>
</svg>
