<?xml version="1.0" encoding="utf-8"?>
<!-- Generator: Adobe Illustrator 19.2.1, SVG Export Plug-In . SVG Version: 6.00 Build 0)  -->
<svg version="1.1" xmlns="http://www.w3.org/2000/svg" xmlns:xlink="http://www.w3.org/1999/xlink" x="0px" y="0px"
	 viewBox="0 0 480 480" enable-background="new 0 0 480 480" xml:space="preserve">
<g id="Layer_1">
	<g>
		<path fill="#FFEAAE" d="M165.6,106.4c0,3.2,14.9,5.7,33.4,5.7s32.5-2.6,32.5-5.7v-1.3c0-18.3-13.9-33.1-32.5-33.1
			s-33.5,14.8-33.5,33.1L165.6,106.4z"/>
	</g>
	<g>
		<path fill="#75C69F" d="M199.8,72c-19.4,0-34.9,14.8-34.9,33.1l0.1,1.3c0,2.1,1.9,3.3,12.6,4.3C177.9,88.7,184.3,75.4,199.8,72z"
			/>
	</g>
	<g>
		<path fill="#FC5959" d="M198.5,72c19.9-0.2,34.9,14.8,34.9,33.1l-0.1,1.3c0,2.1-10.8,4-21.5,5C211.5,89.4,208.4,78.1,198.5,72z"/>
	</g>
	<g>
		<path fill="#238BD8" d="M224.6,109.7c1.2,0.1-3.9,2.9-16.6,6.9c-7.7,2.5-25.2-2.2-34.2-2.7s-17.7,2.1-20.1,2.4
			c-0.6,0.1-0.9-0.8-0.4-1.1l11.7-8.8c0,0,12.6-2.7,23.5-2.4C202.5,104.3,224.6,109.7,224.6,109.7z"/>
	</g>
	<g>
		<path fill="#238BD8" d="M198.9,73.5c-0.8,0-1.5-0.7-1.5-1.5V62c0-0.8,0.7-1.5,1.5-1.5s1.5,0.7,1.5,1.5v10
			C200.4,72.8,199.8,73.5,198.9,73.5z"/>
	</g>
	<g>
		<path fill="#F2F2F2" d="M226.4,62c0-3.9-3.6-7.1-11.6-7.1S197.5,62,197.5,62s9.4,7.1,17.4,7.1S226.4,65.9,226.4,62z"/>
	</g>
	<g>
		<path fill="#F2F2F2" d="M171.4,62c0,3.9,3.6,7.1,11.6,7.1c8,0,17.4-7.1,17.4-7.1s-9.4-7.1-17.4-7.1C175,54.9,171.4,58.1,171.4,62z
			"/>
	</g>
	<g>
		<circle fill="#238BD8" cx="198.9" cy="62" r="3.5"/>
	</g>
</g>
<g id="eyes">
</g>
<g id="blink">
</g>
</svg>
