<svg class="bonsai" xmlns="http://www.w3.org/2000/svg" width="740" height="480" viewBox="0 0 740 480">
  <path class="fill" d="M123.59,327.57c-.06-27.07-9.09-37.25-28.76-37.21s-40.56,20.17-40.5,47.24,8.34,50.73,38.44,50.8c21.36,0,33-8,35.26-25.83S123.59,327.57,123.59,327.57Z" fill="#f1f1f1"/>
  <path class="fill" d="M98.8,310.45c-18.86,0-32.76-4-42.84-12.71l-4.29,3.54A2.86,2.86,0,1,1,48,296.86L52,293.61a27.77,27.77,0,0,1-2.8-4.25l-6,2.05A2.86,2.86,0,1,1,41.3,286L47,284a29.38,29.38,0,0,1-.89-4.31l-7.81-.49a2.86,2.86,0,0,1,.36-5.72l7.11.44h0c.45-15.72,3.76-40.26,8.21-51.07,1.28-4.08,6.47-6.47,10-3.69h0a133.15,133.15,0,0,1,21.56,16.22c5.08-1.45,7.7-2.25,13.27-2.25s8.2.8,13.27,2.25a133.15,133.15,0,0,1,21.56-16.22h0c3.5-2.78,8.69-.39,10,3.69,4.45,10.81,7.76,35.36,8.21,51.07h0l7.11-.44a2.86,2.86,0,0,1,.36,5.72l-7.81.49a29.38,29.38,0,0,1-.89,4.31l5.72,2a2.86,2.86,0,1,1-1.85,5.42l-6-2.05a27.77,27.77,0,0,1-2.8,4.25l3.94,3.25a2.86,2.86,0,1,1-3.65,4.42l-4.29-3.54C131.56,306.45,117.66,310.45,98.8,310.45Z" fill="#f1f1f1"/>
  <path class="fill" d="M71.16,370.35l-.25-.09c-4.8-1.79-9.53-3.47-14.15-5.28s-9.12-3.69-13.41-5.75S35,354.9,31.18,352.68s-7.37-4.45-11.1-6.65l-1.67-1A9.67,9.67,0,0,0,4.78,357.49,37.07,37.07,0,0,0,7.23,362c.47.7,1,1.39,1.46,2.07l.76,1,.81.94a40.59,40.59,0,0,0,3.41,3.56l1.81,1.64c.61.54,1.25,1,1.87,1.5a68.16,68.16,0,0,0,16.22,8.94,93.71,93.71,0,0,0,17.12,5,80.7,80.7,0,0,0,17.52,1.51,9.23,9.23,0,0,0,2.95-17.88Z" fill="#f1f1f1"/>
  <circle cx="69.56" cy="276.3" r="1.9" fill="#efefef"/>
  <circle cx="136.82" cy="276.3" r="1.9" fill="#efefef"/>
  <path d="M83.5,290.09A13.79,13.79,0,1,1,97.29,276.3,13.8,13.8,0,0,1,83.5,290.09Zm0-24.58A10.79,10.79,0,1,0,94.29,276.3,10.8,10.8,0,0,0,83.5,265.51Z" fill="#efefef"/>
  <path d="M122.88,290.09a13.79,13.79,0,1,1,13.79-13.79A13.8,13.8,0,0,1,122.88,290.09Zm0-24.58a10.79,10.79,0,1,0,10.79,10.79A10.8,10.8,0,0,0,122.88,265.51Z" fill="#efefef"/>
  <path class="fill" d="M126,369.88l-17-4a14,14,0,0,0-16.26,8.61l-15.36-4.43A14,14,0,1,0,69.63,397l17,4.9a14,14,0,0,0,17-8.49l16,3.76A14,14,0,1,0,126,369.88Z" fill="#f1f1f1"/>
  <g class="kitten-arms">
    <path class="kitten-arm-left fill" d="M86.19,357.28a14,14,0,0,0,23.4-15.37L89.4,311.15A14,14,0,0,0,66,326.52Z" fill="#f1f1f1"/>
    <path class="kitten-arm-right fill" d="M141.16,334.7,121,303.95a14,14,0,0,0-23.4,15.37l20.2,30.75a14,14,0,0,0,23.4-15.37Z" fill="#f1f1f1"/>
    <path class="scissors-left" d="M138.79,379.16l-15.66-21-7.24,1.59L112.41,357a9.46,9.46,0,1,0-3.28,8.16l.4-.36a9.41,9.41,0,0,0,2.27-3.38l24.47,20.23a1.78,1.78,0,0,0,2.52-2.52ZM109,358.46a6,6,0,1,1-10.1-4.81l.25-.23a6,6,0,0,1,9.85,5Z" fill="#efefef"/>
    <path class="scissors-right" d="M142,347.48a9.47,9.47,0,0,0-17.48,7.09l-2.13,3.93-7.29,1.33-6.33,25.39a1.78,1.78,0,0,0,3.3,1.35l14.74-28.12a9.42,9.42,0,0,0,3.4,2.24l.51.18A9.47,9.47,0,0,0,142,347.48Zm-2.67,6.18a6,6,0,1,1-3.91-7.57l.32.11a6,6,0,0,1,3.59,7.45Z" fill="#efefef"/>
  </g>
  <g class="leaf-1-wrapper">
    <path class="leaf-1" d="M174,342.09s-1.37-3.41-4.41-3.41-4.41,3.41-4.41,3.41,1.37,3.41,4.41,3.41S174,342.09,174,342.09Z" fill="#66AA88"/>
  </g>
  <g class="leaf-2-wrapper">
    <path class="leaf-2" d="M181.59,342.09s-1.37-3.41-4.41-3.41-4.41,3.41-4.41,3.41,1.37,3.41,4.41,3.41S181.59,342.09,181.59,342.09Z" fill="#66AA88"/>
  </g>
  <path d="M109.93,277.8H105.8l-.38-.94a2.33,2.33,0,0,0-2.23-1.69,2.27,2.27,0,0,0-2.24,1.69l-.38.93H96.45v-3h2.19a5.26,5.26,0,0,1,9.1,0h2.19Z" fill="#efefef"/>
  <path d="M195.24,312s0,.57.06.88.07.75.14,1.12a14.06,14.06,0,0,0,.53,2.21,12.61,12.61,0,0,0,2,3.81,14.54,14.54,0,0,0,7,4.72,32.28,32.28,0,0,0,9.72,1.54c1.74,0,3.52,0,5.32-.13l.67,0h2.85a39.31,39.31,0,0,1,4,.34,27.08,27.08,0,0,1,16.18,7.83A23.85,23.85,0,0,1,249,343.1a25.49,25.49,0,0,1,1.25,10.13A30.82,30.82,0,0,1,243,370.51a38.26,38.26,0,0,1-6.47,6.13,45.45,45.45,0,0,1-7.4,4.38l-.4.19a12.43,12.43,0,1,1-10.66-22.46,13.43,13.43,0,0,1,1.86-.71,22.5,22.5,0,0,0,3.37-1.26A15.61,15.61,0,0,0,226,355a9.59,9.59,0,0,0,3.15-4.3,4.43,4.43,0,0,0-.16-3.64,8,8,0,0,0-4.94-3.32,21.16,21.16,0,0,0-2.06-.52l-1.13-.16-.58-.09-.85-.1c-2.26-.24-4.52-.57-6.81-1A46,46,0,0,1,199,337a26.84,26.84,0,0,1-11-11.18,23.65,23.65,0,0,1-2.28-7.53,24.21,24.21,0,0,1-.19-3.83c0-.64.06-1.28.13-1.92s.14-1.19.34-2.14a3.77,3.77,0,0,1,6.66-1.57Z" fill="#c48357"/>
  <path d="M260.45,324.89,249.33,343.6a8,8,0,0,1-13.76-8.18,8.24,8.24,0,0,1,1.52-1.85L253.24,319a4.71,4.71,0,0,1,7.21,5.91Z" fill="#c48357"/>
  <path d="M219.53,311.18c-.2.86-.46,2.08-.61,3.14a31.45,31.45,0,0,0-.32,3.25,17.26,17.26,0,0,0,.58,5.75,4.93,4.93,0,0,0,2,3,7.52,7.52,0,0,0,3.32.82A7.49,7.49,0,1,1,222,341.82l-.48-.13a20.3,20.3,0,0,1-10-5.95,18.24,18.24,0,0,1-4.33-10.46A29,29,0,0,1,208,316a41.9,41.9,0,0,1,1.21-4.15,43,43,0,0,1,1.64-4.08,4.66,4.66,0,0,1,8.77,3Z" fill="#c48357"/>
  <path d="M186.66,371c6.77-7.36,21.6-12.13,38.8-12.13s32,4.77,38.79,12.12" fill="#6a8"/>
  <path d="M182.74,377.52c0,8.3,7.54,15,16.84,15h51.77c9.3,0,16.84-6.73,16.84-15,0-3.34-2.22-9.17-2.22-9.17H185S182.74,374.18,182.74,377.52Z" fill="#999"/>
  <path d="M277.2,305.28a11.12,11.12,0,0,0-7-2.37,10.32,10.32,0,0,0-2.87-1.29,11.05,11.05,0,0,0-7.73-2.72c-.51,0-1,0-1.47.08a11.31,11.31,0,0,0-7.29-2.32c-4.65,0-7.75,2-9.35,4.75h-.28a10.94,10.94,0,0,0-8,2.95c-11.53,2-10.89,18.17,1.95,18.58a11,11,0,0,0,7.78,2.76,11.15,11.15,0,0,0,7.51-2.53l.6,0a11.88,11.88,0,0,0,6.18,1.57,13.62,13.62,0,0,0,3.21-.37,13.66,13.66,0,0,0,3.21.37,11.84,11.84,0,0,0,6.23-1.6,13.71,13.71,0,0,0,3.11.35C285.66,323.43,287,308.55,277.2,305.28Z" fill="#6a8"/>
  <path d="M248.37,293.8c-1.4-3.29-4.79-5.88-10.13-5.75-.29,0-.56,0-.84.06a9.1,9.1,0,0,0-5.66-5.78c-1.73-2.47-4.81-4.21-9.22-4.1a13.32,13.32,0,0,0-2.42.28c-1.79-2.14-4.71-3.6-8.75-3.5a11.08,11.08,0,0,0-7.55,2.82,11.61,11.61,0,0,0-6.73-1.71c-4.92.12-8.07,2.48-9.49,5.49a11.1,11.1,0,0,0-7.08,2.63,11.93,11.93,0,0,0-6-1.31c-7.52.19-10.92,5.59-10.32,10.55a9.47,9.47,0,0,0-6.47,5c-7.18,4.79-4.75,17.24,6.81,16.95a12.87,12.87,0,0,0,4.44-.86,13,13,0,0,0,12.23-.39l.3,0a11,11,0,0,0,7.87,2.59,14.48,14.48,0,0,0,1.91-.18,14.44,14.44,0,0,0,1.88.08c.4,0,.78,0,1.15-.07a11.9,11.9,0,0,0,6.18,1.39,11.57,11.57,0,0,0,6.61-2,11.12,11.12,0,0,0,7,2.18,12.88,12.88,0,0,0,4.54.65,11.69,11.69,0,0,0,6.48-1.94,13.42,13.42,0,0,0,2.05-.32c.34,0,.69,0,1,0s.87,0,1.29-.09.88,0,1.34,0a10.77,10.77,0,0,0,8.18-3.47h.49a12.62,12.62,0,0,0,4.83-1,13,13,0,0,0,4.2.55C262.52,312.24,262.19,293.77,248.37,293.8Z" fill="#75c69f"/>
  <path d="M198,331a14.25,14.25,0,0,0-2.26.18,11,11,0,0,0-8-2.92,12.86,12.86,0,0,0-4.52.77,12.88,12.88,0,0,0-4.53-.77,10.78,10.78,0,0,0-8.25,3.25c-11.38,2.24-10.5,18.54,2.71,18.54a12,12,0,0,0,5.87-1.38,12.77,12.77,0,0,0,13.43-.05,12.29,12.29,0,0,0,5.51,1.19C212.14,349.81,212.17,331,198,331Z" fill="#75c69f"/>
  <rect x="200.24" y="390.89" width="50.45" height="6.62" fill="#999"/>
  <path class="face" d="M103.79,287.57h-2.65c-1.32,0-2.09,1.27-1.32,2.18l1.06,1.24,1.6,1.83a1.8,1.8,0,0,0,2.61,0l1.61-1.87,1-1.19c.78-.91,0-2.19-1.31-2.19Z"/>
  <g class="kitten-eyes face">
    <ellipse cx="84.5" cy="278.7" rx="5.87" ry="5.28" transform="matrix(0.17, -0.98, 0.98, 0.17, -203.26, 312.36)"/>
    <ellipse cx="123.88" cy="277.3" rx="5.28" ry="5.87" transform="translate(-46.27 25.72) rotate(-10)"/>
  </g>
  <g class="kitten-blink face">
    <path d="M88.5,281a1.49,1.49,0,0,1-.3,0l-8.62-1.74a1.5,1.5,0,1,1,.59-2.94L88.8,278a1.5,1.5,0,0,1-.29,3Z"/>
    <path d="M119.87,281a1.5,1.5,0,0,1-.29-3l8.63-1.74a1.5,1.5,0,1,1,.59,2.94l-8.63,1.74A1.49,1.49,0,0,1,119.87,281Z"/>
  </g>
</svg>
