<?xml version="1.0" encoding="utf-8"?>
<!-- Generator: Adobe Illustrator 19.2.1, SVG Export Plug-In . SVG Version: 6.00 Build 0)  -->
<svg class="camper" version="1.1" xmlns="http://www.w3.org/2000/svg" xmlns:xlink="http://www.w3.org/1999/xlink" x="0px" y="0px"
	 viewBox="0 0 740 480" enable-background="new 0 0 740 480" xml:space="preserve">
<g id="Layer_1">
	<path class="fill" fill="#F1F1F1" d="M92.9,305.7c-18.9,0-32.8-4-42.8-12.7l-4.3,3.5c-0.5,0.4-1.2,0.7-1.8,0.7c-0.8,0-1.6-0.4-2.2-1
		c-1-1.2-0.8-3,0.4-4l3.9-3.3c-1.1-1.3-2-2.7-2.8-4.3l-6,2.1c-0.3,0.1-0.6,0.2-0.9,0.2c-1.2,0-2.3-0.7-2.7-1.9
		c-0.5-1.5,0.3-3.1,1.8-3.6l5.7-2c-0.4-1.4-0.7-2.8-0.9-4.3l-7.8-0.5c-1.6-0.1-2.8-1.5-2.7-3c0.1-1.6,1.4-2.8,3-2.7l7.1,0.4l0,0
		c0.5-15.7,3.8-40.3,8.2-51.1c1.3-4.1,6.5-6.5,10-3.7l0,0c6.7,3.9,15,10.2,21.6,16.2c5.1-1.5,7.7-2.3,13.3-2.3
		c5.6,0,8.2,0.8,13.3,2.3c6.6-6.1,14.8-12.3,21.6-16.2l0,0c3.5-2.8,8.7-0.4,10,3.7c4.5,10.8,7.8,35.4,8.2,51.1l0,0l7.1-0.4
		c1.6-0.1,2.9,1.1,3,2.7c0.1,1.6-1.1,2.9-2.7,3l-7.8,0.5c-0.2,1.5-0.5,2.9-0.9,4.3l5.7,2c1.5,0.5,2.3,2.1,1.8,3.6
		c-0.4,1.2-1.5,1.9-2.7,1.9c-0.3,0-0.6,0-0.9-0.2l-6-2.1c-0.8,1.5-1.7,2.9-2.8,4.3l3.9,3.3c1.2,1,1.4,2.8,0.4,4
		c-0.6,0.7-1.4,1-2.2,1c-0.6,0-1.3-0.2-1.8-0.7l-4.3-3.5C125.6,301.7,111.7,305.7,92.9,305.7z"/>
	<path class="fill" fill="#F1F1F1" d="M127.2,319.6c-0.9-11.5-5.7-21-15.5-27.4c-8.6-5.7-19.6-6.8-29.5-5c-5.7,1-10.8,3.2-15.1,6.3
		c-12.2,1.1-25.9,8.1-37.1,20c-11.5,12.3-17.6,27-17.6,39.5c-1.5,0.7-2.9,1.8-3.8,3.4l0,0c0,0-0.8,1.2-2,3.3
		c-0.3,0.6-0.7,1.5-1.1,2.3c-0.4,0.9-0.9,1.8-1.3,2.8c-0.4,1-0.8,2.1-1.2,3.2c-0.3,1.2-0.7,2.5-1,3.9c-0.1,0.7-0.2,1.5-0.3,2.2
		c-0.1,0.8-0.2,1.5-0.3,2.3c0,1.7-0.2,3.4,0.1,5.3c0.1,0.5,0.1,0.9,0.2,1.4l0.1,0.7l0.2,0.7c0.2,1,0.5,1.9,0.7,2.9
		c0.3,1,0.7,1.9,1.1,2.9c0.4,1,1,1.9,1.5,2.8c2.2,3.7,5.3,6.8,8.5,9.1c3.3,2.4,6.7,4,10,5.2c1.7,0.7,3.3,1.1,5,1.6
		c1.6,0.4,3.3,0.8,4.9,1.1c3.2,0.6,6.3,0.9,9.3,1.1c0.7,0,1.5,0.1,2.2,0.1c0.7,0,1.4,0,2.2,0c1.4,0,2.8-0.1,4.1-0.2
		c2.7-0.2,5.2-0.5,7.5-0.9c1.1-0.2,2.2-0.4,3.3-0.6c1-0.2,2-0.5,2.9-0.7c1.8-0.5,3.4-1,4.7-1.5c1.3-0.4,2.3-0.9,3-1.1
		c0.7-0.3,1-0.4,1-0.4c2.5-1.2,4.3-3.6,4.6-6.6c0.4-4.5-2.9-8.5-7.3-8.9l-0.6-0.1c0,0-0.3,0-0.9,0c-0.6,0-1.5,0-2.7-0.1
		c-1.1,0-2.5-0.1-4.1-0.1c-1.6-0.1-3.3-0.1-5.3-0.2c-1,0-1.9-0.1-3-0.2c-1-0.1-2.1-0.1-3.2-0.2c-2.1-0.2-4.4-0.3-6.7-0.6
		c-1.1-0.1-2.3-0.3-3.4-0.4c-1.1-0.2-2.3-0.3-3.4-0.6c-2.2-0.4-4.4-1-6.3-1.7c-1.9-0.7-3.6-1.5-4.9-2.3c-1.3-0.8-2.1-1.7-2.7-2.4
		c-0.1-0.2-0.3-0.4-0.4-0.6c-0.1-0.2-0.2-0.4-0.4-0.6c-0.1-0.5-0.4-0.9-0.5-1.5c-0.2-0.5-0.2-1.2-0.3-1.7c0-0.6,0-1.3,0-2
		c0,0,0,0,0,0c5,3.6,12.5,6,18.5,6c0,0,2.1,0,4.9,0c7.2,0,12-1.2,15.3-3.2c2.3,1.3,5.2,1.9,8.3,1.9c8,0,14.6-5.1,14.6-11.4v-4
		c7-2.3,12-6,15-9.1v11.3c0,7.7,6.3,14,14,14s14-6.3,14-14v-42.8c0-0.5,0.2-1,0.2-1.4C127.2,321.4,127.2,320.5,127.2,319.6z"/>
	<g>
		<path fill="#EAB049" d="M176.8,328.7c-2,27.9,19.6,35,19.2,34.7c-2-4.1-19.2-34.7,0-66.1c6.5,26.3,36.7,43.3,36.7,72.1
			c0,18.4-16.6,33.6-36.7,33.6s-36.7-15.2-36.7-33.6C159.3,357,164.8,337.3,176.8,328.7"/>
		<path fill="#AD6636" d="M153.7,353.2C153.7,353.2,153.7,353.2,153.7,353.2C153.7,353.2,153.7,353.2,153.7,353.2
			c-0.4-0.2-0.8-0.4-1.3-0.5c-0.1,0-0.2-0.1-0.2-0.1c-0.4-0.1-0.8-0.2-1.2-0.3c-0.1,0-0.2,0-0.2,0c-0.4-0.1-0.9-0.1-1.3-0.2
			c0,0-0.1,0-0.1,0c-0.4,0-0.8,0-1.3,0c-0.1,0-0.1,0-0.2,0c-0.4,0-0.8,0.1-1.3,0.1c-0.1,0-0.2,0-0.3,0c-0.4,0.1-0.9,0.1-1.3,0.2
			c0,0-0.1,0-0.1,0c-0.4,0.1-0.8,0.2-1.2,0.4c-0.1,0-0.1,0-0.2,0.1c-0.4,0.1-0.8,0.3-1.2,0.5c-0.1,0-0.2,0.1-0.2,0.1
			c-0.4,0.2-0.8,0.4-1.2,0.6c-0.1,0-0.1,0.1-0.2,0.1c-0.2,0.1-0.4,0.2-0.5,0.3l0,0c-2.3,1.5-4.4,3.5-5.9,6.1l0,0c0,0,0,0.1-0.1,0.1
			c-0.1,0.2-0.3,0.4-0.4,0.7c-0.2,0.4-0.5,0.8-0.7,1.3c-4,8.6-1.4,18.4,5.9,21.8l99.2,46.2l14.6-31.3L153.7,353.2z"/>
		<g>
			<polygon fill="#E2935D" points="144.3,421.2 145.1,415 135.8,425.2 			"/>
			<path fill="#AD6636" d="M258.8,362.7c-0.2-0.4-0.4-0.8-0.6-1.2c-0.1-0.2-0.3-0.5-0.4-0.7c0,0,0-0.1-0.1-0.1l0,0
				c-1.6-2.6-3.6-4.6-5.9-6.1l0,0l0,0c-0.1-0.1-0.2-0.1-0.3-0.2c-0.3-0.2-0.6-0.4-1-0.5c-0.2-0.1-0.4-0.2-0.5-0.3
				c-0.4-0.2-0.8-0.3-1.1-0.5c-0.1-0.1-0.3-0.1-0.4-0.2c-0.5-0.2-1.1-0.3-1.6-0.5c-0.1,0-0.2,0-0.4-0.1c-0.4-0.1-0.8-0.2-1.3-0.2
				c-0.2,0-0.4,0-0.6,0c-0.4,0-0.7,0-1.1,0c-0.2,0-0.4,0-0.6,0c-0.3,0-0.7,0-1,0.1c-0.2,0-0.4,0-0.6,0.1c-0.4,0.1-0.7,0.1-1.1,0.2
				c-0.2,0-0.3,0.1-0.5,0.1c-0.5,0.2-1,0.2-1.5,0.5l0-0.1h0l-99.2,46.4l14.6,31.4l99.2-46.2C260.2,381.1,262.8,371.4,258.8,362.7z"
				/>
			<path fill="#FCB47E" d="M145.1,415.1l-8.5,9.5c-0.9-1.1-1.7-2.4-2.4-3.8c-3.8-8.1-1.4-17.2,5.4-20.3c6.7-3.1,15.2,0.9,19,8.9
				s1.4,17.2-5.4,20.3c-3.3,1.6-7.1,1.3-10.5-0.2L145.1,415.1z"/>
			<path fill="#AD6636" d="M159.7,409c-4-8.7-13.2-12.9-20.5-9.5c-7.3,3.4-10,13.1-6,21.8c0.7,1.5,1.6,2.9,2.5,4.1l3.1-2.7
				c-0.8-1-1.4-2-1.9-3.1c-3.1-6.6-1.3-14,4-16.4c5.3-2.5,12.1,0.9,15.1,7.5c3.1,6.6,1.3,14-4,16.4c-2.5,1.2-5.5,1-8.2-0.3l-0.5-0.3
				l-0.3,1.8c0,0,0,0,0,0l-0.5,2.3c3.6,1.6,7.7,1.8,11.2,0.2C161,427.4,163.7,417.6,159.7,409z"/>
		</g>
		<path fill="#FCB47E" d="M238.8,429.7c-6.7-3.1-9.1-12.2-5.4-20.3c3.8-8.1,12.3-12.1,19-8.9c6.7,3.1,9.1,12.2,5.4,20.3
			S245.5,432.9,238.8,429.7z"/>
		<path fill="#AD6636" d="M252.9,399.5c-7.3-3.4-16.5,0.8-20.5,9.5c-4,8.6-1.4,18.4,5.9,21.8c7.3,3.4,16.5-0.8,20.5-9.5
			C262.8,412.6,260.2,402.9,252.9,399.5z M255,419.5c-2.2,4.6-6.3,7.9-10.6,8.2c-1.6,0.1-3-0.1-4.4-0.7c-5.2-2.4-7-9.7-3.9-16.3
			c2.2-4.6,6.3-7.9,10.6-8.2c1.6-0.1,3,0.1,4.4,0.7c2.4,1.1,4.2,3.4,5,6.3C256.9,412.7,256.6,416.3,255,419.5z"/>
		<polygon fill="#E2935D" points="245.4,414.6 243.9,403.1 227.8,396.5 		"/>
		<path fill="#E57B4C" d="M176.8,328.7c-2,27.9,19.6,35,19.2,34.7c-2-4.1-19.2-34.7,0-66.1c6.5,26.3,36.7,43.3,36.7,72.1
			c0,18.4-16.6,33.6-36.7,33.6s-36.7-15.2-36.7-33.6C159.3,357,164.8,337.3,176.8,328.7"/>
		<g>
			<path fill="#FFD180" d="M182.3,352.3c-5.3,6.5-8,13.2-8,20c0,7.6,9.7,16.8,21.7,16.8c6.4,0,12.9-2.7,17.3-7.2
				c2.9-3,4.5-6.4,4.5-9.5c-0.2-11.1-8.4-18.3-18-26.5c-4.3-3.8-8.8-7.7-12.6-12.1c0.9,12.9,5.5,23.2,7.8,27.7
				c0.4,0.7-0.4,1.5-1.2,1.2C191,361.2,186.1,358,182.3,352.3z"/>
			<polygon fill="#FFD180" points="180.2,348.6 180.2,348.6 180.2,348.6 			"/>
		</g>
	</g>
	<g class="arm">
		<path fill="#AD6636" d="M217.3,266.3c-0.8-1.1-2.4-1.4-3.5-0.6L173.5,295l3.8-23.9c0.2-1.3-0.6-2.5-1.9-2.8
			c-1.3-0.3-2.7,0.5-3,1.9l-7.1,31.1l-59.9,51.5c-0.1,0-0.1,0.1-0.2,0.2c-2.3,2.1-2.4,5.7-0.2,7.9c2.1,2.3,5.7,2.4,7.9,0.2l42.5-40
			l7.5-1.1c0.8-0.1,1.5-0.8,1.7-1.6c0.2-1.1-0.5-2.1-1.6-2.3l-1.9-0.3l10.6-10l45.2-36C217.9,268.9,218.1,267.4,217.3,266.3z"/>
		<path class="marshmallow" fill="#3f392d" d="M215,277.7l-5.3,4c-1.9,1.5-4.7,1.1-6.2-0.9l-4-5.3c-1.5-1.9-1.1-4.7,0.9-6.2l5.3-4
			c1.9-1.5,4.7-1.1,6.2,0.9l4,5.3C217.4,273.5,217,276.2,215,277.7z"/>
		<path class="marshmallow" fill="#3f392d" d="M202.8,287l-5.3,4c-1.9,1.5-4.7,1.1-6.2-0.9l-4-5.3c-1.5-1.9-1.1-4.7,0.9-6.2l5.3-4
			c1.9-1.5,4.7-1.1,6.2,0.9l4,5.3C205.1,282.8,204.7,285.5,202.8,287z"/>
		<path class="burn" fill="#3f392d" d="M215,277.7l-5.3,4c-1.9,1.5-4.7,1.1-6.2-0.9l-4-5.3c-0.7-1-1-2.1-0.8-3.3c0,0,3.3,4.3,8.6,5.5
			C212.6,279,215,277.7,215,277.7z"/>
		<path class="burn" fill="#3f392d" d="M202.7,287l-5.3,4c-1.9,1.5-4.7,1.1-6.2-0.9l-4-5.3c-0.7-1-1-2.1-0.8-3.3c0,0,3.3,4.3,8.6,5.5
			C200.3,288.2,202.7,287,202.7,287z"/>
		<path class="marshmallow" fill="#3f392d" d="M181.1,278l-1.1,6.5c-0.4,2.4-2.7,4-5.1,3.6l-6.5-1.1c-2.4-0.4-4-2.7-3.6-5.1l1.1-6.5
			c0.4-2.4,2.7-4,5.1-3.6l6.5,1.1C179.9,273.3,181.5,275.6,181.1,278z"/>
		<path class="burn" fill="#3f392d" d="M180.4,282.2l-0.4,2.3c-0.4,2.4-2.6,4-5,3.6l-6.5-1c-1.2-0.2-2.2-0.9-2.9-1.8c0,0,7.4-0.5,10-1
			C178.3,283.7,180.4,282.2,180.4,282.2z"/>
		<path class="fill" fill="#F1F1F1" d="M102.5,371.4c-3.5,0-7-1.3-9.7-3.9l-21.5-20.6c-5.6-5.4-5.7-14.2-0.4-19.8s14.2-5.7,19.8-0.4l21.5,20.6
			c5.6,5.4,5.7,14.2,0.4,19.8C109.8,369.9,106.2,371.4,102.5,371.4z"/>
	</g>
	<g>
		<path fill="#987FEF" d="M116.5,243.8c0-19.5-10.2-35.4-22.8-35.4s-22.8,15.8-22.8,35.4"/>
		<path fill="#836EEA" d="M114.6,248.8H72.7c-2.3,0-4.2-1.9-4.2-4.2v-10.3c0-2.3,1.9-4.2,4.2-4.2h41.9c2.3,0,4.2,1.9,4.2,4.2v10.3
			C118.8,246.9,116.9,248.8,114.6,248.8z"/>
		<path fill="#EFEFEF" d="M95.2,195.1L95.2,195.1c1.8-1.2,4.2-0.2,4.6,1.9h0c0.2,1.2,1.2,2.1,2.3,2.3h0c2.1,0.4,3.1,2.8,1.9,4.6l0,0
			c-0.7,1-0.7,2.3,0,3.3h0c1.2,1.8,0.2,4.2-1.9,4.6h0c-1.2,0.2-2.1,1.2-2.3,2.3l0,0c-0.4,2.1-2.8,3.1-4.6,1.9h0
			c-1-0.7-2.3-0.7-3.3,0h0c-1.8,1.2-4.2,0.2-4.6-1.9l0,0c-0.2-1.2-1.2-2.1-2.3-2.3h0c-2.1-0.4-3.1-2.8-1.9-4.6h0
			c0.7-1,0.7-2.3,0-3.3l0,0c-1.2-1.8-0.2-4.2,1.9-4.6h0c1.2-0.2,2.1-1.2,2.3-2.3h0c0.4-2.1,2.8-3.1,4.6-1.9h0
			C92.8,195.8,94.2,195.8,95.2,195.1z"/>
		<path fill="#987FEF" d="M99.9,206c0,1,2.5,1,2.5,0C102.3,204,99.9,204,99.9,206z"/>
		<path fill="#836EEA" d="M91.7,207c0,1,2.1,1,2.1,0C93.8,205,91.7,205,91.7,207z"/>
		<path fill="#987FEF" d="M84.9,204c0,1.2,1.6,1.2,1.6,0S84.9,202.8,84.9,204z"/>
		<path fill="#836EEA" d="M91.9,197c0,1.2,1.6,1.2,1.6,0S91.9,195.8,91.9,197z"/>
		<path fill="#836EEA" d="M84.9,209c0,1.2,1.6,1.2,1.6,0S84.9,207.8,84.9,209z"/>
		<path fill="#987FEF" d="M89.9,210.9c-0.1,1.2,1.5,1.3,1.6,0.1C91.6,209.9,90,209.8,89.9,210.9z"/>
		<path fill="#836EEA" d="M95.9,214c0,1.2,1.6,1.2,1.6,0S95.9,212.8,95.9,214z"/>
		<path fill="#987FEF" d="M89.5,202c0,2,2.7,2,2.7,0C92.1,201,89.5,201,89.5,202z"/>
		<path fill="#987FEF" d="M95.8,209c0,2,2.1,2,2.1,0C97.8,208,95.8,208,95.8,209z"/>
		<path fill="#836EEA" d="M95.3,203c0,1,2.7,1,2.7,0C97.9,201,95.3,201,95.3,203z"/>
	</g>
	<path class="face" d="M96.6,282.9h-2.6c-1.3,0-2.1,1.3-1.3,2.2l1.1,1.2l1.6,1.8c0.7,0.7,2,0.7,2.6,0l1.6-1.9l1-1.2c0.8-0.9,0-2.2-1.3-2.2H96.6z"
		/>
</g>
<g class="kitten-eyes face">
	<ellipse transform="matrix(0.1736 -0.9848 0.9848 0.1736 -204.4472 299.5506)" cx="76.3" cy="271.6" rx="5.9" ry="5.3"/>
	<ellipse transform="matrix(0.9848 -0.1736 0.1736 0.9848 -45.4059 24.2093)" cx="115.7" cy="271.6" rx="5.3" ry="5.9"/>
</g>
<g class="kitten-blink face">
	<path d="M80.3,275.3c-0.1,0-0.2,0-0.3,0l-8.6-1.7c-0.8-0.2-1.3-1-1.2-1.8c0.2-0.8,1-1.3,1.8-1.2l8.6,1.7c0.8,0.2,1.3,1,1.2,1.8
		C81.6,274.8,81,275.3,80.3,275.3z"/>
	<path d="M111.6,275.3c-0.7,0-1.3-0.5-1.5-1.2c-0.2-0.8,0.4-1.6,1.2-1.8l8.6-1.7c0.8-0.2,1.6,0.4,1.8,1.2c0.2,0.8-0.4,1.6-1.2,1.8
		l-8.6,1.7C111.8,275.2,111.7,275.3,111.6,275.3z"/>
</g>
</svg>
