<?xml version="1.0" encoding="utf-8"?>
<!-- Generator: Adobe Illustrator 19.2.1, SVG Export Plug-In . SVG Version: 6.00 Build 0)  -->
<svg class="coffee" version="1.1" xmlns="http://www.w3.org/2000/svg" xmlns:xlink="http://www.w3.org/1999/xlink" x="0px" y="0px"
	 viewBox="0 0 740 480" enable-background="new 0 0 740 480" xml:space="preserve">
<g id="Layer_1">
	<g opacity="0.6">
		<path fill="#5E4C3E" d="M127.2,369.9c0-2.1,2.8-2.3,6.3-2.3s6.3,0.2,6.3,2.3c0,2.1-2.8,3.8-6.3,3.8S127.2,372,127.2,369.9z"/>
		<ellipse fill="#5E4C3E" cx="126.6" cy="374.6" rx="2.6" ry="1.6"/>
		<ellipse fill="#5E4C3E" cx="140.4" cy="374.6" rx="2.6" ry="1.6"/>
		<ellipse fill="#5E4C3E" cx="133.6" cy="376.4" rx="2.6" ry="1.6"/>
	</g>
	<g opacity="0.6">
		<path fill="#5E4C3E" d="M159.7,369.9c0-2.1,2.8-2.3,6.3-2.3s6.3,0.2,6.3,2.3c0,2.1-2.8,3.8-6.3,3.8S159.7,372,159.7,369.9z"/>
		<ellipse fill="#5E4C3E" cx="159.1" cy="374.6" rx="2.6" ry="1.6"/>
		<ellipse fill="#5E4C3E" cx="172.9" cy="374.6" rx="2.6" ry="1.6"/>
		<ellipse fill="#5E4C3E" cx="166.1" cy="376.4" rx="2.6" ry="1.6"/>
	</g>
	<path class="fill" fill="#F1F1F1" d="M180,318.5c-0.1-11.6-6-20.9-15.8-27.3c-8.6-5.7-19.6-6.8-29.5-5c-5.7,1-10.8,3.2-15.1,6.3
		c-12.2,1.1-25.9,8.1-37.1,20c-19,20.2-23.3,47-9.8,59.7c4.7,4.4,13.7,7.8,20.6,7.8c0,0,2.1,0,4.9,0c15,0,20-5.1,21.3-12.3
		c1.7-0.7,3.4-1.5,5.1-2.2c7.7-3.1,29.8-13,32-15.9c2.7-0.2,20.9-3.9,23.4-4.5V318.5z"/>
	<path class="fill" fill="#F1F1F1" d="M145.4,304.7c-18.9,0-32.8-4-42.8-12.7l-4.3,3.5c-0.5,0.4-1.2,0.7-1.8,0.7c-0.8,0-1.6-0.4-2.2-1
		c-1-1.2-0.8-3,0.4-4l3.9-3.3c-1.1-1.3-2-2.7-2.8-4.3l-6,2.1c-0.3,0.1-0.6,0.2-0.9,0.2c-1.2,0-2.3-0.7-2.7-1.9
		c-0.5-1.5,0.3-3.1,1.8-3.6l5.7-2c-0.4-1.4-0.7-2.8-0.9-4.3l-7.8-0.5c-1.6-0.1-2.8-1.5-2.7-3c0.1-1.6,1.4-2.8,3-2.7l7.1,0.4l0,0
		c0.5-15.7,3.8-40.3,8.2-51.1c1.3-4.1,6.5-6.5,10-3.7l0,0c6.7,3.9,15,10.2,21.6,16.2c5.1-1.5,7.7-2.3,13.3-2.3s8.2,0.8,13.3,2.3
		c6.6-6.1,14.8-12.3,21.6-16.2l0,0c3.5-2.8,8.7-0.4,10,3.7c4.5,10.8,7.8,35.4,8.2,51.1l0,0l7.1-0.4c1.6-0.1,2.9,1.1,3,2.7
		c0.1,1.6-1.1,2.9-2.7,3L198,274c-0.2,1.5-0.5,2.9-0.9,4.3l5.7,2c1.5,0.5,2.3,2.1,1.8,3.6c-0.4,1.2-1.5,1.9-2.7,1.9
		c-0.3,0-0.6,0-0.9-0.2l-6-2.1c-0.8,1.5-1.7,2.9-2.8,4.3l3.9,3.3c1.2,1,1.4,2.8,0.4,4c-0.6,0.7-1.4,1-2.2,1c-0.6,0-1.3-0.2-1.8-0.7
		l-4.3-3.5C178.1,300.7,164.2,304.7,145.4,304.7z"/>
	<path class="face" d="M148,279.9c1.3,0,2.1,1.3,1.3,2.2l-1.1,1.2l-1.6,1.8c-0.7,0.7-2,0.7-2.6,0l-1.6-1.9l-1-1.2c-0.8-0.9,0-2.2,1.3-2.2
		L148,279.9z"/>
	<path class="fill tail" fill="#F1F1F1" d="M76,368.2c0,0-1,0.3-2.7,0.8c-0.4,0.1-0.9,0.3-1.4,0.4c-0.6,0.1-1.2,0.3-1.9,0.4c-1.4,0.3-2.9,0.6-4.5,0.9
		c-1.6,0.3-3.4,0.5-5.3,0.7c-1.9,0.2-3.9,0.3-6,0.4c-2.1,0.1-4.2,0.1-6.4,0c-2.2-0.1-4.4-0.2-6.7-0.4c-2.2-0.2-4.5-0.6-6.7-0.9
		c-2.2-0.5-4.4-0.9-6.5-1.5c-2.1-0.6-4.2-1.4-6.1-2.1c-1-0.4-1.9-0.9-2.8-1.3c-0.9-0.4-1.7-0.8-2.5-1.4c-1.6-1-3-1.8-4.3-2.8
		c-0.6-0.5-1.2-0.9-1.7-1.4c-0.3-0.2-0.5-0.4-0.7-0.6c-0.2-0.2-0.4-0.4-0.6-0.6c-0.8-0.8-1.4-1.4-1.8-1.9c-0.4-0.4-0.6-0.7-0.6-0.7
		c-3.3-4.2-2.6-10.3,1.6-13.6c2.2-1.7,4.9-2.4,7.5-2l2.5,0.4c0,0,0.2,0,0.6,0.1c0.4,0.1,0.9,0.2,1.6,0.4c0.6,0.2,1.5,0.4,2.4,0.7
		c0.5,0.1,0.9,0.3,1.5,0.4c0.5,0.1,1.1,0.3,1.7,0.5c1.2,0.3,2.5,0.6,3.8,1c0.7,0.2,1.4,0.3,2.1,0.5c0.7,0.2,1.5,0.3,2.3,0.5
		c1.5,0.4,3.2,0.7,4.8,1.1c0.9,0.2,1.7,0.3,2.6,0.5c0.9,0.2,1.7,0.3,2.6,0.5c0.9,0.1,1.8,0.3,2.7,0.4c0.9,0.1,1.8,0.2,2.7,0.4
		c0.9,0.1,1.8,0.2,2.6,0.3c0.9,0.1,1.7,0.2,2.6,0.3c1.7,0.2,3.4,0.4,5,0.5c1.6,0.2,3.1,0.3,4.5,0.4c1.4,0.1,2.6,0.2,3.8,0.3
		c0.6,0.1,1.1,0.1,1.6,0.1c0.5,0,1,0,1.5,0.1c1.8,0.1,2.8,0.2,2.8,0.2c5.1,0.5,8.9,5,8.4,10.1C82,364,79.4,367,76,368.2z"/>
	<path opacity="0.6" fill="#5E4C3E" d="M151.9,386.7c31.4,0.6,39.6-6.4,63.1-6.4c34.2,0,61.9,3,61.9,9.5s-27.7,11.8-61.9,11.8h-63.1
		c-21.6,0-39.1-3.3-39.1-7.5S130.4,386.7,151.9,386.7s39.1,3.3,39.1,7.5"/>
	<path fill="#5E4C3E" d="M156.6,398c-18.1,0-17.8-3.9-17.8-3.9s2-4,20.1-4c1.3,0,2.5-0.1,3.8-0.1h0.2c15.2,0,17.7-1.7,26.8-3.5
		c7.7-1.5,15.1-4,25.4-4c37.2,0,54.6,4.6,58.1,7.2c-3.5,3-13.7,10-58.1,9.4L156.6,398z"/>
	<path fill="#FFFFFF" d="M190.6,337.6c-5.9,16.5-5.9,34.2,0,50.7c1.1,3,3.9,4.8,7,4.8h23.5h23.5c3.1,0,6-2,7-5l0,0
		c5.9-16.5,5.9-34,0-50.5l0,0c-1.1-3-3.9-4.6-7-4.6h-23.5h-23.5C194.5,333,191.7,334.6,190.6,337.6z"/>
	<path fill="#E6E6E6" d="M196.9,385.1c4.6-14.6,4.6-30.3,0-45c-0.3-1-1.7-1-2,0c-4.6,14.6-4.6,30.3,0,45
		C195.3,386,196.6,386,196.9,385.1z"/>
	<path fill="#FFFFFF" d="M241.7,328.7v7c0,3-2.5,5.5-5.5,5.5s-5.5-2.5-5.5-5.5v-7c0-3-2.4-5.4-5.4-5.4h-7.5c-3,0-5.4,2.4-5.4,5.4
		v7c0,3-2.5,5.5-5.5,5.5s-5.5-2.5-5.5-5.5v-7c0-9.1,7.4-16.4,16.4-16.4h7.5C234.4,312.3,241.7,319.7,241.7,328.7z"/>
	<path class="arm-left fill" fill="#F1F1F1" d="M166,379.5c-7.7,0-14-6.3-14-14v-29.8c0-7.7,6.3-14,14-14s14,6.3,14,14v29.8
		C180,373.2,173.7,379.5,166,379.5z"/>
	<path class="arm-right fill" fill="#F1F1F1" d="M133.5,379.5c-7.7,0-14-6.3-14-14v-29.8c0-7.7,6.3-14,14-14s14,6.3,14,14v29.8
		C147.5,373.2,141.2,379.5,133.5,379.5z"/>
	<g opacity="0.6">
		<path fill="#5E4C3E" d="M227.9,352c1.3,3.2-1.2,4.6-4.4,6c-3.2,1.3-6,2.1-7.3-1.1c-1.3-3.2,0.2-6.9,3.5-8.3
			C222.9,347.2,226.6,348.7,227.9,352z"/>
		<ellipse transform="matrix(0.9249 -0.3803 0.3803 0.9249 -114.0094 111.6455)" fill="#5E4C3E" cx="225.5" cy="344.4" rx="2.6" ry="2.6"/>
		<ellipse transform="matrix(0.9249 -0.3803 0.3803 0.9249 -116.9835 107.1568)" fill="#5E4C3E" cx="212.7" cy="349.6" rx="2.6" ry="2.6"/>
		<ellipse transform="matrix(0.9249 -0.3803 0.3803 0.9249 -114.5848 108.7623)" fill="#5E4C3E" cx="218" cy="344.4" rx="2.6" ry="2.6"/>
	</g>
</g>
<g class="kitten-eyes face">
	<ellipse transform="matrix(0.9848 -0.1736 0.1736 0.9848 -44.1343 32.7444)" cx="165.1" cy="268.6" rx="5.3" ry="5.9"/>
	<ellipse transform="matrix(0.1736 -0.9848 0.9848 0.1736 -160.6594 345.7348)" cx="125.7" cy="268.6" rx="5.9" ry="5.3"/>
</g>
<g class="kitten-blink face">
	<path d="M129.7,272.1c-0.1,0-0.2,0-0.3,0l-8.6-1.7c-0.8-0.2-1.3-1-1.2-1.8c0.2-0.8,1-1.3,1.8-1.2l8.6,1.7c0.8,0.2,1.3,1,1.2,1.8
		C131,271.6,130.4,272.1,129.7,272.1z"/>
	<path d="M161.1,272.1c-0.7,0-1.3-0.5-1.5-1.2c-0.2-0.8,0.4-1.6,1.2-1.8l8.6-1.7c0.8-0.2,1.6,0.4,1.8,1.2c0.2,0.8-0.4,1.6-1.2,1.8
		l-8.6,1.7C161.3,272.1,161.2,272.1,161.1,272.1z"/>
</g>
</svg>
