<svg xmlns="http://www.w3.org/2000/svg" width="740" height="480" viewBox="0 0 740 480" class="fan">
  <path class="fill" d="M197.38,329.22c0-.89-.07-1.78-.13-2.66-.88-11.54-5.78-21-15.54-27.44-8.62-5.68-19.59-6.81-29.54-5a36.91,36.91,0,0,0-15.11,6.34c-12.19,1.12-25.94,8.09-37.11,20-12.2,13-18.35,28.67-17.57,41.6l-.82,0a171.23,171.23,0,0,0-18.21.4c-6.08.39-12.18,1-18.31,2-3.06.48-6.16,1.06-9.24,1.76-1.57.37-3.14.76-4.69,1.19s-3.21,1-4.78,1.54a9.16,9.16,0,0,0,2.92,17.81h.66l16.87.19q8.68.07,17.5,0c5.87-.05,11.75-.09,17.65-.51a107.59,107.59,0,0,0,14.82-2,35.8,35.8,0,0,0,14.1,3.43h4.88c15,0,20-5,21.28-12.23l.13-.06a14,14,0,0,0,27.84-2V363c1.65-.84,3.18-1.64,4.5-2.37v12.82a14,14,0,0,0,28,0V330.67A14.16,14.16,0,0,0,197.38,329.22Z" fill="#f1f1f1"/>
  <g class="kitten-head">
    <path class="fill" d="M162.83,312.69c-18.86,0-32.76-4-42.84-12.71l-4.29,3.54a2.86,2.86,0,0,1-3.65-4.42l3.94-3.25a27.77,27.77,0,0,1-2.8-4.25l-6,2.05a2.86,2.86,0,1,1-1.85-5.42l5.72-2a29.38,29.38,0,0,1-.89-4.31l-7.81-.49a2.86,2.86,0,0,1,.36-5.72l7.11.44h0c.45-15.72,3.76-40.26,8.21-51.07,1.28-4.08,6.47-6.47,10-3.69h0a133.15,133.15,0,0,1,21.56,16.22c5.08-1.45,7.7-2.25,13.27-2.25s8.2.8,13.27,2.25a133.15,133.15,0,0,1,21.56-16.22h0c3.5-2.78,8.69-.39,10,3.69,4.45,10.81,7.76,35.36,8.21,51.07h0l7.11-.44a2.86,2.86,0,0,1,.36,5.72l-7.81.49a29.38,29.38,0,0,1-.89,4.31l5.72,2a2.86,2.86,0,1,1-1.85,5.42l-6-2.05a27.77,27.77,0,0,1-2.8,4.25l3.94,3.25a2.86,2.86,0,1,1-3.65,4.42L205.67,300C195.59,308.69,181.69,312.69,162.83,312.69Z" fill="#f1f1f1"/>
    <path d="M104.83,263.12,103,256.2a219.2,219.2,0,0,1-4-41.36,65.34,65.34,0,0,1,3.55-21.55,2.8,2.8,0,0,0,.16-.94V125.74c0-7.76,5.64-17,12.67-20.31,17.62-8.2,34.92,4.54,34.92,21.24v13.91a.13.13,0,0,0,.13.13H156a23.2,23.2,0,0,1,13.43,4.23,2.76,2.76,0,0,0,2.39.39,23.37,23.37,0,0,1,6.85-1h1a23.32,23.32,0,0,1,15,5.52,2.65,2.65,0,0,0,2.32.56,23.28,23.28,0,0,1,5.33-.62h2.67a21.6,21.6,0,0,1,21.6,21.6v14.34a23.2,23.2,0,0,1-2.46,10.46,2.93,2.93,0,0,0-.21,2.16,64.29,64.29,0,0,1,2.67,18.39,187.39,187.39,0,0,1-4.12,39.81l-2,6.59s-11.81,3.66-55.8,3.66S104.83,263.12,104.83,263.12Z" fill="#75c69f"/>
    <path d="M219.24,173.57A16.48,16.48,0,0,0,193.44,160,16.45,16.45,0,0,0,169,155.07a16.45,16.45,0,0,0-26-1.31V126.67a16.5,16.5,0,1,0-33,0v67.51a56.85,56.85,0,0,0-3.72,20.68A218.53,218.53,0,0,0,110,254.23a2,2,0,0,0,3.92-.81,213.94,213.94,0,0,1-3.68-38.56c0-9.37,2.35-31.92,24-38.82,7-2.1,12.48-2.13,16.13-.07,2.63,1.48,4.39,4,5.37,7.81,1.94,7.47-2.29,13.92-10.51,16.06l-5.46,1.39a2,2,0,0,0,1,3.88l5.47-1.39a19.9,19.9,0,0,0,9.81-5.67c3.66,1,8.06,2.9,10.36,6.65a2,2,0,0,0,3.41-2.09c-2.23-3.62-6.13-6.36-11.34-8a15.45,15.45,0,0,0,1-2.44,16.4,16.4,0,0,0,6.05-2.94,16.48,16.48,0,0,0,22.82,4.18,16.58,16.58,0,0,0,14.34,8.34,16.4,16.4,0,0,0,9.39-3,53.12,53.12,0,0,1,3.11,17.94,181.93,181.93,0,0,1-3.67,36.65,2,2,0,1,0,3.9.9,182.33,182.33,0,0,0,3.77-37.55,57.1,57.1,0,0,0-3.93-20.82,16.42,16.42,0,0,0,3.93-10.66Zm-86.1-1.35A35.13,35.13,0,0,0,114,186.49V126.67a12.5,12.5,0,1,1,25,0v44.19A45.55,45.55,0,0,0,133.14,172.22Zm19.27.27a17.85,17.85,0,0,0-9.42-2v-6a12.5,12.5,0,1,1,25,0v11.67a12.46,12.46,0,0,1-7.72,11.55,17.94,17.94,0,0,0-.58-4.94C158.44,178,156,174.5,152.41,172.48Zm16.06,13.86A16.46,16.46,0,0,0,172,176.17V164.5a16.39,16.39,0,0,0-1.08-5.82,12.38,12.38,0,0,1,8.2-3.08,12.52,12.52,0,0,1,12.5,12.5v11.67a12.5,12.5,0,0,1-23.13,6.58Zm23,4.31a16.41,16.41,0,0,0,4.13-10.89V168.1a16.42,16.42,0,0,0-.6-4.36,12.5,12.5,0,0,1,20.23,9.83v11.67a12.44,12.44,0,0,1-3.28,8.41,2,2,0,0,0-.74.75,12.47,12.47,0,0,1-19.74-3.73Z" fill="#f2f2f2"/>
    <path d="M135.5,239.58v-4.47h5.14l1.17-5.06h-4.43v-4.52h5.31l1.8-8.11h5l-1.84,8.11h4.6l1.8-8.11h4.89L157,225.53h3.81V230h-4.6l-1.09,5.06h4.35v4.47H154l-1.51,6.94h-4.85l1.51-6.94H144.5L143,246.53h-4.89l1.46-6.94Zm10-4.43h4.73l1.17-5.06h-4.77Z" fill="#f2f2f2"/>
    <path d="M166.79,246.53v-6.4h6.36V226.74h-6.36v-4.81a23,23,0,0,0,9.16-2.93q1.42-.79,2.59-1.59h2.8v22.71h6.11v6.4Z" fill="#f2f2f2"/>
    <g class="kitten-eyes face">
      <ellipse cx="182.52" cy="276.55" rx="5.28" ry="5.87" transform="translate(-45.25 35.9) rotate(-10)"/>
      <ellipse cx="143.14" cy="276.55" rx="5.87" ry="5.28" transform="translate(-154.06 369.49) rotate(-80)"/>
    </g>
    <g class="kitten-blink face">
      <path d="M147.15,280.09a1.49,1.49,0,0,1-.3,0l-8.62-1.74a1.5,1.5,0,1,1,.59-2.94l8.63,1.74a1.5,1.5,0,0,1-.29,3Z"/>
      <path d="M178.52,280.09a1.5,1.5,0,0,1-.29-3l8.63-1.74a1.5,1.5,0,1,1,.59,2.94l-8.62,1.74A1.49,1.49,0,0,1,178.52,280.09Z"/>
    </g>
    <path class="face" d="M162.82,287.82h2.65c1.32,0,2.09,1.27,1.32,2.18l-1.06,1.24-1.6,1.83a1.8,1.8,0,0,1-2.61,0l-1.61-1.87-1-1.19c-.78-.91,0-2.19,1.31-2.19Z"/>
  </g>
</svg>
