<?xml version="1.0" encoding="utf-8"?>
<!-- Generator: Adobe Illustrator 19.2.1, SVG Export Plug-In . SVG Version: 6.00 Build 0)  -->
<svg class="frisky" version="1.1" xmlns="http://www.w3.org/2000/svg" xmlns:xlink="http://www.w3.org/1999/xlink" x="0px" y="0px"
	 viewBox="0 0 740 480" enable-background="new 0 0 740 480" xml:space="preserve">
	<g>
		<path fill="#75C69F" d="M82.6,389.3c7.1,0.9,13-5.3,20.3-3.6c4.1,1,7.6,3.5,11.9,3.8c4.5,0.3,8.4-1.2,12-3.9
			c2.9-2.1,5.6-3.7,9.2-4.1c4.3-0.5,8.7-0.1,13,0.4c8.7,1.1,17.1,3.5,25.1,7.2c3.2,1.5,1.7,6.9-1.5,5.4c-8-3.7-16.4-6.2-25.1-7.1
			c-4-0.4-8.8-1.1-12.7-0.1c-3.9,1.1-6.8,4.6-10.5,6.1c-7.3,3-13.5,1-20.5-1.6c-7.5-2.9-13.7,4-21.3,3.1
			C79,394.5,79.1,388.8,82.6,389.3z"/>
		<path fill="#5994C9" d="M82.5,394.9c-0.7-0.1-1.3-0.4-1.7-0.9c0.3-0.3,0.6-0.6,1.1-0.7c2.5-0.9,4.4-2.6,6.2-4.5
			c4.8-1.3,9.3-4.2,14.6-3.1c-0.2,0-0.5,0.1-0.7,0.1c-5,0.6-7.9,4.5-11.1,7.9C88.1,394.5,85.4,395.3,82.5,394.9z"/>
		<path fill="#5994C9" d="M102.6,391.5c0.1,0,0.2,0,0.4,0c4.2,0,8.1,1.7,12.4,1c4.3-0.7,7.8-3.1,10.8-6.4c0.2-0.2,0.5-0.3,0.7-0.5
			c2.9-2.1,5.6-3.7,9.2-4.1c4.3-0.5,8.7-0.1,13,0.4c1.3,0.2,2.5,0.4,3.8,0.6c-2,0.1-4,0.2-6,0.5c-4,0.5-8.8,0.9-12.4,2.9
			c-1.9,1.1-3.4,2.7-4.9,4.4c-1.7,1.2-3.4,2.5-5.2,3.2c-7.3,3-13.5,1-20.5-1.6C103.4,391.7,103,391.6,102.6,391.5z"/>
	</g>		 
	<g class="whole-kitten">
		<g id="Layer_1">
			<path class="fill" d="M169.8,338c-17.2,7.8-31.5,10-44.3,6.2l-2.4,5c-0.3,0.6-0.8,1.1-1.4,1.4c-0.8,0.3-1.6,0.4-2.4,0
				c-1.4-0.7-2-2.4-1.3-3.8l2.2-4.6c-1.5-0.8-3-1.7-4.3-2.7l-4.6,4.4c-0.2,0.2-0.5,0.4-0.8,0.5c-1.1,0.5-2.4,0.3-3.3-0.6
				c-1.1-1.2-1-3,0.1-4l4.4-4.1c-0.9-1.1-1.8-2.3-2.6-3.6l-7.3,2.8c-1.5,0.6-3.1-0.2-3.7-1.7c-0.6-1.5,0.2-3.1,1.7-3.7l6.7-2.5l0,0
				c-6.1-14.5-13.3-38.2-13.7-49.9c-0.5-4.2,3.2-8.6,7.5-7.5l0,0c7.7,0.7,17.8,3,26.3,5.8c4-3.4,6.1-5.2,11.1-7.6s7.8-2.7,13-3.5
				c3.5-8.2,8.4-17.4,12.9-23.7l0,0c2-4,7.7-4,10.6-0.8c8.5,8,21.7,28.9,28.7,43.1l0,0l6.3-3.4c1.4-0.8,3.1-0.2,3.9,1.2
				c0.7,1.4,0.2,3.1-1.2,3.9l-6.9,3.7c0.4,1.4,0.8,2.9,1,4.3l6-0.6c1.6-0.2,3,1,3.1,2.6c0.1,1.3-0.6,2.4-1.7,2.9
				c-0.3,0.1-0.6,0.2-0.9,0.2l-6.3,0.6c-0.1,1.7-0.4,3.4-0.8,5l4.9,1.3c1.5,0.4,2.4,2,2,3.5c-0.2,0.9-0.8,1.5-1.6,1.9
				c-0.6,0.3-1.3,0.3-1.9,0.2l-5.4-1.4C197.9,320.8,186.9,330.2,169.8,338z"/>
				<ellipse transform="matrix(0.1171 -0.9931 0.9931 0.1171 -191.1207 500.2079)" class="fill" cx="185.8" cy="357.6" rx="42.6" ry="50.8"/>
			
				<ellipse transform="matrix(0.3178 -0.9482 0.9482 0.3178 -213.8423 413.9724)" class="fill" cx="180.8" cy="355.6" rx="42.6" ry="50.8"/>
			<g>
				<path fill="#5994C9" d="M195.9,364.1c-12,2-26.3-6.7-27.5-25.5c-1.2-18.8,14.2-29.9,24-28.8c14.1-5.7,34.5,7.9,33.8,23.2
					C228.8,349.5,215.8,366.1,195.9,364.1z"/>
				<g>
					<defs>
						<path id="SVGID_27_" d="M195.9,364.1c-12,2-26.3-6.7-27.5-25.5c-1.2-18.8,14.2-29.9,24-28.8c14.1-5.7,34.5,7.9,33.8,23.2
							C228.8,349.5,215.8,366.1,195.9,364.1z"/>
					</defs>
					<clipPath id="SVGID_2_">
						<use xlink:href="#SVGID_27_"  overflow="visible"/>
					</clipPath>
				</g>
			</g>
			<path fill="#75C69F" d="M188.6,310c-2,0.3-4.1,1-6.1,2.1c-4.8,15.6-5.9,32-3.2,48c1.8,1.3,3.8,2.3,5.8,3
				C181.4,345.5,182.6,327.1,188.6,310z"/>
			<path fill="#75C69F" d="M192.4,330.7c0.1-0.9,0.2-1.8,0.3-2.6c0.2,0,0.4,0,0.7,0c10.8-1.3,21.7-2.4,32.3,0c-0.5-2-1.3-4-2.5-5.8
				c-9.8-1.6-19.8-0.6-29.6,0.5c0.3-1.3,0.6-2.7,0.9-4c0,0,0,0,0,0c8.2-0.2,17.9-1.7,26.3,0.2c-2-2.3-4.3-4.3-7-6
				c-6-0.2-12.1,0.3-17.9,0.6c0.1-0.2,0.1-0.4,0.2-0.6c0.1-0.2,0.1-0.5,0.1-0.7c0.2-0.3,0.3-0.6,0.4-0.9c0.1-0.3,0.2-0.6,0.3-0.9
				c0.4,0.2,0.9,0.4,1.5,0.3c3.2-0.3,6.3-0.5,9.5-0.7c-5.2-1.9-10.8-2.2-15.7-0.3c-0.2,0-0.4,0-0.6,0c-0.1,0.2-0.1,0.3-0.2,0.5
				c-0.1,0.2-0.1,0.5-0.1,0.7c-0.2,0.2-0.4,0.5-0.5,0.9c-5.6,17-5.8,35.4-0.8,52.4c1.8,0.2,3.6,0.1,5.4-0.2c-1.1-3.6-2-7.2-2.6-10.9
				c3.8,3.5,7.5,7,11.3,10.5c2-0.4,4-1,5.8-1.7c-5.4-5-10.8-10.1-16.2-15.1c-0.6-0.5-1.2-0.7-1.8-0.7c-0.1-1.5-0.2-2.9-0.3-4.4
				c6.6,7.1,14.1,13.1,22.3,18c1.6-1,3-2.2,4.3-3.5c-9.3-5.4-17.7-12.2-24.9-20.3c-0.1-0.1-0.2-0.2-0.3-0.3c1.4-0.1,2.9-0.3,4.3-0.4
				c7.6,6.3,13.9,14.3,22.5,19.2c1.1-1.3,2.1-2.8,3-4.3c-6.9-3.9-12.3-10-18.2-15.4c1.9-0.1,3.9-0.2,5.8-0.2
				c4.2,4.7,8.8,8.9,13.9,12.5c0.7-1.7,1.2-3.5,1.5-5.3c-3-2.2-5.8-4.6-8.5-7.3c2.9,0,5.9,0.1,8.8,0.6c-0.1-0.7-0.1-1.4-0.2-2.2
				c0-1,0-2-0.1-3c-2.5-0.3-5-0.4-7.4-0.5C209.9,329.2,201.1,329.9,192.4,330.7z"/>
			<g>
				<path class="fill" d="M222.3,375.1c0,0,1-0.1,2.8-0.2c0.4,0,0.9,0,1.5-0.1c0.5,0,1-0.1,1.6-0.1c1.1-0.1,2.3-0.2,3.8-0.3
					c1.4-0.1,2.9-0.2,4.5-0.4c1.6-0.1,3.3-0.3,5-0.5c0.9-0.1,1.7-0.2,2.6-0.3c0.9-0.1,1.8-0.2,2.6-0.3c0.9-0.1,1.8-0.2,2.7-0.4
					c0.9-0.1,1.8-0.3,2.7-0.4c0.9-0.1,1.8-0.3,2.6-0.5c0.9-0.2,1.7-0.3,2.6-0.5c1.7-0.4,3.3-0.7,4.8-1.1c0.8-0.2,1.6-0.3,2.3-0.5
					c0.7-0.2,1.4-0.4,2.1-0.5c1.4-0.4,2.6-0.7,3.8-1c0.6-0.2,1.1-0.3,1.7-0.5c0.6-0.1,1-0.3,1.5-0.4c0.9-0.3,1.8-0.5,2.4-0.7
					c0.6-0.2,1.2-0.3,1.6-0.4c0.4-0.1,0.6-0.1,0.6-0.1l2.4-0.4c5.3-0.8,10.3,2.8,11.1,8.1c0.4,2.8-0.4,5.5-2,7.5c0,0-0.2,0.3-0.6,0.7
					c-0.4,0.5-1,1.1-1.8,1.9c-0.2,0.2-0.4,0.4-0.6,0.6c-0.2,0.2-0.5,0.4-0.7,0.6c-0.5,0.4-1.1,0.9-1.7,1.4c-1.2,1-2.7,1.8-4.3,2.8
					c-0.8,0.5-1.6,0.9-2.5,1.4c-0.9,0.4-1.8,0.9-2.8,1.3c-1.9,0.8-3.9,1.6-6.1,2.1c-2.1,0.7-4.3,1.1-6.5,1.5c-2.2,0.4-4.5,0.8-6.7,0.9
					c-2.3,0.3-4.5,0.4-6.7,0.4c-2.2,0-4.4,0-6.4,0c-2.1-0.1-4.1-0.2-6-0.4c-1.9-0.2-3.7-0.4-5.3-0.7c-1.6-0.2-3.2-0.6-4.5-0.9
					c-0.7-0.2-1.3-0.3-1.9-0.4c-0.5-0.1-1-0.3-1.4-0.4c-1.7-0.5-2.7-0.8-2.7-0.8c-4.9-1.6-7.5-6.9-5.9-11.7
					C215.5,377.8,218.7,375.4,222.3,375.1z"/>
			</g>
			<path fill="#75C69F" d="M180,313.6c-2.8,1.9-5.4,4.5-7.4,7.7c-1.9,8.6-2.7,17.4-2.5,26.2c1.4,3.9,3.4,7.2,5.9,9.7
				C174.1,342.6,175.5,327.7,180,313.6z"/>
			<path class="fill" d="M149.3,374.2c-3.9,0-7.7-1.6-10.5-4.7c-5.1-5.8-4.6-14.6,1.1-19.8l18.5-16.5c5.8-5.1,14.6-4.6,19.8,1.1
				c5.1,5.8,4.6,14.6-1.1,19.8l-18.5,16.5C155.9,373,152.6,374.2,149.3,374.2z"/>
			<path class="fill" d="M206.3,389.6c-4.5,0-8.9-2.2-11.6-6.1l-9.7-14.3c-4.3-6.4-2.7-15.1,3.7-19.4c6.4-4.3,15.1-2.7,19.4,3.7
				l9.7,14.3c4.3,6.4,2.7,15.1-3.7,19.4C211.8,388.8,209,389.6,206.3,389.6z"/>
			<path class="fill" d="M228.7,367.4c-4.5,0-8.9-2.2-11.6-6.1l-4.1-6.1c-4.3-6.4-2.7-15.1,3.7-19.4c6.4-4.3,15.1-2.7,19.4,3.7
				l4.1,6.1c4.3,6.4,2.7,15.1-3.7,19.4C234.2,366.6,231.4,367.4,228.7,367.4z"/>
			<path class="face" d="M166.4,315.4l2.4-1.1c1.2-0.5,2.4,0.3,2.1,1.4l-0.4,1.6l-0.7,2.3c-0.3,0.9-1.5,1.5-2.4,1.1l-2.2-1l-1.4-0.7
				c-1.1-0.5-0.9-2,0.3-2.5L166.4,315.4z"/>
		</g>
		<g class="kitten-eyes face">
			<g>
				<ellipse transform="matrix(0.8239 -0.5667 0.5667 0.8239 -136.8163 153.5579)" cx="178.7" cy="296.9" rx="5.3" ry="5.9"/>
			</g>
			<g>
				<ellipse transform="matrix(0.968 -0.2508 0.2508 0.968 -73.9952 45.8335)" cx="142.9" cy="313.3" rx="5.3" ry="5.9"/>
			</g>
		</g>
		<g class="kitten-blink face">
			<path d="M139.3,316.7c-0.7,0-1.3-0.5-1.5-1.1c-0.2-0.8,0.3-1.6,1.1-1.8l8-2c0.8-0.2,1.6,0.3,1.8,1.1c0.2,0.8-0.3,1.6-1.1,1.8l-8,2
			C139.6,316.7,139.4,316.7,139.3,316.7z"/>
			<path d="M175.8,301.7c-0.4,0-0.8-0.2-1.1-0.5c-0.6-0.6-0.5-1.6,0.1-2.1l6-5.6c0.6-0.6,1.6-0.5,2.1,0.1c0.6,0.6,0.5,1.6-0.1,2.1
			l-6,5.6C176.5,301.5,176.2,301.7,175.8,301.7z"/>
		</g>		
	</g>
</svg>
