<?xml version="1.0" encoding="utf-8"?>
<!-- Generator: Adobe Illustrator 21.0.0, SVG Export Plug-In . SVG Version: 6.00 Build 0)  -->
<svg class="midi" version="1.1" xmlns="http://www.w3.org/2000/svg" xmlns:xlink="http://www.w3.org/1999/xlink" x="0px" y="0px"
	 viewBox="0 0 740 480" enable-background="new 0 0 740 480" xml:space="preserve">
	<path class="fill" fill="#F1F1F1" d="M214.3422852,342.5367737c-0.9009399-11.5395508-6.9268188-21.0024414-16.9488525-27.440918
		c-8.8469849-5.6831055-20.1038818-6.8115234-30.3106689-5.0297852c-5.9741211,1.043457-11.2683105,3.3261719-15.7426758,6.5092773
		c-11.8011475,1.534668-24.8812256,8.4194336-35.59552,19.8276367
		c-18.9624634,20.190918-25.3308716,46.8935547-11.7570801,59.6411133
		c4.7337036,4.4458008,5.7537842,13.2822266,17.6411133,15.6806641c0,0,10.1521606,2,12.9020996,2
		c15.4165649,0,17.6149292-7.9208984,16.5678711-14.8037109l9.3510132-11.0805664
		c11.0854492-4.6196289,34.9232178-7.109375,37.1392822-7.7050781
		C211.2086182,376.4762268,215.2872925,354.6402893,214.3422852,342.5367737z"/>
	<path fill="#5994C9" d="M330.3323364,379.683136v40.2079773v0.0103149H150.3206787v-0.0103149V379.683136
		c0-2.9573975,2.3974304-5.3547974,5.3547974-5.3547974h13.9203339c1.3096313,0,2.3657837,1.0667114,2.3657837,2.3657837v0.1268616
		v6.7690735h136.7284088l-0.0019226-6.7690735c0.0350342,0,0.0634155-0.0284119,0.0634155-0.063446l0,0
		c0-1.3360596,1.0931702-2.4291992,2.4292297-2.4291992h13.8074036
		C327.934845,374.3283386,330.3323364,376.7258301,330.3323364,379.683136z"/>
	<path fill="#75C69F" d="M164.0975342,400.2272644h-5.9127808c-0.9886932,0-1.7901917-0.8014832-1.7901917-1.7901917V380.633667
		c0-0.9887085,0.8014984-1.7901917,1.7901917-1.7901917h5.9127808c0.988678,0,1.7901764,0.8014832,1.7901764,1.7901917v17.8034058
		C165.8877106,399.4257812,165.0862122,400.2272644,164.0975342,400.2272644z"/>
	<path fill="#A2D8C0" d="M161.9852142,390.4361877h-1.6881561c-0.9886932,0-1.7901764-0.8014832-1.7901764-1.7901917v-5.9000244
		c0-0.988678,0.8014832-1.7901917,1.7901764-1.7901917h1.6881561c0.9886932,0,1.7901764,0.8015137,1.7901764,1.7901917v5.9000244
		C163.7753906,389.6347046,162.9739075,390.4361877,161.9852142,390.4361877z"/>
	<rect x="190.4375" y="395.4804688" fill="#F2F2F2" width="2.1132812" height="18.1582031"/>
	<rect x="209.9697266" y="395.4804688" fill="#F2F2F2" width="2.1132812" height="18.1582031"/>
	<rect x="249.0341797" y="395.4804688" fill="#F2F2F2" width="2.1132812" height="18.1582031"/>
	<rect x="268.5664062" y="395.4804688" fill="#F2F2F2" width="2.1132812" height="18.1582031"/>
	<rect x="288.0996094" y="395.4804688" fill="#F2F2F2" width="2.1132812" height="18.1582031"/>
	<path fill="#FC5959" d="M319.5102234,388.3366394h-0.0000305c-2.6105957,0-4.7465515-2.1359558-4.7465515-4.746582l0,0
		c0-2.6106262,2.1359558-4.746582,4.7465515-4.746582h0.0000305c2.6105957,0,4.7465515,2.1359558,4.7465515,4.746582l0,0
		C324.2567749,386.2006836,322.1208191,388.3366394,319.5102234,388.3366394z"/>
	<path fill="#F2F2F2" d="M305.0097656,419.3462524h-129.369873c-2.0314636,0-3.678299-1.6468201-3.678299-3.6782837v-20.1872864
		h136.7264862v20.1872864C308.6880798,417.6994324,307.0412598,419.3462524,305.0097656,419.3462524z"/>
	<path fill="#FC5959" d="M319.5102234,400.2272644h-0.0000305c-2.6105957,0-4.7465515-2.1359558-4.7465515-4.7465515v-0.0000305
		c0-2.6105957,2.1359558-4.7465515,4.7465515-4.7465515h0.0000305c2.6105957,0,4.7465515,2.1359558,4.7465515,4.7465515v0.0000305
		C324.2567749,398.0913086,322.1208191,400.2272644,319.5102234,400.2272644z"/>
	<path fill="#FC7E7E" d="M319.5102234,386.2243042L319.5102234,386.2243042c-1.4488525,0-2.6342773-1.1854248-2.6342773-2.6342468
		l0,0c0-1.4488525,1.1854248-2.6342773,2.6342773-2.6342773l0,0c1.448822,0,2.6342468,1.1854248,2.6342468,2.6342773l0,0
		C322.1444702,385.0388794,320.9590454,386.2243042,319.5102234,386.2243042z"/>
	<path fill="#FC7E7E" d="M319.5102234,398.1149597L319.5102234,398.1149597c-1.4488525,0-2.6342773-1.1854248-2.6342773-2.6342773
		l0,0c0-1.448822,1.1854248-2.6342468,2.6342773-2.6342468l0,0c1.448822,0,2.6342468,1.1854248,2.6342468,2.6342468l0,0
		C322.1444702,396.9295349,320.9590454,398.1149597,319.5102234,398.1149597z"/>
	<path class="kitten-tail fill" fill="#F1F1F1" d="M113.8843384,381.3766174l-0.5292358-0.4204102
		c-4.1571045-3.2998047-8.2711792-6.8632812-12.2469482-10.6503906c-3.9815063-3.7827148-7.836792-7.7592773-11.5076294-11.8530273
		c-3.6759033-4.0898438-7.0936279-8.3579102-10.4239502-12.4951172c-3.3584595-4.125-6.4545288-8.2290039-9.4819336-11.956543
		l-1.0297852-1.2700195c-2.0422974-2.5-5.289856-3.9213867-8.7276611-3.4804688
		c-5.2977295,0.6801758-9.0412598,5.5258789-8.3613892,10.8237305c0.4868164,3.7929688,1.5101318,7.4238281,2.8720093,10.6591797
		c0.3463745,0.8120117,0.680542,1.6352539,1.0462646,2.4433594c0.3775635,0.7880859,0.7632446,1.5507812,1.1687622,2.3164062
		l1.2247925,2.2880859l1.3325806,2.1689453c3.6231079,5.7524414,8.0022583,10.7651367,12.6629639,15.4248047
		c4.6776733,4.6469727,9.7294312,8.8852539,15.2125854,12.6264648c1.406189,0.9018555,2.7998047,1.8129883,4.2139893,2.6865234
		c1.4455566,0.8540039,2.9313354,1.6552734,4.4030762,2.4526367c1.5062256,0.7753906,3.0577393,1.4985352,4.5999756,2.1938477
		c1.5857544,0.6708984,3.2223511,1.2685547,4.8392334,1.8388672c3.5769653,1.2548828,7.7211914,0.1953125,10.2105103-2.940918
		C118.5045166,390.2745667,117.8427124,384.518219,113.8843384,381.3766174z"/>
	<rect x="229.5019531" y="374.331543" fill="#F2F2F2" width="2.1132812" height="36.2994766"/>
	<path fill="#FFFFFF" d="M209.9699707,395.4811096v15.1499023h-17.4199829v-15.1499023h2.4899902
		c1.25,0,2.2600098-1.0102539,2.2600098-2.2700195v-18.8798828h7.9199829v18.8798828
		c0,1.2597656,1.0100098,2.2700195,2.2600098,2.2700195H209.9699707z"/>
	<path fill="#FFFFFF" d="M249.0300293,395.4811096v15.1499023h-17.4100342v-36.2998047h12.6600342v18.8798828
		c0,1.2597656,1.0199585,2.2700195,2.2699585,2.2700195H249.0300293z"/>
	<path fill="#FFFFFF" d="M268.5700073,395.4811096v15.1499023h-17.4199829v-15.1499023h2.4799805
		c1.2600098,0,2.2700195-1.0102539,2.2700195-2.2700195v-18.8798828h7.9099731v18.8798828
		c0,1.2597656,1.0200195,2.2700195,2.2700195,2.2700195H268.5700073z"/>
	<path fill="#FFFFFF" d="M288.0999756,395.4811096v15.1499023h-17.4199829v-15.1499023h2.4899902
		c1.25,0,2.2600098-1.0102539,2.2600098-2.2700195v-18.8798828h7.9199829v18.8798828
		c0,1.2597656,1.0100098,2.2700195,2.2600098,2.2700195H288.0999756z"/>
	<path fill="#FFFFFF" d="M308.6900024,376.6910706v33.9399414H290.210022v-15.1499023h2.4899902
		c1.25,0,2.2600098-1.0102539,2.2600098-2.2700195v-18.8798828h11.3699951
		C307.6300049,374.3312073,308.6900024,375.3907776,308.6900024,376.6910706z"/>
	<path fill="#FFFFFF" d="M229.5,374.3312073v36.2998047h-17.4199829v-15.1499023h2.4899902
		c1.25,0,2.2700195-1.0102539,2.2700195-2.2700195v-18.8798828H229.5z"/>
	<path fill="#FFFFFF" d="M190.4400024,395.4811096v15.1499023H171.960022v-33.9399414
		c0-1.300293,1.0599976-2.3598633,2.3599854-2.3598633h11.3699951v18.8798828c0,1.2597656,1.0100098,2.2700195,2.2600098,2.2700195
		H190.4400024z"/>
	<rect class="key-left" x="171.960022" y="398.4248657" fill="#FFFFFF" width="18.4799805" height="12.2061424"/>
	<rect class="key-right" x="212.0800171" y="398.4249878" fill="#FFFFFF" width="17.4199829" height="12.206027"/>
	<path fill="#4a88ba" d="M315.0765991,410.62854h-1.8436279h-4.5448608v5.0394287
		c0,2.0314941-1.6468506,3.6782227-3.6783447,3.6782227h-129.369873c-2.0314941,0-3.6782837-1.6467285-3.6782837-3.6782227
		V410.62854h-4.5415649h-7.5650635h-9.5343018v13.4871826c0,0,0,0,0,0.0102539c0,1.3099365,0.5280762,2.513916,1.3942261,3.3693848
		c0.8660889,0.8662109,2.0594482,1.404541,3.3796387,1.404541h170.4639282c2.6404419,0,4.7738647-2.1437988,4.7738647-4.7739258
		c0-0.0102539,0-0.0102539,0-0.0102539V410.62854H315.0765991z"/>
	<path fill="#494949" d="M195.0377502,395.4806824h-7.0875854c-1.2509613,0-2.2650757-1.0140991-2.2650757-2.2650757v-18.8872681
		c0-1.2509766,2.0702667-4.8869019,3.3212433-4.8869019h4.9752655c1.2509613,0,3.321228,3.6359253,3.321228,4.8869019v18.8872681
		C197.3028259,394.4665833,196.2887115,395.4806824,195.0377502,395.4806824z"/>
	<path fill="#494949" d="M214.5701599,395.4806824h-7.0875854c-1.2509613,0-2.2650757-1.0140991-2.2650757-2.2650757v-18.8872681
		c0-1.2509766,2.0702667-4.8869019,3.321228-4.8869019h4.9752808c1.2509613,0,3.321228,3.6359253,3.321228,4.8869019v18.8872681
		C216.8352356,394.4665833,215.8211212,395.4806824,214.5701599,395.4806824z"/>
	<path fill="#494949" d="M253.6348572,395.4806824h-7.0875854c-1.2509766,0-2.2650757-1.0140991-2.2650757-2.2650757v-18.8872681
		c0-1.2509766,2.0702667-4.8869019,3.321228-4.8869019h4.9752655c1.2509766,0,3.321228,3.6359253,3.321228,4.8869019v18.8872681
		C255.8999176,394.4665833,254.8858185,395.4806824,253.6348572,395.4806824z"/>
	<path fill="#494949" d="M273.1672058,395.4806824h-7.0875854c-1.250946,0-2.2650757-1.0140991-2.2650757-2.2650757v-18.8872681
		c0-1.2509766,2.070282-4.8869019,3.3212585-4.8869019h4.9752502c1.2509766,0,3.321228,3.6359253,3.321228,4.8869019v18.8872681
		C275.4322815,394.4665833,274.4181824,395.4806824,273.1672058,395.4806824z"/>
	<path fill="#494949" d="M292.699585,395.4806824h-7.0875854c-1.2509766,0-2.2650757-1.0140991-2.2650757-2.2650757v-18.8872681
		c0-1.2509766,2.070282-4.8869019,3.321228-4.8869019h4.9752808c1.250946,0,3.321228,3.6359253,3.321228,4.8869019v18.8872681
		C294.9646606,394.4665833,293.9505615,395.4806824,292.699585,395.4806824z"/>
	<path class="kitten-arm-right fill" fill="#F1F1F1" d="M228.6357422,379.5816956l-17.6953125-48.0351562
		c-2.671875-7.2543945-10.7128906-10.9702148-17.9765625-8.2973633c-7.2548828,2.6728516-10.9697266,10.7207031-8.296875,17.9760742
		l17.6953125,48.0351562c2.0849609,5.659668,7.4394531,9.1645508,13.1386719,9.1645508
		c1.6064453,0,3.2412109-0.2792969,4.8378906-0.8671875C227.59375,394.8849182,231.3085938,386.8370667,228.6357422,379.5816956z"/>
	<path class="kitten-arm-left fill" fill="#F1F1F1" d="M175.6923828,335.546051c-2.671875-7.2539062-10.71875-10.9707031-17.9765625-8.296875
		c-7.2548828,2.6728516-10.9697266,10.7211914-8.296875,17.9765625l17.6962891,48.0351562
		c2.0849609,5.6591797,7.4394531,9.1640625,13.1386719,9.1640625c1.6064453,0,3.2421875-0.2792969,4.8378906-0.8671875
		c7.2548828-2.6728516,10.9697266-10.7211914,8.296875-17.9765625L175.6923828,335.546051z"/>
<g class="kitten-head">
	<path class="fill" fill="#F1F1F1" d="M181.6304169,329.6701965c-18.8558655,0-32.7604828-4.0030823-42.8402252-12.7120667l-4.2854614,3.5391541
		c-0.5338898,0.4409485-1.179657,0.6557007-1.821701,0.6557007c-0.8253937,0-1.6439514-0.3545837-2.2101593-1.0404358
		c-1.0075073-1.2194519-0.8353424-3.0246887,0.3847198-4.0318604l3.9394531-3.2533875
		c-1.0622253-1.3322754-1.9973297-2.7490845-2.7979279-4.2503357l-6.0236435,2.0534973
		c-0.3064117,0.1044312-0.6178055,0.1541443-0.9242172,0.1541443c-1.1920929,0-2.3046341-0.7498779-2.711113-1.9407349
		c-0.5102768-1.4972534,0.2896347-3.1247253,1.7868958-3.6350098l5.7212296-1.9504089
		c-0.3961945-1.378479-0.6949921-2.8144836-0.8906097-4.3093262l-7.8083725-0.4866638
		c-1.5786819-0.0982056-2.7782364-1.4577942-2.6800385-3.036499c0.0988235-1.5783691,1.44133-2.7819519,3.0367966-2.6803284
		l7.1080933,0.4429932l0.0050201-0.0005493c0.4547272-15.7169189,3.7592316-40.2619629,8.2098236-51.0730133
		c1.2809753-4.0805817,6.4680786-6.4698944,9.971756-3.6863708l0.0000458,0.0000305
		c6.7108917,3.880722,14.9761658,10.155304,21.5550995,16.220047c5.0786743-1.4522095,7.6996002-2.2539825,13.2745361-2.2539825
		s8.1958618,0.8017731,13.2745361,2.2539825c6.578949-6.064743,14.8442078-12.339325,21.5551147-16.220047l0.0000305-0.0000305
		c3.5036774-2.7835236,8.6907806-0.3942108,9.971756,3.6863708c4.450592,10.8110504,7.7550964,35.3560944,8.2098236,51.0730133
		l0.0050201,0.0005493l7.1080933-0.4429932c1.5954742-0.1016235,2.937973,1.1019592,3.0368042,2.6803284
		c0.0981903,1.5787048-1.1013489,2.9382935-2.6800385,3.036499l-7.8083649,0.4866638
		c-0.1956329,1.4948425-0.4944305,2.9308472-0.890625,4.3093262l5.7212372,1.9504089
		c1.4972687,0.5102844,2.2971649,2.1377563,1.7868958,3.6350098c-0.4064789,1.1908569-1.5190277,1.9407349-2.7111206,1.9407349
		c-0.3064117,0-0.6177979-0.0497131-0.9242096-0.1541443l-6.0236359-2.0534973
		c-0.8006134,1.5012512-1.7357025,2.9180603-2.7979431,4.2503357l3.9394531,3.2533875
		c1.2200623,1.0071716,1.3922272,2.8124084,0.3847351,4.0318604c-0.5662231,0.6858521-1.3847809,1.0404358-2.2101593,1.0404358
		c-0.6420441,0-1.2878113-0.2147522-1.8217163-0.6557007l-4.2854462-3.5391541
		C214.3909149,325.6671143,200.4862976,329.6701965,181.6304169,329.6701965z"/>
	<path class="face" d="M181.6169128,304.7905579h2.6464996c1.3224792,0,2.0891876,1.2722473,1.3160553,2.1838074l-1.055191,1.2441406
		l-1.5950165,1.8265381c-0.6513824,0.7459106-1.9670715,0.7420044-2.6122742-0.007782l-1.6074524-1.868042l-1.0215912-1.1871643
		c-0.7835083-0.910553-0.0180817-2.1914978,1.3095093-2.1914978H181.6169128z"/>
	<g class="face kitten-eyes">
		<ellipse transform="matrix(0.9848077 -0.1736482 0.1736482 0.9848077 -47.9109764 39.4183884)" cx="201.3216248" cy="293.5216675" rx="5.2805867" ry="5.8673186"/>
		<ellipse transform="matrix(0.1736482 -0.9848077 0.9848077 0.1736482 -155.2436676 402.031189)" cx="161.9392242" cy="293.5216675" rx="5.8673186" ry="5.2805867"/>
	</g>
	<g class="kitten-blink">
		<path d="M165.94487,296.8925476c-0.0986328,0-0.1982422-0.0097656-0.2988281-0.0302734l-8.625-1.7407227
			c-0.8115234-0.1635742-1.3369141-0.9550781-1.1738281-1.7670898c0.1640625-0.8125,0.9541016-1.3383789,1.7675781-1.1733398
			l8.625,1.7407227c0.8115234,0.1635742,1.3369141,0.9550781,1.1738281,1.7670898
			C167.2700653,296.4008484,166.6440887,296.8925476,165.94487,296.8925476z"/>
		<path d="M197.3159637,296.8925476c-0.6992188,0-1.3251953-0.4916992-1.46875-1.2036133
			c-0.1630859-0.8120117,0.3623047-1.6035156,1.1738281-1.7670898l8.625-1.7407227
			c0.8115234-0.1645508,1.6035156,0.3608398,1.7675781,1.1733398c0.1630859,0.8120117-0.3623047,1.6035156-1.1738281,1.7670898
			l-8.625,1.7407227C197.5142059,296.882782,197.4145966,296.8925476,197.3159637,296.8925476z"/>
	</g>
	<g opacity="0.8">
		<polygon fill="#222222" points="144.7229614,286.5132141 146.9851685,299.3269348 152.8153229,305.5252075
			162.4585571,306.7701721 170.0411072,304.3217163 174.1367188,297.9936523 174.9036407,288.9599304 170.8157806,283.7884216
			157.1763916,282.7504578 145.5986633,282.7504578 			"/>
	</g>
	<g opacity="0.8">
		<polygon fill="#222222" points="218.568161,286.5132141 216.305954,299.3269348 210.4757996,305.5252075
			200.8325653,306.7701721 193.2500153,304.3217163 189.1544189,297.9936523 188.3874969,288.9599304 192.4753571,283.7884216
			206.1147461,282.7504578 217.6924591,282.7504578 			"/>
	</g>
	<g opacity="0.5">
		<rect x="144.1429138" y="288.0778503" transform="matrix(0.7049354 -0.7092715 0.7092715 0.7049354 -160.2228546 196.3071899)" fill="#FFFFFF" width="23.3714027" height="5.2926226"/>
	</g>
	<g opacity="0.5">
		<rect x="147.910614" y="292.6906433" transform="matrix(0.7071068 -0.7071068 0.7071068 0.7071068 -160.3295441 200.9576721)" fill="#FFFFFF" width="29.0039806" height="2.6461263"/>
	</g>
	<g opacity="0.5">
		<rect x="187.1458435" y="287.8322449" transform="matrix(0.7049354 -0.7092715 0.7092715 0.7049354 -147.3600159 226.7354736)" fill="#FFFFFF" width="23.3714027" height="5.2926226"/>
	</g>
	<g opacity="0.5">
		<rect x="190.9135437" y="292.4447937" transform="matrix(0.7071068 -0.7071068 0.7071068 0.7071068 -147.5604248 231.2933197)" fill="#FFFFFF" width="29.0039806" height="2.6461263"/>
	</g>
	<path fill="#1C1C1C" d="M221.6259766,281.2511292c-0.4111328-0.6191406-1.0927734-1.0039062-1.8349609-1.034668
		l-16.6894531-0.690918c-4.0898438,0-7.2802734,0.4667969-9.7382812,1.1123047
		c-0.0185547,0.0048828-0.0380859,0.0097656-0.0576172,0.015625c-3.3853149,0.8974609-5.3640137,2.1318359-6.3822021,2.9423828
		c-1.4330444-0.8100586-3.135437-1.2714844-4.9625244-1.2714844h-0.6611328c-1.8264771,0-3.5253296,0.4658203-4.958313,1.2753906
		c-0.9885864-0.7866211-2.8880615-1.9750977-6.1207886-2.8666992c-0.0800781-0.0253906-0.1611328-0.050293-0.2431641-0.0737305
		c-0.0839844-0.0239258-0.1669922-0.0429688-0.2509766-0.0576172c-2.4501953-0.6259766-5.6162109-1.0742188-9.6552734-1.0742188
		c-0.0019531,0-0.0058594,0-0.0078125,0l-16.59375,0.6889648c-0.7421875,0.0307617-1.4238281,0.4155273-1.8339844,1.034668
		c-0.4111328,0.6186523-0.4990234,1.3964844-0.2382812,2.0917969l1.3232422,3.5283203
		c0.0264282,0.0708008,0.072998,0.1279297,0.1057739,0.1948242c0.0836792,0.809082,0.1530151,1.6513672,0.2233276,2.5185547
		c0.6181641,7.6943359,1.5527344,19.3222656,16.9150391,19.519043c0.1484375,0.0014648,0.2958984,0.0024414,0.4433594,0.0024414
		c5.5712891,0,9.6582031-1.3725586,12.4814453-4.1899414c4.2338257-4.2246094,4.3723755-10.496582,4.3267822-15.734375
		l0.0518799-0.3022461c0.7223511-1.1806641,2.2419434-1.9243164,4.0314941-1.9243164h0.6611328
		c1.7895508,0,3.3091431,0.7436523,4.0314941,1.9243164l0.0518799,0.3022461
		c-0.0445557,5.1469727,0.0946045,11.309082,4.2349854,15.5185547c2.8798828,2.9287109,7.1240234,4.3686523,12.9736328,4.4033203
		c0.0595703,0,0.1171875,0,0.1757812,0c14.9785156-0.0004883,16.0019531-11.3574219,16.6796875-18.8828125
		c0.0991211-1.109375,0.1958008-2.1552734,0.321167-3.1459961c0.0344849-0.0693359,0.0828247-0.1293945,0.1104736-0.2036133
		l1.3232422-3.5283203C222.1240234,282.6476135,222.0351562,281.8697815,221.6259766,281.2511292z M169.6191406,301.6378479
		c-1.9423828,1.9375-5.1640625,2.8945312-9.5957031,2.8349609c-10.3671875-0.1328125-11.6240234-6.1279297-12.3574219-15.2587891
		c-0.0722046-0.8989258-0.1453247-1.7709961-0.2322998-2.6103516c0.760376-0.8041992,2.1772461-1.9853516,4.0096436-2.0683594
		c0.0898438-0.0039062,0.1787109-0.0126953,0.265625-0.0273438l8.4501953-0.3515625
		c3.78125,0,6.609375,0.4394531,8.6748047,0.9951172c2.480835,0.7973633,3.4993896,3.359375,3.7523804,4.1220703
		C172.6245117,293.8087463,172.5089722,298.7540588,169.6191406,301.6378479z M203.2802734,304.4728088
		c-4.5546875-0.0273438-7.7275391-1.0146484-9.6992188-3.0195312c-2.8267212-2.8740234-2.9440918-7.7265625-2.9065552-12.1777344
		c0.2640991-0.7949219,1.3172607-3.4243164,3.8919067-4.1660156l0.0009766-0.0004883
		c2.0371094-0.5371094,4.7929688-0.9541016,8.4384766-0.9545898l8.5537109,0.3554688
		c0.0849609,0.0126953,0.1708984,0.0214844,0.2578125,0.0253906c1.8310547,0.0830078,3.2476807,1.2631836,4.0062256,2.0639648
		c-0.12854,1.0375977-0.227356,2.0922852-0.3275146,3.206543
		C214.6699219,298.9708557,213.4853516,304.5177307,203.2802734,304.4728088z"/>
</g>
</svg>
