<?xml version="1.0" encoding="utf-8"?>
<!-- Generator: Adobe Illustrator 19.2.1, SVG Export Plug-In . SVG Version: 6.00 Build 0)  -->
<svg class="rocketship" version="1.1" xmlns="http://www.w3.org/2000/svg" xmlns:xlink="http://www.w3.org/1999/xlink" x="0px" y="0px"
	 viewBox="0 0 740 480" enable-background="new 0 0 740 480" xml:space="preserve">
<g class="kitty-fly">
<g class="kitty-wiggle">
	<g class="flame">
		<path fill="#FCB47E" d="M163.3,329.4c8.3,9,10.1,22.9,10.6,28c0.1,0.9-0.8,1.5-1.6,1.1l-5-2.4c-2.8-1.4-6.2-0.4-7.8,2.3l-3.4,5.5
			c-0.4,0.6-1.2,0.7-1.7,0.3l-5.6-4.9c-2.3-2-5.7-2-8,0l-5.6,4.9c-0.5,0.5-1.4,0.3-1.7-0.3l-3.4-5.5c-1.6-2.7-5-3.6-7.8-2.3l-5,2.4
			c-0.8,0.4-1.7-0.2-1.6-1.1c0.4-5.1,2.3-18.9,10.6-28H163.3z"/>
		<path fill="#F2CC7B" d="M144.7,332.4l9.4-1c4,4,6.7,11.5,7.8,14.5c0.2,0.6-0.3,1.2-0.9,1.1c-2.8-0.6-6.2,1.5-7.7,4.1
			c-0.5,0.9-1.9,1-2.8,0.3c-1.4-1-2.7-2.6-5.8-2.6c-3.2,0-4.5,1.6-5.8,2.6c-0.9,0.6-2.3,0.6-2.8-0.3c-1.4-2.5-4.8-4.7-7.7-4.1
			c-0.6,0.1-1.1-0.5-0.9-1.1c1.1-2.9,3.8-10.4,7.8-14.5C135.3,331.4,144.7,332.4,144.7,332.4z"/>
	</g>
	<path class="fill tail" fill="#F1F1F1" d="M114.4,296.1c0,0-1-0.1-2.8-0.4c-0.4-0.1-0.9-0.2-1.5-0.2c-0.6-0.1-1.2-0.3-1.9-0.4
		c-1.4-0.3-2.9-0.6-4.5-1.1c-1.6-0.4-3.3-0.9-5.1-1.6c-1.8-0.6-3.7-1.3-5.6-2.1c-1.9-0.8-3.9-1.7-5.9-2.6c-2-1-4-2-5.9-3.2
		c-2-1.1-3.9-2.4-5.7-3.7c-1.8-1.3-3.7-2.6-5.3-4.1c-1.7-1.4-3.2-3-4.6-4.5c-0.7-0.7-1.3-1.6-2-2.3c-0.6-0.8-1.2-1.5-1.7-2.3
		c-1-1.6-2-2.9-2.7-4.4c-0.4-0.7-0.7-1.3-1-1.9c-0.1-0.3-0.3-0.6-0.4-0.9c-0.1-0.3-0.2-0.6-0.3-0.8c-0.4-1.1-0.7-1.9-0.9-2.5
		c-0.2-0.6-0.3-0.9-0.3-0.9c-1.3-5.2,1.9-10.5,7.1-11.7c2.7-0.7,5.5-0.1,7.6,1.3l2.1,1.4c0,0,0.2,0.1,0.5,0.4
		c0.3,0.2,0.7,0.6,1.2,1c0.5,0.5,1.2,1,1.9,1.6c0.4,0.3,0.7,0.7,1.2,1c0.4,0.4,0.9,0.7,1.3,1.1c0.9,0.8,2,1.6,3.1,2.5
		c0.6,0.4,1.2,0.9,1.7,1.4c0.6,0.5,1.2,0.9,1.8,1.4c1.2,1,2.6,2,3.9,3c0.7,0.5,1.4,1,2.1,1.5c0.7,0.5,1.4,1,2.2,1.5
		c0.8,0.5,1.5,1,2.2,1.5c0.8,0.5,1.5,1,2.3,1.4c0.7,0.5,1.5,0.9,2.3,1.4c0.8,0.5,1.5,0.9,2.2,1.4c1.5,0.9,2.9,1.7,4.3,2.5
		c1.4,0.8,2.7,1.5,4,2.2c1.2,0.7,2.3,1.3,3.3,1.8c0.5,0.3,0.9,0.5,1.4,0.8c0.5,0.2,0.9,0.5,1.3,0.7c1.6,0.8,2.5,1.4,2.5,1.4
		c4.4,2.5,6,8.2,3.4,12.7C121.6,294.7,118,296.4,114.4,296.1z"/>
	<path class="fill" fill="#F1F1F1" d="M194,292.7c-2.5-2.7-5.9-4.2-9.3-4.4c1-3.9,1.6-8.3,1.6-13.1c0-28-19.1-51.7-42.7-51.7
		c-23.6,0-42.6,23.7-42.6,51.8c0,4.1,0.4,7.8,1.2,11.2c-2.2,0.6-4.4,1.7-6.2,3.4c-5.7,5.3-6,14.1-0.7,19.8l5,5.4
		c3.3,3.5,8,5,12.4,4.3c2.7-0.4,5.3-1.6,7.4-3.6c1.2-1.1,2.1-2.3,2.8-3.7c6.1,2.7,13.2,4,20.7,4c7.8,0,15.1-1.4,21.4-4.3
		c0.6,1.9,1.6,3.6,3.1,5.2c5.3,5.7,14.1,6,19.8,0.7l5.4-5C199,307.2,199.3,298.3,194,292.7z"/>
	<g class="kitty-head">
		<path class="fill" fill="#F1F1F1" d="M145.7,248.3c-18.7,2.3-33,0-44.1-7.4l-3.8,4c-0.5,0.5-1.1,0.8-1.7,0.9c-0.8,0.1-1.7-0.2-2.3-0.8
			c-1.1-1.1-1.2-2.9-0.1-4l3.5-3.7c-1.2-1.2-2.3-2.5-3.3-3.9l-5.7,2.8c-0.3,0.1-0.6,0.2-0.9,0.3c-1.2,0.1-2.4-0.5-2.9-1.6
			c-0.7-1.4-0.1-3.1,1.3-3.8l5.4-2.6c-0.6-1.3-1-2.7-1.4-4.2l-7.8,0.5c-1.6,0.1-2.9-1.1-3-2.7c-0.1-1.6,1.1-2.9,2.7-3l7.1-0.4l0,0
			c-1.4-15.7-1.1-40.4,2-51.7c0.8-4.2,5.6-7.2,9.5-4.9l0,0c7.1,3,16.1,8.3,23.4,13.5c4.9-2.1,7.4-3.2,12.9-3.8
			c5.5-0.7,8.2-0.2,13.4,0.6c5.8-6.8,13.2-14,19.4-18.7l0,0c3.1-3.2,8.6-1.4,10.3,2.5c5.7,10.2,12,34.2,14.3,49.7l0,0l7-1.3
			c1.6-0.3,3,0.7,3.3,2.3c0.3,1.6-0.7,3-2.3,3.3l-7.7,1.4c0,1.5-0.1,3-0.4,4.4l5.9,1.2c1.5,0.3,2.5,1.8,2.2,3.4
			c-0.3,1.2-1.3,2.1-2.5,2.3c-0.3,0-0.6,0-0.9,0l-6.2-1.3c-0.6,1.6-1.4,3.1-2.3,4.6l4.3,2.8c1.3,0.9,1.7,2.6,0.9,4
			c-0.5,0.7-1.2,1.2-2.1,1.3c-0.6,0.1-1.3-0.1-1.9-0.4l-4.7-3C177.8,240.4,164.5,246.1,145.7,248.3z"/>				
		<g class="kitten-eyes face">
			<ellipse transform="matrix(0.9566 -0.2913 0.2913 0.9566 -54.8996 56.172)" cx="161.2" cy="212.5" rx="5.3" ry="5.9"/>
			<ellipse transform="matrix(5.347026e-02 -0.9986 0.9986 5.347026e-02 -101.3304 327.555)" cx="122.1" cy="217.2" rx="5.9" ry="5.3"/>
		</g>
		<g class="kitten-blink face">
			<path d="M126.5,220.1c-0.1,0-0.2,0-0.3,0l-8.8-0.7c-0.8-0.1-1.4-0.8-1.4-1.6c0.1-0.8,0.8-1.4,1.6-1.4l8.8,0.7
				c0.8,0.1,1.4,0.8,1.4,1.6C127.7,219.5,127.1,220,126.5,220.1z"/>
			<path d="M157.6,216.3c-0.7,0.1-1.4-0.3-1.6-1c-0.3-0.8,0.2-1.6,0.9-1.9l8.3-2.8c0.8-0.3,1.6,0.2,1.9,0.9c0.3,0.8-0.2,1.6-0.9,1.9
				l-8.3,2.8C157.8,216.2,157.7,216.3,157.6,216.3z"/>
		</g>
		<path class="face" d="M143,226l2.6-0.3c1.3-0.2,2.2,1,1.6,2l-0.9,1.4l-1.4,2c-0.6,0.8-1.9,1-2.6,0.3l-1.8-1.7l-1.2-1.1c-0.9-0.8-0.3-2.2,1-2.3
			L143,226z"/>		
	</g>		
	<path fill="#FC5959" d="M120,290.5c-17.6,0-25.1,16.4-15.8,41c0.5,1.2,2.2,1.2,2.7,0c2-5.6,8.3-13.1,16.1-13.1"/>
	<path fill="#FC5959" d="M169.3,290.5c17.6,0,25.1,16.4,15.8,41c-0.5,1.2-2.2,1.2-2.7,0c-2-5.6-8.3-13.1-16.1-13.1"/>
	<path fill="#FFFFFF" d="M163.3,329.4c22.8-58.7-14.8-88.4-18.7-89.7c-3.9,1.3-41.4,31-18.7,89.7h0
		C138.1,333.4,151.2,333.4,163.3,329.4L163.3,329.4z"/>
	<path fill="#FC5959" d="M163.1,260.5c-7-13.3-16.5-20.2-18.4-20.8c-1.9,0.6-11.4,7.5-18.4,20.8
		C138.2,264.3,151.1,264.3,163.1,260.5z"/>
	<circle fill="#A5C6EF" cx="144.7" cy="279.9" r="9.8"/>
	<path opacity="0.4" fill="#FFFFFF" d="M140.7,279.9c-1.6,0-2.6-1.7-1.9-3.1c1.1-2.1,3.3-3.5,5.9-3.5c2.6,0,4.8,1.4,5.9,3.5
		c0.8,1.4-0.3,3.1-1.9,3.1H140.7z"/>
	<path fill="#F2F2F2" d="M122.3,318.4c1,3.6,2.2,7.2,3.7,11h0c12.1,4,25.2,4,37.3,0h0c1.5-3.8,2.7-7.5,3.7-11c0,0-9.2,3-22.5,3
		S122.3,318.4,122.3,318.4z"/>
	<path fill="#FC5959" d="M149,302l-3,36c-0.1,0.8-0.8,1.4-1.6,1.4c-0.7-0.1-1.3-0.7-1.4-1.4l-3-36c-0.2-2.5,1.6-4.7,4.1-4.9
			s4.7,1.6,4.9,4.1C149,301.5,149,301.8,149,302z"/>
	<path class="fill" fill="#F1F1F1" d="M108.5,252.2l16.1-3.6c7.5-1.7,15,3.1,16.7,10.7c1.7,7.6-3.1,15-10.7,16.7l-21.9,4.8L108.5,252.2z"/>
	<path class="fill" fill="#F1F1F1" d="M183.8,285.5l-26.5-1.3c-3.5-0.9-6.3-3-8.2-5.7c-2.2-3.2-3-7.3-2-11.3c1.9-7.5,9.5-12,17-10.1l9.9,1.5
		L183.8,285.5z"/>
</g>
</g>
</svg>
