<?xml version="1.0" encoding="utf-8"?>
<!-- Generator: Adobe Illustrator 19.2.1, SVG Export Plug-In . SVG Version: 6.00 Build 0)  -->
<svg class="scuba" version="1.1" xmlns="http://www.w3.org/2000/svg" xmlns:xlink="http://www.w3.org/1999/xlink" x="0px" y="0px"
	 viewBox="0 0 740 480" enable-background="new 0 0 740 480" xml:space="preserve">
<g id="Layer_1">
	<path class="fill" fill="#FFFFFF" d="M156.6,392.6c19-20.2,23.3-46.9,9.8-59.6s-39.9-6.7-58.9,13.5s-23.3,46.9-9.8,59.6
		c4.7,4.4,13.7,7.6,20.6,7.7c0,0,11.1,0,13.9,0c15.4,0,20.2-5.3,21.4-12.8L156.6,392.6z"/>
	<path class="fill" fill="#FFFFFF" d="M206.8,355.6c-0.9-11.5-5.8-21-15.5-27.4c-8.6-5.7-19.6-6.8-29.5-5c-15.4,2.8-26.2,14.2-29.7,28.1
		c-0.5,0.9-1.1,2.4-1.3,2.6c-0.9,1.7-1.9,3.4-2.8,5.1c-1.9,3.8-3.6,7.7-5.1,11.7c-3,8.3-6.2,19.6-1.5,27.8c3.2,5.5,9.7,8.7,15.9,8.5
		c5.1-0.2,9.8-2.7,14.4-4.5c7.7-3.1,29.8-13,32-15.9c2.7-0.2,5.4-0.6,7.8-1.3C204.7,381.6,207.7,367.7,206.8,355.6z"/>
	<path class="fill" fill="#FFFFFF" d="M174.6,343.5c-18.8-1.9-32.2-7.3-41.3-17l-4.6,3.1c-0.6,0.4-1.2,0.5-1.9,0.5c-0.8-0.1-1.6-0.5-2.1-1.3
		c-0.9-1.3-0.5-3.1,0.8-4l4.3-2.8c-0.9-1.4-1.7-2.9-2.3-4.5l-6.2,1.4c-0.3,0.1-0.6,0.1-0.9,0.1c-1.2-0.1-2.2-1-2.5-2.2
		c-0.4-1.5,0.6-3.1,2.2-3.4l5.9-1.4c-0.3-1.4-0.4-2.9-0.4-4.4l-7.7-1.3c-1.6-0.3-2.6-1.7-2.4-3.3c0.3-1.6,1.7-2.6,3.3-2.4l7,1.2h0
		c2.1-15.6,7.9-39.7,13.4-50c1.7-3.9,7.1-5.8,10.3-2.6l0,0c6.3,4.5,13.9,11.6,19.8,18.3c5.2-0.9,7.9-1.5,13.4-0.9s8.1,1.6,13,3.6
		c7.2-5.4,16-10.8,23.1-13.9l0,0c3.8-2.4,8.7,0.5,9.5,4.7c3.3,11.2,4.1,36,2.9,51.6l0,0l7.1,0.3c1.6,0.1,2.8,1.4,2.7,3
		c-0.1,1.6-1.4,2.8-3,2.7l-7.8-0.3c-0.3,1.5-0.8,2.9-1.3,4.2l5.5,2.5c1.4,0.7,2.1,2.4,1.4,3.8c-0.5,1.1-1.7,1.8-2.9,1.7
		c-0.3,0-0.6-0.1-0.9-0.2l-5.8-2.7c-1,1.4-2,2.7-3.2,3.9l3.6,3.6c1.1,1.1,1.1,2.9,0,4.1c-0.6,0.6-1.5,0.9-2.3,0.8
		c-0.6-0.1-1.3-0.3-1.7-0.8l-3.9-4C207.6,342.9,193.4,345.4,174.6,343.5z"/>
	<path class="face" d="M185.1,319.6l2.6,0.3c1.3,0.1,1.9,1.5,1.1,2.3l-1.2,1.1l-1.8,1.7c-0.7,0.7-2,0.5-2.6-0.3l-1.4-2l-0.9-1.3
		c-0.7-1,0.2-2.2,1.5-2L185.1,319.6z"/>
	<path class="fill" fill="#FFFFFF" d="M101,402.2c0,0-1,0.3-2.7,0.8c-0.4,0.1-0.9,0.3-1.4,0.4c-0.6,0.1-1.2,0.3-1.9,0.4c-1.4,0.3-2.9,0.6-4.5,0.9
		c-1.6,0.3-3.4,0.5-5.3,0.7c-1.9,0.2-3.9,0.3-6,0.4c-2.1,0.1-4.2,0.1-6.4,0c-2.2-0.1-4.4-0.2-6.7-0.4c-2.2-0.2-4.5-0.6-6.7-0.9
		c-2.2-0.5-4.4-0.9-6.5-1.5c-2.1-0.6-4.2-1.4-6.1-2.1c-1-0.4-1.9-0.9-2.8-1.3c-0.9-0.4-1.7-0.8-2.5-1.4c-1.6-1-3-1.8-4.3-2.8
		c-0.6-0.5-1.2-0.9-1.7-1.4c-0.3-0.2-0.5-0.4-0.7-0.6c-0.2-0.2-0.4-0.4-0.6-0.6c-0.8-0.8-1.4-1.4-1.8-1.9c-0.4-0.4-0.6-0.7-0.6-0.7
		c-3.3-4.2-2.6-10.3,1.6-13.6c2.2-1.7,4.9-2.4,7.5-2l2.5,0.4c0,0,0.2,0,0.6,0.1c0.4,0.1,0.9,0.2,1.6,0.4c0.6,0.2,1.5,0.4,2.4,0.7
		c0.5,0.1,0.9,0.3,1.5,0.4c0.5,0.1,1.1,0.3,1.7,0.5c1.2,0.3,2.5,0.6,3.8,1c0.7,0.2,1.4,0.3,2.1,0.5c0.7,0.2,1.5,0.3,2.3,0.5
		c1.5,0.4,3.2,0.7,4.8,1.1c0.9,0.2,1.7,0.3,2.6,0.5c0.9,0.2,1.7,0.3,2.6,0.5c0.9,0.1,1.8,0.3,2.7,0.4c0.9,0.1,1.8,0.2,2.7,0.4
		c0.9,0.1,1.8,0.2,2.6,0.3c0.9,0.1,1.7,0.2,2.6,0.3c1.7,0.2,3.4,0.4,5,0.5c1.6,0.2,3.1,0.3,4.5,0.4c1.4,0.1,2.6,0.2,3.8,0.3
		c0.6,0.1,1.1,0.1,1.6,0.1c0.5,0,1,0,1.5,0.1c1.8,0.1,2.8,0.2,2.8,0.2c5.1,0.5,8.9,5,8.4,10.1C107,398,104.4,401,101,402.2z"/>
	<g class="arm">
		<path class="fill" fill="#FFFFFF" d="M202.3,407.6c-3.7-1.2-6.9-4-8.5-8l-15.2-37c-2.9-7.2,0.5-15.3,7.6-18.3c7.2-2.9,15.3,0.5,18.3,7.6
			l15.2,37c2.9,7.2-0.5,15.3-7.6,18.3C208.8,408.6,205.3,408.6,202.3,407.6z"/>
		<path fill="#F9914B" d="M219.2,387.6l-26,10.7l-0.1,0c-1.4,0.6-4.7,0-6.7-4.8c-2-4.8,0.4-7.9,0.4-7.9s-3.8-0.3-5.8-5.1
		c-2-4.8,0.3-7.8,1.3-8.2l0.1,0c0,0,23.7-9.7,26-10.7c1.4-0.6,4.7,0,6.7,4.8c2,4.8-0.4,7.9-0.4,7.9s3.8,0.3,5.8,5.1
		C222.5,384.1,220.2,387.1,219.2,387.6z"/>
	</g>	
	<g class="kitten-eyes face">		
		<ellipse transform="matrix(0.9974 -7.172883e-02 7.172883e-02 0.9974 -21.8003 15.4986)" cx="204.9" cy="311.3" rx="5.3" ry="5.9"/>
		<ellipse transform="matrix(0.2737 -0.9618 0.9618 0.2737 -173.1807 385.5556)" cx="168.7" cy="307.5" rx="5.9" ry="5.3"/>
	</g>
	<g class="kitten-blink face">
		<path d="M163.9,308.3c-0.6-0.3-0.9-1-0.7-1.7c0.2-0.8,1-1.3,1.8-1.1l8,2.1c0.8,0.2,1.3,1,1.1,1.8c-0.2,0.8-1,1.3-1.8,1.1l-8-2.1
			C164.1,308.4,164,308.4,163.9,308.3z"/>
		<path d="M200,313.6c-0.3-0.2-0.5-0.6-0.6-1c-0.1-0.8,0.5-1.6,1.4-1.6l8.2-0.8c0.8-0.1,1.6,0.5,1.6,1.4c0.1,0.8-0.5,1.6-1.4,1.6
			l-8.2,0.8C200.7,313.9,200.3,313.8,200,313.6z"/>
	</g>		
	<g>
		<g>
			
				<rect x="183.4" y="304.7" transform="matrix(0.1026 -0.9947 0.9947 0.1026 -140.3468 462.9121)" fill="#F9914B" width="6" height="9"/>
		</g>
		
			<ellipse transform="matrix(0.1026 -0.9947 0.9947 0.1026 -124.7689 482.2753)" opacity="0.4" fill="#FFFFFF" cx="204.9" cy="310.3" rx="11.6" ry="14"/>
		<path fill="#F9914B" d="M153,307.9c1.4,0,2.7-1,2.9-2.4c0.3-1.6-0.7-3.2-2.4-3.5c-15.8-3.1-25-9.4-25.2-9.5
			c-0.4-0.3-0.8-0.4-1.2-0.5c-0.4,2.1-0.8,4.2-1.1,6.2c3.1,1.9,12.3,7,26.2,9.7C152.6,307.9,152.8,307.9,153,307.9z"/>
		
			<ellipse transform="matrix(0.1026 -0.9947 0.9947 0.1026 -154.3266 441.8453)" opacity="0.4" fill="#FFFFFF" cx="167.7" cy="306.5" rx="11.6" ry="14"/>
		<path fill="#F9914B" d="M231.6,303c-4.2,4.2-12.3,4.7-12.4,4.7c-1.7,0.1-2.9,1.5-2.8,3.1c0.1,1.6,1.4,2.8,3,2.8c0.1,0,0.1,0,0.2,0
			c0.3,0,6.3-0.4,11.8-3.2C231.4,308.2,231.5,305.7,231.6,303z"/>
		<g>
			<path fill="#5994C9" d="M168.2,320.9c-0.7,0-1.3,0-2-0.1c-4.4-0.4-8.3-2.3-11.2-5.2c-3-3.1-4.4-6.9-4-10.8
				c0.4-3.9,2.6-7.4,6.1-9.8c3.4-2.3,7.6-3.3,12-2.8c9.2,0.9,16,8.1,15.2,16C183.6,315.5,176.6,320.9,168.2,320.9z M167.2,297.5
				c-2.5,0-5,0.7-6.9,2c-2.2,1.5-3.5,3.5-3.7,5.8c-0.2,2.3,0.6,4.5,2.5,6.4c2,2,4.7,3.3,7.8,3.6c6.2,0.6,11.6-2.8,12.1-7.7l0,0
				c0.5-4.9-4.1-9.4-10.3-10C168.1,297.5,167.6,297.5,167.2,297.5z"/>
		</g>
		<g>
			<path fill="#5994C9" d="M205.4,324.7c-0.7,0-1.3,0-2-0.1c-4.4-0.4-8.3-2.3-11.2-5.2c-3-3.1-4.4-6.9-4-10.8
				c0.4-3.9,2.6-7.4,6.1-9.8c3.4-2.3,7.6-3.3,12-2.8c9.2,0.9,16,8.1,15.2,16v0C220.8,319.3,213.7,324.7,205.4,324.7z M204.3,301.4
				c-2.5,0-5,0.7-6.9,2c-2.2,1.5-3.5,3.5-3.7,5.8c-0.2,2.3,0.6,4.5,2.5,6.4c2,2,4.7,3.3,7.8,3.6c6.2,0.6,11.6-2.8,12.1-7.7
				c0.5-4.9-4.1-9.4-10.3-10C205.3,301.4,204.8,301.4,204.3,301.4z"/>
		</g>
	</g>
	<path class="fill" fill="#FFFFFF" d="M176.2,412.2c-6,0-11.5-3.9-13.4-9.9l-11.7-38.2c-2.3-7.4,1.9-15.2,9.3-17.5c7.4-2.3,15.2,1.9,17.5,9.3
		l11.7,38.2c2.3,7.4-1.9,15.2-9.3,17.5C178.9,412,177.5,412.2,176.2,412.2z"/>
	<path fill="#F9914B" d="M189.2,392.7l-26.9,8.2l-0.1,0c-1.4,0.4-4.7-0.4-6.2-5.4c-1.5-5,1.2-7.8,1.2-7.8s-3.7-0.7-5.3-5.7
		c-1.5-5,1-7.8,2.1-8.1l0.1,0c0,0,24.5-7.5,26.9-8.2c1.4-0.4,4.7,0.4,6.2,5.4c1.5,5-1.2,7.8-1.2,7.8s3.7,0.7,5.3,5.7
		S190.3,392.3,189.2,392.7z"/>		
	<g>
		<path opacity="0.5" fill="#5994C9" d="M213.5,385c3.7,7.7,10,13.9,17.7,17.6c16,7.8,33.1,7.2,47.1-1.5
			c13.6-8.5,21.6-22.9,21.6-38.9c0-6.9-1.6-13.7-4.4-19.8c-6-2.2-6.1-3.6-13-3.6c-7.1,0-7.1,4-14.3,4c-7.1,0-7.1-4-14.3-4
			c-7.1,0-7.1,4-14.3,4c-7.1,0-7.1-4-14.3-4c-6.9,0-6.9,1.4-13,3.7C206.4,355.2,206.5,370.7,213.5,385z"/>
		<path fill="#F9914B" d="M271.3,368.9c0.6,0.7,0.6,1.7,0,2.4c-2.3,2.5-8.4,8.2-15.4,8.1c-9-0.1-16.2-9.7-16.2-9.7s7.4-9.4,16.4-9.3
			C263.1,360.6,269,366.4,271.3,368.9z"/>
		<path fill="#F9914B" d="M235.6,360.7l10,7.7c0.9,0.7,0.9,2.2,0,2.9l-10.2,7.4c-1.2,0.9-2.8,0-2.8-1.5l2.4-7.8l-2.2-7.4
			C232.7,360.7,234.4,359.9,235.6,360.7z"/>
		<circle fill="#FFFFFF" cx="258.9" cy="369.7" r="4.5"/>
		<circle fill="#555555" cx="258.9" cy="369.7" r="1.9"/>
		<path fill="#FFFFFF" d="M303.9,362.1c0-14-5.9-27.3-16.3-36.7l-0.6-0.4h-66.2l-0.6,0.4c-17,15.5-20.9,39.5-10.3,61.3
			c3.7,7.6,10,13.8,17,18v3.3c0,3.3,3.1,6,7.1,6h39.8c4,0,7.1-2.7,7.1-6v-4l-0.1,0.1C295.3,394.8,303.9,379.2,303.9,362.1z
			 M278.3,401.1c-14,8.7-31.1,9.2-47.1,1.4c-7.7-3.7-13.9-9.9-17.7-17.5c-9.7-19.9-6.2-42,8.9-56h63.1c9.2,8,14.4,20.6,14.4,33.2
			C299.9,378.2,291.8,392.6,278.3,401.1z"/>
		<circle opacity="0.3" fill="#FFFFFF" cx="267.2" cy="355.1" r="2.8"/>
		<circle opacity="0.3" fill="#FFFFFF" cx="275.9" cy="350.9" r="3.6"/>
		<circle opacity="0.3" fill="#FFFFFF" cx="273.6" cy="360.9" r="1.9"/>
	</g>
</g>
</svg>
