<?xml version="1.0" encoding="utf-8"?>
<!-- Generator: Adobe Illustrator 19.2.1, SVG Export Plug-In . SVG Version: 6.00 Build 0)  -->
<svg class="unicorn" version="1.1" xmlns="http://www.w3.org/2000/svg" xmlns:xlink="http://www.w3.org/1999/xlink" x="0px" y="0px"
	 viewBox="0 0 740 480" enable-background="new 0 0 740 480" xml:space="preserve">
<g class="unicorn-kitty">
<g id="Layer_1">
	<path class="fill" fill="#F1F1F1" d="M577.8,230.9c-7.5,0.6-14.5-0.7-15.5-1.4v20.2c0,7.7-6.3,14-14,14s-14-6.3-14-14v-42.8
		c0-7.6,5.9-13.8,13.4-14c4.7-15.1,22.7-28.2,45.9-31.7c24.2-3.7,45.6,0.4,54.7,19.3c0.4-0.2,0.8-0.3,1.3-0.5c1.5-0.6,3-1.2,4.7-1.8
		c0.8-0.3,1.6-0.7,2.4-1c0.8-0.3,1.7-0.7,2.5-1c0.8-0.4,1.6-0.7,2.5-1.1c0.8-0.4,1.6-0.8,2.4-1.1c0.8-0.4,1.6-0.8,2.4-1.2
		c0.8-0.4,1.6-0.8,2.3-1.2c1.5-0.9,3-1.6,4.3-2.4c0.7-0.4,1.4-0.8,2-1.1c0.6-0.4,1.3-0.8,1.9-1.1c1.2-0.7,2.3-1.4,3.4-2
		c0.5-0.3,1-0.6,1.5-0.9c0.5-0.3,0.9-0.6,1.3-0.8c0.8-0.5,1.6-0.9,2.1-1.3c0.6-0.4,1-0.7,1.4-0.9c0.3-0.2,0.5-0.3,0.5-0.3l2.2-1
		c4.9-2.3,10.6-0.1,12.9,4.7c1.2,2.5,1.2,5.4,0.2,7.8c0,0-0.1,0.3-0.4,0.8c-0.3,0.5-0.7,1.3-1.2,2.3c-0.1,0.2-0.3,0.5-0.4,0.8
		c-0.2,0.3-0.3,0.5-0.5,0.8c-0.4,0.6-0.8,1.1-1.2,1.8c-0.9,1.3-2,2.5-3.3,3.9c-0.6,0.7-1.3,1.3-2.1,2c-0.7,0.7-1.5,1.4-2.3,2
		c-1.6,1.3-3.3,2.6-5.2,3.7c-1.9,1.2-3.8,2.2-5.9,3.3c-2,1-4.1,2-6.2,2.8c-2.1,0.9-4.2,1.6-6.3,2.3c-2.1,0.6-4.1,1.3-6.1,1.7
		c-2,0.5-3.9,0.9-5.7,1.2c-0.9,0.2-2.3,0.3-2.3,0.4v37.7c0,7.7-6.3,14-14,14s-14-6.3-14-14v-12.1l-4,0.6v11.5c0,7.7-6.4,14-14.1,14
		c-6.9,0-11.9-5-13.9-11.7v-16C593.3,226,585.3,230.2,577.8,230.9z"/>
	<g class="flap-down">
		<path fill="#EBEFFF" d="M602.4,170.1c0,0-1.5,29,20,42.5s41.5,8,41.5,8s5.7-10.8-5.1-14.1c0,0,6.3-10.9-5.2-14.3
			c0,0,6.8-10.1-7.6-14.6c-13.6-4.3-41.3-19.5-41.3-19.5L602.4,170.1z"/>
		<path fill="#EBEFFF" d="M540.9,170.1c0,0,1.5,29-20,42.5c-21.5,13.5-41.5,8-41.5,8s-5.7-10.8,5.1-14.1c0,0-6.3-10.9,5.2-14.3
			c0,0-6.8-10.1,7.6-14.6c13.6-4.3,21.1-12.5,21.1-12.5L540.9,170.1z"/>
	</g>
	<g class="flap-up">
		<path fill="#EBEFFF" d="M602.4,173.7c0,0-1.5-29,20-42.5s41.5-8,41.5-8s5.7,10.8-5.1,14.1c0,0,6.3,10.9-5.2,14.3
			c0,0,6.8,10.1-7.6,14.6c-13.6,4.3-41.3,19.5-41.3,19.5L602.4,173.7z"/>
		<path fill="#EBEFFF" d="M540.9,173.7c0,0,1.5-29-20-42.5c-21.5-13.5-41.5-8-41.5-8s-5.7,10.8,5.1,14.1c0,0-6.3,10.9,5.2,14.3
			c0,0-6.8,10.1,7.6,14.6c13.6,4.3,21.1,12.5,21.1,12.5L540.9,173.7z"/>
	</g>
	<path class="fill" fill="#F1F1F1" d="M556.5,208.9c18.9,0,32.8-4,42.8-12.7l4.3,3.5c0.5,0.4,1.2,0.7,1.8,0.7c0.8,0,1.6-0.4,2.2-1
		c1-1.2,0.8-3-0.4-4l-3.9-3.3c1.1-1.3,2-2.7,2.8-4.3l6,2.1c0.3,0.1,0.6,0.2,0.9,0.2c1.2,0,2.3-0.7,2.7-1.9c0.5-1.5-0.3-3.1-1.8-3.6
		l-5.7-2c0.4-1.4,0.7-2.8,0.9-4.3l7.8-0.5c1.6-0.1,2.8-1.5,2.7-3c-0.1-1.6-1.4-2.8-3-2.7l-7.1,0.4l0,0c-0.5-15.7-3.8-40.3-8.2-51.1
		c-1.3-4.1-6.5-6.5-10-3.7v0c-6.7,3.9-15,10.2-21.6,16.2c-5.1-1.5-7.7-2.3-13.3-2.3c-5.6,0-8.2,0.8-13.3,2.3
		c-6.6-6.1-14.8-12.3-21.6-16.2l0,0c-3.5-2.8-8.7-0.4-10,3.7c-4.5,10.8-7.8,35.4-8.2,51.1l0,0l-7.1-0.4c-1.6-0.1-2.9,1.1-3,2.7
		c-0.1,1.6,1.1,2.9,2.7,3l7.8,0.5c0.2,1.5,0.5,2.9,0.9,4.3l-5.7,2c-1.5,0.5-2.3,2.1-1.8,3.6c0.4,1.2,1.5,1.9,2.7,1.9
		c0.3,0,0.6,0,0.9-0.2l6-2.1c0.8,1.5,1.7,2.9,2.8,4.3l-3.9,3.3c-1.2,1-1.4,2.8-0.4,4c0.6,0.7,1.4,1,2.2,1c0.6,0,1.3-0.2,1.8-0.7
		l4.3-3.5C523.8,204.9,537.7,208.9,556.5,208.9z"/>
	<g>
		<path fill="#FFFFFF" d="M545.6,139c-0.3-3.3,0-6.6,1-9.8l1.8-5.7L548,121c-0.5-3.6-0.1-7.3,1-10.8l1.5-4.7l0,0
			c-0.8-4.4-0.4-8.8,1.1-13l0.6-1.7l0.3-2.4c0.2-1.9,1.1-8.6,3.8-8.6s3.6,6,4.1,8.7s0.9,8.4,0.9,8.4l1.2,3.4
			c1.2,3.4,1.6,7.1,1.3,10.7l-0.4,3.6l1.7,5.2c1,3,1.4,6.2,1.1,9.3l-0.4,5.9c0,0,2.1,2.7,2,6.7c0,4-2.6,8.5-11.6,8.5
			C544.6,150.2,545.6,139,545.6,139z"/>
		<path fill="#EBEFFF" d="M565.8,135l0.1-1.2l-0.9,0.2c-4.9,1-9.2-0.6-12.7-4.7c-2.7-3.2-3.9-6.7-3.9-6.7l-0.2-0.5l0.2,1.4l-0.7,2.4
			c2,3.8,6.5,10.4,14.6,10.4c1,0,2-0.1,3.1-0.3l0.7-0.1L565.8,135z"/>
		<path fill="#EBEFFF" d="M563.1,115.5l0.5-0.1l-0.3-0.8l0.1-1.2l-0.8,0.2c-8.6,1.7-12-8-12.1-8.4l-0.3-0.8c0.1,0.4,0.1,0.7,0.2,1.1
			l-0.8,2.5c1.6,2.9,5,7.7,11,7.7C561.4,115.7,562.2,115.7,563.1,115.5z"/>
		<path fill="#EBEFFF" d="M561.6,97.8l-0.3-1c0,0,0-0.4-0.1-1c-6.1,0.4-8.5-6.5-8.6-6.8l-0.1-0.3l-0.2,2l-0.5,1.3
			c1.6,2.8,4.5,5.8,8.9,5.8C560.9,97.9,561.3,97.8,561.6,97.8z"/>
	</g>
	<line fill="#5994C9" x1="578.4" y1="256.8" x2="586.5" y2="256.6"/>
	<line fill="#5994C9" x1="561.2" y1="257.3" x2="569.2" y2="257.1"/>
	<line fill="#5994C9" x1="543.9" y1="257.8" x2="552" y2="257.6"/>
	<ellipse class="fill" fill="#F1F1F1" cx="561.6" cy="192.2" rx="7.2" ry="5.8"/>
	<ellipse class="fill" fill="#F1F1F1" cx="551.5" cy="192.2" rx="7.2" ry="5.8"/>
	<path class="face" d="M556.6,184h-2.6c-1.3,0-2.1,1.3-1.3,2.2l1.1,1.2l1.6,1.8c0.7,0.7,2,0.7,2.6,0l1.6-1.9l1-1.2c0.8-0.9,0-2.2-1.3-2.2H556.6z"
		/>
	<g class="arm">
		<g>
			
				<ellipse transform="matrix(0.286 -0.9582 0.9582 0.286 120.3343 688.9644)" opacity="0.2" fill="#FFEAAE" cx="522.5" cy="263.7" rx="59" ry="59"/>
			<polygon fill="#75c69f" points="537.6,264.1 534.8,264.7 532.9,254.9 544.4,252.6 			"/>
			<polygon fill="#f9914b" points="569.3,247.6 578.3,245.8 571.5,257.4 562.4,259.2 			"/>
			<polygon fill="#987fef" points="545.5,262.5 554.5,260.8 561.4,249.2 552.3,251 			"/>
			<polygon fill="#5994c9" points="545.5,262.5 552.3,251 544.4,252.6 537.6,264.1 			"/>
			<polygon fill="#f79ac0" points="561.4,249.2 554.5,260.8 562.4,259.2 569.3,247.6 			"/>
			<path fill="#75c69f" d="M594.6,242.6L594.6,242.6l-6.9,11.6l8.7-1.7c0,0,2.6-2.4,2-5.4S594.6,242.6,594.6,242.6z"/>
			<path fill="#FFEAAE" d="M510.4,257.1l-0.7-12.3c-0.1-2.1,2.2-3.4,3.9-2.2l10.1,6.9l11.4-4.4c1.9-0.7,3.9,1,3.3,3l-3.4,11.8
				l7.8,9.5c1.3,1.6,0.2,4-1.9,4.1l-12.3,0.4l-6.6,10.3c-1.1,1.7-3.7,1.4-4.4-0.5l-4.2-11.6l-11.9-3.1c-2-0.5-2.5-3.1-0.9-4.4
				L510.4,257.1z"/>
		</g>
		<path fill="#FFFFFF" d="M519.6,265.5l-3.1-0.8c-0.8-0.2-1-1.3-0.4-1.8l2.6-2l-0.2-3.2c0-0.8,0.9-1.4,1.6-0.9l2.7,1.8l3-1.2
		c0.8-0.3,1.6,0.4,1.4,1.2l-0.9,3.1l2.1,2.5c0.5,0.7,0.1,1.6-0.8,1.7l-3.2,0.1l-1.8,2.7c-0.5,0.7-1.5,0.6-1.8-0.2L519.6,265.5z"/>		
		<path class="fill" fill="#F1F1F1" d="M567,219v30.7c0,7.7,6.3,14,14,14s14-6.3,14-14V219H567z"/>
	</g>
</g>
<g class="kitten-eyes face">
	<ellipse transform="matrix(0.1736 -0.9848 0.9848 0.1736 273.4849 671.4612)" cx="536.9" cy="172.8" rx="5.9" ry="5.3"/>
	<ellipse transform="matrix(0.9848 -0.1736 0.1736 0.9848 -21.2465 102.6865)" cx="576.2" cy="172.8" rx="5.3" ry="5.9"/>
</g>
<g class="kitten-blink face">
	<path d="M540.9,176.1c-0.1,0-0.2,0-0.3,0l-8.6-1.7c-0.8-0.2-1.3-1-1.2-1.8c0.2-0.8,1-1.3,1.8-1.2l8.6,1.7c0.8,0.2,1.3,1,1.2,1.8
		C542.2,175.6,541.6,176.1,540.9,176.1z"/>
	<path d="M572.3,176.1c-0.7,0-1.3-0.5-1.5-1.2c-0.2-0.8,0.4-1.6,1.2-1.8l8.6-1.7c0.8-0.2,1.6,0.4,1.8,1.2c0.2,0.8-0.4,1.6-1.2,1.8
		l-8.6,1.7C572.5,176.1,572.4,176.1,572.3,176.1z"/>	
</g>
</g>
</svg>
