<?xml version="1.0" encoding="utf-8"?>
<!-- Generator: Adobe Illustrator 19.1.0, SVG Export Plug-In . SVG Version: 6.00 Build 0)  -->
<svg version="1.1" id="Layer_1" xmlns="http://www.w3.org/2000/svg" xmlns:xlink="http://www.w3.org/1999/xlink" x="0px" y="0px"
	 viewBox="0 0 100 100" style="enable-background:new 0 0 100 100;" xml:space="preserve">
<style type="text/css">
	.st73{fill:#333333;}
</style>
<g>
	<path class="st73" d="M95,72.8l-10.5-6.2l-10.1-6.2C73.8,60,73,60.5,73,61.3v5.4c-7-1.1-12.3-5.5-16.9-11.5
		c-0.5,0.8-1.1,1.5-1.6,2.3c-1.7,2.6-3.4,5.3-5.4,8C55,72.4,62,77.8,73,78.8v7.2c0,0.8,0.8,1.2,1.4,0.9l10.3-6.2L95,74.5
		C95.7,74.1,95.7,73.2,95,72.8z"/>
	<path class="st73" d="M12.5,19H9.1C7.9,19,7,19.9,7,21.1v7.8C7,30.1,7.9,31,9.1,31h3.4c9.8,0,15.9,5.7,21.7,13.7
		c0-0.1,0.1-0.1,0.1-0.2c2.2-3.3,4.5-6.8,7-10.2C34.6,25.8,25.9,19,12.5,19z"/>
</g>
<path class="st73" d="M95,25.4L84.2,19l-10.7-6.4c-0.7-0.4-1.6,0.1-1.6,0.9v7.8C55.7,23.2,47,36,39.4,47.7
	C31.8,59.4,25.2,69,12.5,69H9.1C7.9,69,7,69.9,7,71.1v7.8C7,80.1,7.9,81,9.1,81h3.4c19.2,0,28.6-14,36.9-26.7
	C56.1,44,62,35.3,72,33.4v5.8c0,0.8,0.9,1.3,1.6,0.9l10.5-6.4L95,27.2C95.7,26.8,95.7,25.8,95,25.4z"/>
</svg>
