<svg id="Layer_1" data-name="Layer 1" xmlns="http://www.w3.org/2000/svg" viewBox="0 0 480 480"><path d="M94.47,317H90.71L60.54,402c0,0.49,1.19.89,2.65,0.89s2.49-.43,2.65-0.89l26.73-75.47L119.11,402h0c0,0.49,1.19.89,2.65,0.89s2.49-.43,2.65-0.89Z" fill="#e6e6e6"/><path d="M98.28,297.71c-14.51,0-27.24,4.82-34.5,12.08a26.05,26.05,0,0,1,1.91-6.26,97.22,97.22,0,0,1,4.55-8.77c1.71-3.06,3.64-6.15,5.63-9.34a93.81,93.81,0,0,0,5.88-10.35,29.8,29.8,0,0,0,2.17-6.55c0.12-.63.24-1.6,0.3-2.14l0.07-.6,0-.15v-0.48l0-.38c0.07-1,.08-2.06.08-3.11a29.92,29.92,0,0,0-.79-6.7,21.88,21.88,0,0,0-3.08-7.08,20.38,20.38,0,0,0-5.72-5.64,22.19,22.19,0,0,0-6.26-2.83,26.81,26.81,0,0,0-9.39-.93c-0.4,0-.78.09-1.14,0.15a13.09,13.09,0,1,0,7.85,24.19C66,263,66,263.2,66.08,263.4a11.84,11.84,0,0,1,.31,1.57l0,0.21a2.36,2.36,0,1,0,0-.29v0.26l0,0.6a0.67,0.67,0,0,0,0,.13v0a0.13,0.13,0,0,1,0,.1,11.18,11.18,0,0,1-.46,3,31.77,31.77,0,0,1-3.77,8c-1.76,2.8-3.87,5.64-6.1,8.57A114.86,114.86,0,0,0,49.62,295a42.72,42.72,0,0,0-5.33,12,28.36,28.36,0,0,0-.83,7.73,24.41,24.41,0,0,0,1.69,8.05,28.06,28.06,0,0,0,3.74,6.57,35,35,0,0,0,4.31,4.7A53.9,53.9,0,0,0,61.1,340c2.36,1.45,4.36,2.52,6,3.38s5.24,2.38,5.24,2.38h0c5.47,2.61,12.35,4.14,20.49,4.14,22.59,0,33.6-25.89,51.75-31.51S120.88,297.71,98.28,297.71Z" fill="#F79AC0"/><path d="M46.2,254.15c-1.35,1-10.6,11-1.18,17.69L54.49,264Z" fill="#fcb47e"/><circle cx="59.06" cy="251.68" r="6.17" fill="#fff"/><circle cx="59.06" cy="251.68" r="2.92" fill="#4d4d4d"/></svg>
