<svg version="1.1" id="Layer_1" xmlns="http://www.w3.org/2000/svg" xmlns:xlink="http://www.w3.org/1999/xlink" x="0px" y="0px"
	 viewBox="0 0 480 480" style="enable-background:new 0 0 480 480;" xml:space="preserve">
<style type="text/css">
	.st0{fill:#EAB049;}
	.st1{fill:#C64A4A;}
	.st2{fill:#FFEBCC;}
	.st3{fill:#FC5959;}
</style>
<g>
	<path class="st0" d="M93.4,360.8c-32.8-0.1-65.3,15.9-74.4,44.8c-3.6,11.4,16.7,16.3,20.3,4.9c6.6-21,30.6-31.3,54.1-31.3
		C107,379.2,107,360.8,93.4,360.8z"/>
	<g>
		<path class="st0" d="M122.6,430.7L28.8,417l1.2-8.9l94.9,14.1l-1.1,7.5C123.8,430.4,123.2,430.8,122.6,430.7z"/>
	</g>
	<path class="st1" d="M43.1,410.9l81.2,12c0.5,0.1,0.8-0.4,0.6-0.8l-22.6-46.7c-1.7-3.5-12.5-2.3-16.7-1.5
		c-26.1,4.9-36.4,13.3-46.8,30.4c0,0,0,0,0,0.1C35.8,410,39.6,410.4,43.1,410.9z"/>
	<path class="st2" d="M124.9,422L105,381c0,0,0,0-0.1,0c-0.9-1.5-2.9-0.6-5.3-0.3c-6.4,0.7-12.6-0.9-18.9,0.4
		c-5.8,1.2-9.8,4.6-13.9,8.8c-7.3,7.4-22.3,10.7-18.5,24.2c1.9,6.6,11,5,12-0.5l13.3,2c0.7,2.3,2.5,4.2,5.6,4.2c2.4,0,4-1.1,5-2.7
		l40,5.9C124.7,422.9,125.1,422.5,124.9,422z"/>
	<path class="st3" d="M102.7,393.9c2.9,0,5.6-0.8,7.6-2.1l-7.4-15.3c-0.1,0-0.1,0-0.2,0c-6.4,0-11.6,3.9-11.6,8.7
		S96.3,393.9,102.7,393.9z"/>
	<ellipse class="st3" cx="66.6" cy="398.4" rx="11.6" ry="8.7"/>
	<path class="st3" d="M99.7,406.4c-6.4,0-11.6,3.9-11.6,8.7c0,0.9,0.2,1.7,0.5,2.6l20,2.9c1.6-1.5,2.6-3.4,2.6-5.5
		C111.3,410.3,106.1,406.4,99.7,406.4z"/>
</g>
</svg>
