<?xml version="1.0" encoding="utf-8"?>
<!-- Generator: Adobe Illustrator 19.2.1, SVG Export Plug-In . SVG Version: 6.00 Build 0)  -->
<svg version="1.1" xmlns="http://www.w3.org/2000/svg" xmlns:xlink="http://www.w3.org/1999/xlink" x="0px" y="0px"
	 viewBox="0 0 480 480" enable-background="new 0 0 480 480" xml:space="preserve">
<g id="Layer_1">
	<path opacity="0.5" fill="#5994C9" d="M83.5,385c3.7,7.7,10,13.9,17.7,17.6c16,7.8,33.1,7.2,47.1-1.5c13.6-8.5,21.6-22.9,21.6-38.9
		c0-6.9-1.6-13.7-4.4-19.8c-6-2.2-6.1-3.6-13-3.6c-7.1,0-7.1,4-14.3,4c-7.1,0-7.1-4-14.3-4c-7.1,0-7.1,4-14.3,4c-7.1,0-7.1-4-14.3-4
		c-6.9,0-6.9,1.4-13,3.7C76.4,355.2,76.5,370.7,83.5,385z"/>
	<path fill="#F9914B" d="M141.3,368.9c0.6,0.7,0.6,1.7,0,2.4c-2.3,2.5-8.4,8.2-15.4,8.1c-9-0.1-16.2-9.7-16.2-9.7s7.4-9.4,16.4-9.3
		C133.1,360.6,139,366.4,141.3,368.9z"/>
	<path fill="#F9914B" d="M105.6,360.7l10,7.7c0.9,0.7,0.9,2.2,0,2.9l-10.2,7.4c-1.2,0.9-2.8,0-2.8-1.5l2.4-7.8l-2.2-7.4
		C102.7,360.7,104.4,359.9,105.6,360.7z"/>
	<circle fill="#FFFFFF" cx="128.9" cy="369.7" r="4.5"/>
	<circle fill="#555555" cx="128.9" cy="369.7" r="1.9"/>
	<path fill="#FFFFFF" d="M173.9,362.1c0-14-5.9-27.3-16.3-36.7l-0.6-0.4H90.9l-0.6,0.4c-17,15.5-20.9,39.5-10.3,61.3
		c3.7,7.6,10,13.8,17,18v3.3c0,3.3,3.1,6,7.1,6h39.8c4,0,7.1-2.7,7.1-6v-4l-0.1,0.1C165.3,394.8,173.9,379.2,173.9,362.1z
		 M148.3,401.1c-14,8.7-31.1,9.2-47.1,1.4c-7.7-3.7-13.9-9.9-17.7-17.5c-9.7-19.9-6.2-42,8.9-56h63.1c9.2,8,14.4,20.6,14.4,33.2
		C169.9,378.2,161.8,392.6,148.3,401.1z"/>
	<circle opacity="0.3" fill="#FFFFFF" cx="137.2" cy="355.1" r="2.8"/>
	<circle opacity="0.3" fill="#FFFFFF" cx="145.9" cy="350.9" r="3.6"/>
	<circle opacity="0.3" fill="#FFFFFF" cx="143.6" cy="360.9" r="1.9"/>
</g>
<g id="eyes">
</g>
<g id="blink">
</g>
</svg>
