<svg id="blink" xmlns="http://www.w3.org/2000/svg" viewBox="0 0 480 480"><path d="M43,347.49c-17.64,0-25.08,16.41-15.82,41a1.42,1.42,0,0,0,2.67,0c2-5.63,8.3-13.12,16.14-13.12" fill="#fc5959"/><path d="M92.28,347.49c17.64,0,25.08,16.41,15.82,41a1.42,1.42,0,0,1-2.67,0c-2-5.63-8.3-13.12-16.14-13.12" fill="#fc5959"/><path d="M86.33,386.4c22.75-58.71-14.8-88.43-18.67-89.74C63.8,298,26.25,327.7,49,386.4h0a59.23,59.23,0,0,0,37.33,0h0Z" fill="#fff"/><path d="M86.06,317.49c-7-13.29-16.55-20.22-18.4-20.82-1.85.61-11.42,7.53-18.4,20.82A61,61,0,0,0,86.06,317.49Z" fill="#fc5959"/><circle cx="67.67" cy="336.94" r="9.83" fill="#a5c6ef"/><path d="M63.66,336.94a2.13,2.13,0,0,1-1.88-3.12,6.67,6.67,0,0,1,11.78,0,2.13,2.13,0,0,1-1.88,3.12h-8Z" fill="#fff" opacity="0.4"/><path d="M45.32,375.37c1,3.56,2.21,7.24,3.68,11h0a59.23,59.23,0,0,0,37.33,0h0c1.47-3.8,2.69-7.48,3.68-11a79.7,79.7,0,0,1-22.52,3C54.17,378.37,45.32,375.37,45.32,375.37Z" fill="#f2f2f2"/><path d="M72,359l-3,36a1.51,1.51,0,0,1-3,0l-3-36a4.52,4.52,0,0,1,9-.75A4.87,4.87,0,0,1,72,359Z" fill="#fc5959"/></svg>