<svg version="1.1" id="Layer_1" xmlns="http://www.w3.org/2000/svg" xmlns:xlink="http://www.w3.org/1999/xlink" x="0px" y="0px"
	 viewBox="0 0 480 480" style="enable-background:new 0 0 480 480;" xml:space="preserve">
<style type="text/css">
	.st1{fill:#EAB049;}
	.st28{fill:#FCB47E;}	
	.st84{fill:#AD6636;}
	.st85{fill:#E2935D;}
	.st87{fill:#E57B4C;}
	.st88{fill:#FFD180;}
</style>
<path class="st1" d="M47.3,328.7c-2,27.9,19.6,35,19.2,34.7c-2-4.1-19.2-34.7,0-66.1c6.5,26.3,36.7,43.3,36.7,72.1
	c0,18.4-16.6,33.6-36.7,33.6s-36.7-15.2-36.7-33.6C29.8,357,35.3,337.3,47.3,328.7"/>
<path class="st84" d="M24.2,353.2C24.2,353.2,24.2,353.2,24.2,353.2C24.2,353.2,24.2,353.2,24.2,353.2c-0.4-0.2-0.8-0.4-1.3-0.5
	c-0.1,0-0.2-0.1-0.2-0.1c-0.4-0.1-0.8-0.2-1.2-0.3c-0.1,0-0.2,0-0.2,0c-0.4-0.1-0.9-0.1-1.3-0.2c0,0-0.1,0-0.1,0c-0.4,0-0.8,0-1.3,0
	c-0.1,0-0.1,0-0.2,0c-0.4,0-0.8,0.1-1.3,0.1c-0.1,0-0.2,0-0.3,0c-0.4,0.1-0.9,0.1-1.3,0.2c0,0-0.1,0-0.1,0c-0.4,0.1-0.8,0.2-1.2,0.4
	c-0.1,0-0.1,0-0.2,0.1c-0.4,0.1-0.8,0.3-1.2,0.5c-0.1,0-0.2,0.1-0.2,0.1c-0.4,0.2-0.8,0.4-1.2,0.6c-0.1,0-0.1,0.1-0.2,0.1
	c-0.2,0.1-0.4,0.2-0.5,0.3l0,0c-2.3,1.5-4.4,3.5-5.9,6.1l0,0c0,0,0,0.1-0.1,0.1c-0.1,0.2-0.3,0.4-0.4,0.7c-0.2,0.4-0.5,0.8-0.7,1.3
	c-4,8.6-1.4,18.4,5.9,21.8l99.2,46.2l14.6-31.3L24.2,353.2z"/>
<g>
	<polygon class="st85" points="14.8,421.2 15.6,415 6.3,425.2 	"/>
	<path class="st84" d="M129.3,362.7c-0.2-0.4-0.4-0.8-0.6-1.2c-0.1-0.2-0.3-0.5-0.4-0.7c0,0,0-0.1-0.1-0.1l0,0
		c-1.6-2.6-3.6-4.6-5.9-6.1l0,0l0,0c-0.1-0.1-0.2-0.1-0.3-0.2c-0.3-0.2-0.6-0.4-1-0.5c-0.2-0.1-0.4-0.2-0.5-0.3
		c-0.4-0.2-0.8-0.3-1.1-0.5c-0.1-0.1-0.3-0.1-0.4-0.2c-0.5-0.2-1.1-0.3-1.6-0.5c-0.1,0-0.2,0-0.4-0.1c-0.4-0.1-0.8-0.2-1.3-0.2
		c-0.2,0-0.4,0-0.6,0c-0.4,0-0.7,0-1.1,0c-0.2,0-0.4,0-0.6,0c-0.3,0-0.7,0-1,0.1c-0.2,0-0.4,0-0.6,0.1c-0.4,0.1-0.7,0.1-1.1,0.2
		c-0.2,0-0.3,0.1-0.5,0.1c-0.5,0.2-1,0.4-1.5,0.6c0,0,0,0,0,0l0,0L9.6,399.5l14.6,31.3l99.2-46.2
		C130.7,381.1,133.3,371.4,129.3,362.7z"/>
	<path class="st28" d="M15.6,415.1l-8.5,9.5c-0.9-1.1-1.7-2.4-2.4-3.8c-3.8-8.1-1.4-17.2,5.4-20.3c6.7-3.1,15.2,0.9,19,8.9
		s1.4,17.2-5.4,20.3c-3.3,1.6-7.1,1.3-10.5-0.2L15.6,415.1z"/>
	<path class="st84" d="M30.2,409c-4-8.7-13.2-12.9-20.5-9.5c-7.3,3.4-10,13.1-6,21.8c0.7,1.5,1.6,2.9,2.5,4.1l3.1-2.7
		c-0.8-1-1.4-2-1.9-3.1c-3.1-6.6-1.3-14,4-16.4c5.3-2.5,12.1,0.9,15.1,7.5c3.1,6.6,1.3,14-4,16.4c-2.5,1.2-5.5,1-8.2-0.3l-0.5-0.3
		l-0.3,1.8c0,0,0,0,0,0l-0.5,2.3c3.6,1.6,7.7,1.8,11.2,0.2C31.5,427.4,34.2,417.6,30.2,409z"/>
</g>
<path class="st28" d="M109.3,429.7c-6.7-3.1-9.1-12.2-5.4-20.3c3.8-8.1,12.3-12.1,19-8.9s9.1,12.2,5.4,20.3
	C124.5,428.8,116,432.9,109.3,429.7z"/>
<path class="st84" d="M123.4,399.5c-7.3-3.4-16.5,0.8-20.5,9.5c-4,8.6-1.4,18.4,5.9,21.8c7.3,3.4,16.5-0.8,20.5-9.5
	C133.3,412.6,130.7,402.9,123.4,399.5z M125.5,419.5c-2.2,4.6-6.3,7.9-10.6,8.2c-1.6,0.1-3-0.1-4.4-0.7c-5.2-2.4-7-9.7-3.9-16.3
	c2.2-4.6,6.3-7.9,10.6-8.2c1.6-0.1,3,0.1,4.4,0.7c2.4,1.1,4.2,3.4,5,6.3C127.4,412.7,127.1,416.3,125.5,419.5z"/>
<polygon class="st85" points="115.9,414.6 114.4,403.1 98.3,396.5 "/>

<g class="toy-fire">
	<path class="st87" d="M47.3,328.7c-2,27.9,19.6,35,19.2,34.7c-2-4.1-19.2-34.7,0-66.1c6.5,26.3,36.7,43.3,36.7,72.1
	c0,18.4-16.6,33.6-36.7,33.6s-36.7-15.2-36.7-33.6C29.8,357,35.3,337.3,47.3,328.7"/>	
	<path class="st88" d="M52.8,352.3c-5.3,6.5-8,13.2-8,20c0,7.6,9.7,16.8,21.7,16.8c6.4,0,12.9-2.7,17.3-7.2c2.9-3,4.5-6.4,4.5-9.5
		c-0.2-11.1-8.4-18.3-18-26.5c-4.3-3.8-8.8-7.7-12.6-12.1c0.9,12.9,5.5,23.2,7.8,27.7c0.4,0.7-0.4,1.5-1.2,1.2
		C61.5,361.2,56.6,358,52.8,352.3z"/>
	<polygon class="st88" points="50.7,348.6 50.7,348.6 50.7,348.6 	"/>
</g>
</svg>
