<?xml version="1.0" encoding="utf-8"?>
<!-- Generator: Adobe Illustrator 19.2.1, SVG Export Plug-In . SVG Version: 6.00 Build 0)  -->
<svg version="1.1" xmlns="http://www.w3.org/2000/svg" xmlns:xlink="http://www.w3.org/1999/xlink" x="0px" y="0px"
	 viewBox="0 0 480 480" enable-background="new 0 0 480 480" xml:space="preserve">
<g id="Layer_1">
	<g>
		<path fill="#FCDAC9" d="M97.8,343.6L61,365.5l-16.7-66.4c-0.5-1.8,1.7-3.1,3.1-1.8L97.8,343.6z"/>
	</g>
	<g>
		<path fill="#F9C9B4" d="M44.3,299.2l0.1,0.4l-0.1-1.4C44.2,298.5,44.2,298.8,44.3,299.2z"/>
		<path fill="#F9C9B4" d="M85.4,343.3l9.1-0.6l0.2,2.8l3-1.8l-4.8-4.4l-7.8,0.5l-0.6-8.2l-4.4-4.1l-8.5,0.6l-0.8-8.9l-3.9-3.4v0
			l-8.9,0.6l-0.5-9.1l0.5,0l-4.2-3.9l0.1,0.7l-8.2,0.6l0.9,3.4l7.6-0.5l0.6,9.1l-6,0.4l0.9,3.4L55,320l0.6,9.1l-3.7,0.3l0.9,3.4
			l3.1-0.2l0.6,9.1l-1.5,0.1l0.9,3.4l0.8-0.1l0.3,4.7l3.9,15.6l0.6-0.4l-0.5-7.5l9.1-0.6l0.2,2.9l3.4-2l-0.1-1.1l2.3-0.2l10-5.9
			L85.4,343.3z M58.5,319.8l9.1-0.6l0.6,9.1l-9.1,0.6L58.5,319.8z M59.3,332.4l9.1-0.6l0.6,9.1l-9.1,0.6L59.3,332.4z M60.8,354.1
			l-0.6-9.1l9.1-0.6l0.6,9.1L60.8,354.1z M72,331.5l9.1-0.6l0.6,9.1l-9.1,0.6L72,331.5z M73.5,353.3l-0.6-9.1l9.1-0.6l0.6,9.1
			L73.5,353.3z"/>
	</g>
	<path fill="#FFFFFF" d="M111.2,388.3c-3.4,0-4.5,1.8-4.5,2.8c0,1,2,1.8,4.5,1.8s4.5-0.8,4.5-1.8
		C115.7,390.1,114.7,388.3,111.2,388.3z"/>
	<path fill="#FFFFFF" d="M127.5,382.9c0-1.6-1.7-4.5-7.3-4.5l0,0c-1.1-2.9-3.9-5-8.3-6.6c1.2-6,0.3-12.5-3.1-18.1
		c-1.8-3-4.2-5.6-6.9-7.6c0-4-4.8-7.5-8.1-4c-0.1,0.1-0.2,0.2-0.2,0.3c-4.9,6-12,2.8-18,6.5c-5.6,3.4-4.7,11.6-12.7,10.8
		c-0.4,0-0.7,0-1.1,0c-4.6,0.5-4.9,7.3-0.9,9.4c0.2,2,0.6,4,1.2,5.9c-1.9,1.3-2.9,2.7-2.9,4c0,5,13.6,8,30.3,8
		c5.7,0,11.3-0.5,16.1-1.3c8.1-0.9,9.1,0,14.4,0c0.2,0,0.4,0,0.6,0C124.5,385.6,127.5,384.4,127.5,382.9z"/>
</g>
<g id="eyes">
</g>
<g id="blink">
</g>
</svg>
