<svg version="1.1" id="Layer_1" xmlns="http://www.w3.org/2000/svg" xmlns:xlink="http://www.w3.org/1999/xlink" x="0px" y="0px"
	 viewBox="0 0 480 480" style="enable-background:new 0 0 480 480;" xml:space="preserve">
<style type="text/css">
	.st0{fill:#FC5959;}
	.st32{fill:#987FEF;}
	.st34{fill:none;stroke:#353535;stroke-width:2;stroke-linecap:round;stroke-miterlimit:10;}
</style>
<path class="st0" d="M95.6,413.4c11.2-0.1,22.5-0.3,33.7-0.4c3.8,0,3.8,5.9,0,5.9c-11.2,0.1-22.5,0.3-33.7,0.4
	C91.8,419.3,91.8,413.4,95.6,413.4z"/>
<path class="st0" d="M162.9,397.4c1.9-1.7,4.1-2.9,6.7-3.1c2.6-0.2,5.2,1,6.6,3.1c2.3,3.5,1.1,9.7-3.7,10.4c-2.1,0.3-4.5-0.5-5-2.9
	c-0.1-0.3-0.1-0.7-0.1-1c-1.5,0.6-3.3,0.5-4.5-0.8C161.5,401.6,161.2,398.9,162.9,397.4z"/>
<path class="st32" d="M179.3,415.3c0,0-6.2-19.3-22-19.3s-28.6,10.5-28.6,19c0,8.5,12.8,11.9,28.6,11.9S179.3,415.3,179.3,415.3z"/>
<path class="st0" d="M149.8,397.5c1.5-2.2,4-3.3,6.6-3.1c2.6,0.2,4.8,1.4,6.7,3.1l0,0c1.6,1.5,0.5,4.1-1.6,4.1l-0.4,0
	c-3.4,0-5.5,2.1-6.3,4.6c-0.4,1.4-2.2,2-3.4,1.1C149.3,405.4,147.2,401.4,149.8,397.5z"/>
<g>
	<line class="st34" x1="169.7" y1="406.3" x2="165.7" y2="412.1"/>
	<line class="st34" x1="170.6" y1="411.2" x2="164.9" y2="407.2"/>
</g>
<path class="st0" d="M178.6,411.8c3,0,3,5,0,5C174.6,416.8,174.6,411.8,178.6,411.8z"/>
</svg>
