<svg version="1.1" id="Layer_1" xmlns="http://www.w3.org/2000/svg" xmlns:xlink="http://www.w3.org/1999/xlink" x="0px" y="0px"
	 viewBox="0 0 480 480" style="enable-background:new 0 0 480 480;" xml:space="preserve">
<style type="text/css">
	.st19{fill:#FFFFFF;}
	.st45{fill:none;stroke:#E5E5E5;stroke-width:3;stroke-linecap:round;stroke-miterlimit:10;}
</style>
<g>
	<path class="st19" d="M168.6,421.5c0,2.4-2.2,4.2-4.5,3.7c-7.5-1.9-17.5-7.6-17.5-14.3c0-6.8,10-12.5,17.5-14.3
		c2.3-0.6,4.5,1.3,4.5,3.7V421.5z"/>
	<g>
		<path class="st19" d="M177.2,425c-1,0-1.8-0.8-1.8-1.8v-24.7c0-1,0.8-1.8,1.8-1.8s1.8,0.8,1.8,1.8v24.7
			C179,424.2,178.2,425,177.2,425z"/>
	</g>
	<g>
		<path class="st19" d="M187.8,425c-1,0-1.8-0.8-1.8-1.8v-24.7c0-1,0.8-1.8,1.8-1.8c1,0,1.8,0.8,1.8,1.8v24.7
			C189.6,424.2,188.8,425,187.8,425z"/>
	</g>
	<g>
		<rect x="166" y="409" class="st19" width="49" height="4"/>
	</g>
	<path class="st19" d="M217.6,397.6l-12.3,13.1l12.2,13.8c1.2,1.4,3.5,0.2,3.2-1.6l-2.4-11.6l2.5-12
		C221.1,397.5,218.9,396.3,217.6,397.6z"/>
	<g>
		<path class="st19" d="M198.4,421.4c-1,0-1.8-0.8-1.8-1.8V402c0-1,0.8-1.8,1.8-1.8s1.8,0.8,1.8,1.8v17.6
			C200.2,420.6,199.4,421.4,198.4,421.4z"/>
	</g>
	<line class="st45" x1="161.5" y1="414.1" x2="154.9" y2="407.6"/>
	<line class="st45" x1="161.5" y1="407.5" x2="155" y2="414.1"/>
</g>
</svg>
