<svg version="1.1" id="Layer_1" xmlns="http://www.w3.org/2000/svg" xmlns:xlink="http://www.w3.org/1999/xlink" x="0px" y="0px"
	 viewBox="0 0 480 480" style="enable-background:new 0 0 480 480;" xml:space="preserve">
<style type="text/css">
	.st0{fill:#75C69F;}
	.st1{fill:#5994C9;}
</style>
<g>
	<path class="st0" d="M198.9,408.3c-7.1,0.9-13-5.3-20.3-3.6c-4.1,1-7.6,3.5-11.9,3.8c-4.5,0.3-8.4-1.2-12-3.9
		c-2.9-2.1-5.6-3.7-9.2-4.1c-4.3-0.5-8.7-0.1-13,0.4c-8.7,1.1-17.1,3.5-25.1,7.2c-3.2,1.5-1.7,6.9,1.5,5.4c8-3.7,16.4-6.2,25.1-7.1
		c4-0.4,8.8-1.1,12.7-0.1c3.9,1.1,6.8,4.6,10.5,6.1c7.3,3,13.5,1,20.5-1.6c7.5-2.9,13.7,4,21.3,3.1
		C202.4,413.5,202.4,407.8,198.9,408.3z"/>
	<path class="st1" d="M199,413.9c0.7-0.1,1.3-0.4,1.7-0.9c-0.3-0.3-0.6-0.6-1.1-0.7c-2.5-0.9-4.4-2.6-6.2-4.5
		c-4.8-1.3-9.3-4.2-14.6-3.1c0.2,0,0.5,0.1,0.7,0.1c5,0.6,7.9,4.5,11.1,7.9C193.4,413.5,196.1,414.3,199,413.9z"/>
	<path class="st1" d="M178.9,410.5c-0.1,0-0.2,0-0.4,0c-4.2,0-8.1,1.7-12.4,1c-4.3-0.7-7.8-3.1-10.8-6.4c-0.2-0.2-0.5-0.3-0.7-0.5
		c-2.9-2.1-5.6-3.7-9.2-4.1c-4.3-0.5-8.7-0.1-13,0.4c-1.3,0.2-2.5,0.4-3.8,0.6c2,0.1,4,0.2,6,0.5c4,0.5,8.8,0.9,12.4,2.9
		c1.9,1.1,3.4,2.7,4.9,4.4c1.7,1.2,3.4,2.5,5.2,3.2c7.3,3,13.5,1,20.5-1.6C178.1,410.7,178.5,410.6,178.9,410.5z"/>
</g>
<path class="st1" d="M97.6,415.1c-12,2-26.3-6.7-27.5-25.5c-1.2-18.8,14.2-29.9,24-28.8c14.1-5.7,34.5,7.9,33.8,23.2
	C130.5,400.5,117.5,417.1,97.6,415.1z"/>
<g>
	<defs>
		<path id="SVGID_11_" d="M97.6,415.1c-12,2-26.3-6.7-27.5-25.5c-1.2-18.8,14.2-29.9,24-28.8c14.1-5.7,34.5,7.9,33.8,23.2
			C130.5,400.5,117.5,417.1,97.6,415.1z"/>
	</defs>
	<clipPath id="SVGID_2_">
		<use xlink:href="#SVGID_11_"  style="overflow:visible;"/>
	</clipPath>
	<g style="clip-path:url(#SVGID_2_);">
		<path class="st0" d="M139,385.8c-4.9-4.7-12.2-4.9-18.6-5.2c-8.8-0.4-17.6,0.4-26.3,1.1c0.1-0.9,0.2-1.8,0.3-2.6
			c0.2,0,0.4,0,0.7,0c12.2-1.4,24.4-2.7,36.3,1.1c3.2,1,4.2-4.1,1.1-5.1c-12.1-3.9-24.7-2.7-37.1-1.2c0.3-1.3,0.6-2.7,0.9-4
			c0,0,0,0,0,0c10.3-0.3,22.8-2.5,32.3,2.2c3,1.5,5.3-3.1,2.3-4.6c-9.9-5-22.3-3.3-33.1-2.8c0.1-0.2,0.1-0.4,0.2-0.6
			c0.1-0.2,0.1-0.5,0.1-0.7c0.2-0.3,0.3-0.6,0.4-0.9c0.1-0.3,0.2-0.6,0.3-0.9c0.4,0.2,0.9,0.4,1.5,0.3c7-0.6,14.1-1,21.1-1.1
			c3.3,0,3-5.2-0.3-5.2c-6.9,0.1-13.7,0.4-20.6,1c-0.1-2.4-3.7-3.8-4.9-1.1c-0.9,1.9-1.6,3.9-2.2,5.9c-0.1,0.2-0.1,0.5-0.1,0.7
			c-0.2,0.2-0.4,0.5-0.5,0.9c-7,21.1-5.6,44.3,3.8,64.4c1.4,3,6.3,1.3,4.9-1.7c-3.2-6.9-5.4-14.1-6.7-21.4
			c5.2,4.8,10.4,9.7,15.5,14.5c2.5,2.3,5.9-1.6,3.4-3.9c-6-5.6-12.1-11.3-18.1-16.9c-0.6-0.5-1.2-0.7-1.8-0.7
			c-0.1-1.5-0.2-2.9-0.3-4.4c9.7,10.4,21.3,18.6,34.4,24.3c3.1,1.3,5.4-3.3,2.3-4.6c-13.5-5.8-25.2-14.4-35-25.4
			c-0.1-0.1-0.2-0.2-0.3-0.3c1.4-0.1,2.9-0.3,4.3-0.4c9.2,7.5,16.4,17.6,27.9,21.8c3.1,1.1,5.5-3.5,2.3-4.6
			c-9.4-3.4-15.8-11-22.9-17.6c1.9-0.1,3.9-0.2,5.8-0.2c5.4,6.1,11.5,11.3,18.4,15.5c2.9,1.8,5.2-2.9,2.3-4.6
			c-5.1-3.1-9.7-6.8-13.8-11c5.7,0,12.3,0.4,16.2,4.1C138,392,141.4,388.1,139,385.8z"/>
		<path class="st0" d="M86.5,356.5c-8.7,22.8-9.3,47.7-1.4,70.8c1.1,3.2,6,1.5,4.9-1.7c-7.4-21.7-7-45.3,1.2-66.7
			C92.3,355.7,87.7,353.4,86.5,356.5z"/>
		<path class="st0" d="M79,356.9c-7.6,19.9-9.2,41.2-4.7,62c0.7,3.3,5.6,1.5,4.9-1.7c-4.2-19.4-2.7-39.5,4.4-58
			C84.8,356.1,80.2,353.7,79,356.9z"/>
	</g>
</g>
</svg>
