<svg id="Layer_1" data-name="Layer 1" xmlns="http://www.w3.org/2000/svg" width="480" height="480" viewBox="0 0 480 480">
  <title>NEW</title>
  <path d="M65.24,312s0,.57.06.88.07.75.14,1.12a14.06,14.06,0,0,0,.53,2.21A12.61,12.61,0,0,0,68,320a14.54,14.54,0,0,0,7,4.72,32.28,32.28,0,0,0,9.72,1.54c1.74,0,3.52,0,5.32-.13l.67,0h2.85a39.31,39.31,0,0,1,4,.34,27.08,27.08,0,0,1,16.18,7.83A23.85,23.85,0,0,1,119,343.1a25.49,25.49,0,0,1,1.25,10.13A30.82,30.82,0,0,1,113,370.51a38.26,38.26,0,0,1-6.47,6.13,45.45,45.45,0,0,1-7.4,4.38l-.4.19a12.43,12.43,0,1,1-10.66-22.46,13.43,13.43,0,0,1,1.86-.71,22.5,22.5,0,0,0,3.37-1.26A15.61,15.61,0,0,0,96,355a9.59,9.59,0,0,0,3.15-4.3,4.43,4.43,0,0,0-.16-3.64,8,8,0,0,0-4.94-3.32,21.16,21.16,0,0,0-2.06-.52l-1.13-.16-.58-.09-.85-.1c-2.26-.24-4.52-.57-6.81-1A46,46,0,0,1,69,337a26.84,26.84,0,0,1-11-11.18,23.65,23.65,0,0,1-2.28-7.53,24.21,24.21,0,0,1-.19-3.83c0-.64.06-1.28.13-1.92s.14-1.19.34-2.14a3.77,3.77,0,0,1,6.66-1.57Z" fill="#c48357"/>
  <path d="M130.45,324.89,119.33,343.6a8,8,0,0,1-13.76-8.18,8.24,8.24,0,0,1,1.52-1.85L123.24,319a4.71,4.71,0,0,1,7.21,5.91Z" fill="#c48357"/>
  <path d="M89.53,311.18c-.2.86-.46,2.08-.61,3.14a31.45,31.45,0,0,0-.32,3.25,17.26,17.26,0,0,0,.58,5.75,4.93,4.93,0,0,0,2,3,7.52,7.52,0,0,0,3.32.82A7.49,7.49,0,1,1,92,341.82l-.48-.13a20.3,20.3,0,0,1-10-5.95,18.24,18.24,0,0,1-4.33-10.46A29,29,0,0,1,78,316a41.9,41.9,0,0,1,1.21-4.15,43,43,0,0,1,1.64-4.08,4.66,4.66,0,0,1,8.77,3Z" fill="#c48357"/>
  <path d="M56.66,371c6.77-7.36,21.6-12.13,38.8-12.13s32,4.77,38.79,12.12" fill="#6a8"/>
  <path d="M52.74,377.52c0,8.3,7.54,15,16.84,15h51.77c9.3,0,16.84-6.73,16.84-15,0-3.34-2.22-9.17-2.22-9.17H55S52.74,374.18,52.74,377.52Z" fill="#999"/>
  <path d="M147.2,305.28a11.12,11.12,0,0,0-7-2.37,10.32,10.32,0,0,0-2.87-1.29,11.05,11.05,0,0,0-7.73-2.72c-.51,0-1,0-1.47.08a11.31,11.31,0,0,0-7.29-2.32c-4.65,0-7.75,2-9.35,4.75h-.28a10.94,10.94,0,0,0-8,2.95c-11.53,2-10.89,18.17,1.95,18.58a11,11,0,0,0,7.78,2.76,11.15,11.15,0,0,0,7.51-2.53l.6,0a11.88,11.88,0,0,0,6.18,1.57,13.62,13.62,0,0,0,3.21-.37,13.66,13.66,0,0,0,3.21.37,11.84,11.84,0,0,0,6.23-1.6,13.71,13.71,0,0,0,3.11.35C155.66,323.43,157,308.55,147.2,305.28Z" fill="#6a8"/>
  <path d="M118.37,293.8c-1.4-3.29-4.79-5.88-10.13-5.75-.29,0-.56,0-.84.06a9.1,9.1,0,0,0-5.66-5.78c-1.73-2.47-4.81-4.21-9.22-4.1a13.32,13.32,0,0,0-2.42.28c-1.79-2.14-4.71-3.6-8.75-3.5a11.08,11.08,0,0,0-7.55,2.82,11.61,11.61,0,0,0-6.73-1.71c-4.92.12-8.07,2.48-9.49,5.49a11.1,11.1,0,0,0-7.08,2.63,11.93,11.93,0,0,0-6-1.31c-7.52.19-10.92,5.59-10.32,10.55a9.47,9.47,0,0,0-6.47,5c-7.18,4.79-4.75,17.24,6.81,16.95a12.87,12.87,0,0,0,4.44-.86A11.92,11.92,0,0,0,45,315.93a11.85,11.85,0,0,0,6.15-1.73l.3,0a11,11,0,0,0,7.87,2.59,14.48,14.48,0,0,0,1.91-.18,14.44,14.44,0,0,0,1.88.08c.4,0,.78,0,1.15-.07A11.9,11.9,0,0,0,70.46,318a11.57,11.57,0,0,0,6.61-2,11.12,11.12,0,0,0,7,2.18,12.88,12.88,0,0,0,4.54.65,11.69,11.69,0,0,0,6.48-1.94,13.42,13.42,0,0,0,2.05-.32c.34,0,.69,0,1,0s.87,0,1.29-.09.88,0,1.34,0a10.77,10.77,0,0,0,8.18-3.47h.49a12.62,12.62,0,0,0,4.83-1,13,13,0,0,0,4.2.55C132.52,312.24,132.19,293.77,118.37,293.8Z" fill="#75c69f"/>
  <path d="M68,331a14.25,14.25,0,0,0-2.26.18,11,11,0,0,0-8-2.92,12.86,12.86,0,0,0-4.52.77,12.88,12.88,0,0,0-4.53-.77,10.78,10.78,0,0,0-8.25,3.25c-11.38,2.24-10.5,18.54,2.71,18.54a12,12,0,0,0,5.87-1.38,11.61,11.61,0,0,0,6.68,1.88,11.55,11.55,0,0,0,6.75-1.94A12.29,12.29,0,0,0,68,349.81C82.14,349.81,82.17,331,68,331Z" fill="#75c69f"/>
  <rect x="70.24" y="390.89" width="50.45" height="6.62" fill="#999"/>
</svg>
