<?xml version="1.0" encoding="utf-8"?>
<!-- Generator: Adobe Illustrator 21.0.0, SVG Export Plug-In . SVG Version: 6.00 Build 0)  -->
<svg version="1.1" xmlns="http://www.w3.org/2000/svg" xmlns:xlink="http://www.w3.org/1999/xlink" x="0px" y="0px"
	 viewBox="0 0 480 480" style="enable-background:new 0 0 480 480;" xml:space="preserve">
<g id="Layer_1">
	<g>
		<g style="opacity:0.4;">
			<path style="fill:#FFFFFF;" d="M86.3356857,319.8651428c0-1.6376953,14.3574905-8.9121094,32.0683594-8.9121094
				s32.0683517,7.2744141,32.0683517,8.9121094s-14.3574829,8.9121094-32.0683517,8.9121094
				S86.3356857,321.5028381,86.3356857,319.8651428z"/>
		</g>
		<g style="opacity:0.4;">
			<path style="fill:#FFFFFF;" d="M150.4723969,319.8650513c0-1.6376953-14.3574219-8.9121094-32.0683517-8.9121094
				s-32.0683594,7.2744141-32.0683594,8.9121094c0,0.2124023,0.2460938,0.520752,0.7045898,0.8945312l31.3637695,39.8120117
				l31.3637619-39.8120117C150.2263031,320.3858032,150.4723969,320.0774536,150.4723969,319.8650513z"/>
		</g>
		<g>
			<path style="fill:#FFFFFF;" d="M118.4043198,390.5316467c-1.6572266,0-3-1.3432617-3-3v-28.9599609c0-1.6567383,1.3427734-3,3-3
				s3,1.3432617,3,3v28.9599609C121.4043198,389.188385,120.0615463,390.5316467,118.4043198,390.5316467z"/>
		</g>
		<path style="fill:#FFFFFF;" d="M118.5136948,382.7284241c-1.6054688,0-15.6855469,0.1625977-15.6855469,5.8032227
			s14.0800781,5.8037109,15.6855469,5.8037109s15.6855545-0.1630859,15.6855545-5.8037109
			S120.1191635,382.7284241,118.5136948,382.7284241z"/>
		<path style="fill:#FFFFFF;" d="M157.4892883,312.1012268c-0.0053711-0.0537109-0.0058594-0.1039429-0.0161133-0.1611938
			c-0.0473633-0.3026733-0.15625-0.5840454-0.3227539-0.8258057c-0.8696289-1.496521-3.6875-3.7755127-11.8613281-6.625061
			c-4.8828125-1.7026367-14.8720703-4.559082-26.9082108-4.559082c-12.0351562,0-22.0244141,2.8564453-26.9082031,4.559082
			c-8.1738281,2.8495483-10.9919434,5.12854-11.8613281,6.625061c-0.1665039,0.2417603-0.2756348,0.5231323-0.3225098,0.8258057
			c-0.0192871,0.1090088-0.0310059,0.2127686-0.0310059,0.3069458c0,0.0903931,0.0119629,0.1903687,0.0297852,0.2945557
			c0.0183105,0.4028931,0.1538086,0.8039551,0.4223633,1.1448975l37.1230469,47.1230469
			c0.3798828,0.4814453,0.9580078,0.762207,1.5712891,0.762207s1.1914062-0.2807617,1.5712891-0.762207l37.1230545-47.1230469
			C157.4658508,313.2203064,157.5849915,312.6430359,157.4892883,312.1012268z M118.3808823,303.9300842
			c16.939949,0,30.5537186,5.7688599,34.3784256,8.3168945c-3.824707,2.5480347-17.4384766,8.3168945-34.3784256,8.3168945
			s-30.5537109-5.7688599-34.3793945-8.3168945C87.8271713,309.6989441,101.4409409,303.9300842,118.3808823,303.9300842z
			 M118.4043198,356.3397522l-29.3125-37.2089844c0.7419434,0.2854614,1.5256348,0.5758667,2.3808594,0.8740234
			c4.8837891,1.7026367,14.8730469,4.559082,26.9082031,4.559082c12.0361404,0,22.0253983-2.8564453,26.9082108-4.559082
			c0.8806152-0.3070068,1.6872559-0.605957,2.4477539-0.8994751L118.4043198,356.3397522z"/>
		<g>
			<g>
				<circle style="fill:#75C69F;" cx="118.4040451" cy="338.9004211" r="7.3903885"/>
			</g>
			<g>
				<circle style="fill:#FC7E7E;" cx="120.7840118" cy="336.9004211" r="2.9862974"/>
			</g>
		</g>
	</g>
</g>
<g id="eyes">
</g>
<g id="blink">
</g>
</svg>
