<svg xmlns="http://www.w3.org/2000/svg" width="480" height="480" viewBox="0 0 480 480">
  <path d="M102.82,338.53a30.58,30.58,0,0,0,61.17,0Z" fill="#bc669b"/>
  <ellipse cx="133.4" cy="338.12" rx="29.31" ry="5.2" fill="#db79ba"/>
  <path d="M166,338.35c0-14.3-8.47-29.82-8.83-30.48l0-.06,0,0-.1-.13-.1-.13c-2.57-3.51-11.74-5.87-23.18-5.94h-.63c-11.44.07-20.6,2.43-23.18,5.94l-.1.13-.1.13,0,0,0,.06c-.36.65-8.83,16.18-8.83,30.48a32.62,32.62,0,0,0,29.58,32.44v15.12c-5.77.27-17.34,1.45-17.34,6.68,0,6.56,18.26,6.75,20.34,6.75s20.34-.19,20.34-6.75c0-5.23-11.57-6.41-17.34-6.68V370.79A32.62,32.62,0,0,0,166,338.35ZM133.4,305.57c9.87,0,16.26,1.79,19,3.27-2.69,1.48-9.09,3.24-19,3.27s-16.26-1.79-19-3.27C117.14,307.36,123.53,305.59,133.4,305.57Zm-28.58,32.78c0-10.26,4.94-21.64,7.21-26.33,4,2.46,11.77,4,21.05,4.09h.63c9.29-.06,17.07-1.63,21.06-4.09C157,316.7,162,328.07,162,338.35a28.58,28.58,0,1,1-57.17,0Z" fill="#fff"/>
</svg>
