<?xml version="1.0" encoding="utf-8"?>
<!-- Generator: Adobe Illustrator 19.2.1, SVG Export Plug-In . SVG Version: 6.00 Build 0)  -->
<svg version="1.1" xmlns="http://www.w3.org/2000/svg" xmlns:xlink="http://www.w3.org/1999/xlink" x="0px" y="0px"
	 viewBox="0 0 480 480" enable-background="new 0 0 480 480" xml:space="preserve">
<g id="Layer_1">
	<circle opacity="0.2" fill="#FFEAAE" cx="62.5" cy="284.9" r="59"/>
	<polygon fill="#75C69F" points="69.3,308.1 68,305.6 76.9,301 82.4,311.4 	"/>
	<polygon fill="#987FEF" points="101.3,368.6 97,360.5 110.1,363.7 114.4,371.9 	"/>
	<line fill="#5994C9" x1="106.3" y1="356.6" x2="110.1" y2="363.7"/>
	<polygon fill="#75C69F" points="93.3,353.3 89.3,345.8 102.3,349 106.3,356.6 	"/>
	<line fill="#5994C9" x1="98.5" y1="341.9" x2="102.3" y2="349"/>
	<polygon fill="#F9914B" points="94.2,333.8 98.5,341.9 85.5,338.7 81.2,330.5 	"/>
	<line fill="#5994C9" x1="90.5" y1="326.6" x2="94.2" y2="333.8"/>
	<polygon fill="#987FEF" points="73.1,315.2 77.4,323.4 90.5,326.6 86.2,318.5 	"/>
	<line fill="#5994C9" x1="82.4" y1="311.4" x2="86.2" y2="318.5"/>
	<polygon fill="#5994C9" points="73.1,315.2 86.2,318.5 82.4,311.4 69.4,308.1 	"/>
	<path fill="#FFEAAE" d="M65.4,264.8l18.2-6.6c3.1-1.1,6.1,1.8,5.1,4.9l-5.9,18.4l11.9,15.3c2,2.6,0.2,6.3-3.1,6.3l-19.3,0.1
		l-10.9,16c-1.8,2.7-5.9,2.1-7-1L48.3,300l-18.6-5.4c-3.1-0.9-3.9-5-1.2-6.9l15.6-11.5l-0.6-19.3c-0.1-3.3,3.6-5.2,6.2-3.3
		L65.4,264.8z"/>
	<polygon fill="#F79AC0" points="90.5,326.6 77.4,323.4 81.2,330.5 94.2,333.8 	"/>
	<polygon fill="#FFEAAE" points="98.5,341.9 85.5,338.7 89.3,345.8 102.3,349 102.3,349 	"/>
	<polygon fill="#5994C9" points="106.3,356.6 93.3,353.3 97,360.5 110.1,363.7 	"/>
	<path fill="#F79AC0" d="M115.9,374.9l-1.6-3l-13-3.3l3.3,6.2c0,0,1.7,2,6.2,2C114.6,376.9,115.9,374.9,115.9,374.9z"/>
	<path fill="#FFEAAE" d="M65.4,264.8l18.2-6.6c3.1-1.1,6.1,1.8,5.1,4.9l-5.9,18.4l11.9,15.3c2,2.6,0.2,6.3-3.1,6.3l-19.3,0.1
		l-10.9,16c-1.8,2.7-5.9,2.1-7-1L48.3,300l-18.6-5.4c-3.1-0.9-3.9-5-1.2-6.9l15.6-11.5l-0.6-19.3c-0.1-3.3,3.6-5.2,6.2-3.3
		L65.4,264.8z"/>
	<path fill="#FFFFFF" d="M56.1,291.9l-8.3-2.4c-1.4-0.4-1.8-2.3-0.6-3.2l6.9-5.1l-0.3-8.6c0-1.5,1.6-2.4,2.9-1.5l7,5l8.1-2.9
		c1.4-0.5,2.8,0.8,2.3,2.3l-2.6,8.2l5.3,6.8c0.9,1.2,0.1,2.9-1.4,2.9l-8.6,0.1l-4.8,7.1c-0.8,1.2-2.7,1-3.2-0.4L56.1,291.9z"/>
</g>
<g id="eyes">
</g>
<g id="blink">
</g>
</svg>
