<svg xmlns="http://www.w3.org/2000/svg" width="480" height="480" viewBox="0 0 480 480">
    <path d="M6.42,392.72,4.59,385.8a219.2,219.2,0,0,1-4-41.36,65.34,65.34,0,0,1,3.55-21.55,2.8,2.8,0,0,0,.16-.94V255.34c0-7.76,5.64-17,12.67-20.31,17.62-8.2,34.92,4.54,34.92,21.24v13.91a.13.13,0,0,0,.13.13h5.55A23.2,23.2,0,0,1,71,274.54a2.76,2.76,0,0,0,2.39.39,23.37,23.37,0,0,1,6.85-1h1a23.32,23.32,0,0,1,15,5.52,2.65,2.65,0,0,0,2.32.56,23.28,23.28,0,0,1,5.33-.62h2.67a21.6,21.6,0,0,1,21.6,21.6v14.34a23.2,23.2,0,0,1-2.46,10.46,2.93,2.93,0,0,0-.21,2.16,64.29,64.29,0,0,1,2.67,18.39A187.39,187.39,0,0,1,124,386.13l-2,6.59s-11.81,3.66-55.8,3.66S6.42,392.72,6.42,392.72Z" fill="#75c69f"/>
    <path d="M116.9,325.5a16.42,16.42,0,0,0,3.93-10.66V303.17A16.48,16.48,0,0,0,95,289.56a16.45,16.45,0,0,0-24.42-4.88,16.45,16.45,0,0,0-26-1.31V256.27a16.5,16.5,0,0,0-33,0v67.51a56.85,56.85,0,0,0-3.72,20.68,218.47,218.47,0,0,0,3.76,39.37,2,2,0,0,0,3.92-.81,214.19,214.19,0,0,1-3.68-38.56c0-9.37,2.35-31.92,24-38.82,7.05-2.1,12.48-2.13,16.13-.07,2.63,1.48,4.39,4,5.37,7.81,1.94,7.47-2.29,13.92-10.51,16.06l-5.46,1.39a2,2,0,1,0,1,3.88l5.47-1.39a19.9,19.9,0,0,0,9.81-5.67c3.66,1,8.06,2.9,10.36,6.65a2,2,0,1,0,3.41-2.1c-2.23-3.62-6.13-6.36-11.34-8a15.46,15.46,0,0,0,1-2.44,16.4,16.4,0,0,0,6.05-2.94A16.48,16.48,0,0,0,90,323a16.58,16.58,0,0,0,14.34,8.34,16.4,16.4,0,0,0,9.39-3,53.11,53.11,0,0,1,3.11,17.94A182,182,0,0,1,113.16,383a2,2,0,1,0,3.9.9,182.36,182.36,0,0,0,3.77-37.55A57.09,57.09,0,0,0,116.9,325.5ZM34.73,301.82a35.13,35.13,0,0,0-19.15,14.28V256.27a12.5,12.5,0,0,1,25,0v44.19A45.57,45.57,0,0,0,34.73,301.82Zm19.27.27a17.85,17.85,0,0,0-9.42-2v-6a12.5,12.5,0,0,1,25,0v11.67a12.46,12.46,0,0,1-7.72,11.55,17.94,17.94,0,0,0-.58-4.94C60,307.56,57.58,304.1,54,302.09Zm16.06,13.86a16.46,16.46,0,0,0,3.51-10.18V294.1a16.39,16.39,0,0,0-1.08-5.82,12.38,12.38,0,0,1,8.2-3.07,12.52,12.52,0,0,1,12.5,12.5v11.67a12.5,12.5,0,0,1-23.13,6.58Zm23,4.31a16.41,16.41,0,0,0,4.13-10.89V297.71a16.41,16.41,0,0,0-.6-4.36,12.5,12.5,0,0,1,20.23,9.83v11.67a12.44,12.44,0,0,1-3.28,8.41,2,2,0,0,0-.74.75,12.47,12.47,0,0,1-19.74-3.73Z" fill="#f2f2f2"/>
    <path d="M37.09,369.19v-4.48h5.15l1.17-5.06H39v-4.52h5.31l1.8-8.11h5l-1.84,8.11h4.6l1.8-8.11h4.89l-1.88,8.11h3.81v4.52h-4.6l-1.09,5.06H61.1v4.48H55.62l-1.51,6.94H49.27l1.51-6.94H46.09l-1.46,6.94H39.73l1.46-6.94Zm10-4.43h4.73L53,359.69H48.22Z" fill="#f2f2f2"/>
    <path d="M68.38,376.13v-6.4h6.36V356.35H68.38v-4.81a23,23,0,0,0,9.16-2.93q1.42-.79,2.59-1.59h2.8v22.71H89v6.4Z" fill="#f2f2f2"/>
</svg>
