<svg version="1.1" id="Layer_1" xmlns="http://www.w3.org/2000/svg" xmlns:xlink="http://www.w3.org/1999/xlink" x="0px" y="0px"
	 viewBox="0 0 480 480" style="enable-background:new 0 0 480 480;" xml:space="preserve">
<style type="text/css">
	.st23{fill:#FFFFFF;}
	.st71{fill:#F7D9A4;}
	.st89{fill:#f28fca;}
	.st90{fill:#F26DAA;}
	.st91{fill:#F77272;}
	.st92{fill:#6AB0E5;}
	.st93{fill:#FFE35A;}
	.st94{fill:#BDED9D;}
</style>
	<path class="st71" d="M131.9,384.2c0-14.5-20.6-25.9-46.1-25.9s-46.1,11.4-46.1,25.9v7.1c0,14.5,20.6,25.9,46.1,25.9
			s45.8-11.4,45.8-25.9L131.9,384.2z"/>
	<path class="st89" d="M86.6,402.9c-26.8,0-39.6-8-44.9-12.8c-1.7-1.5-2.6-3.7-2.6-5.9c0-14.9,20.5-26.5,46.8-26.5
			c26.1,0,46.6,11.7,46.6,26.5l0,0.3c0,2.9-1.2,5.6-3.4,7.4C124,396,112,402.9,86.6,402.9z"/>
	<path class="st90" d="M86.3,380c-4.5,0-7.5-1.2-8.5-1.7c-0.9-0.5-1.3-1.6-0.9-2.5c0.5-0.9,1.6-1.3,2.5-0.9c0.6,0.3,3,1.3,6.8,1.3
			c3.8,0,6.2-1,6.8-1.3c0.9-0.5,2.1-0.1,2.5,0.9s0.1,2.1-0.9,2.5C93.8,378.8,90.9,380,86.3,380z"/>
	<path class="st23" d="M67.8,393c-0.3,0-0.7-0.1-0.9-0.4c-0.5-0.5-0.5-1.3,0-1.8l4.2-4.1c0.5-0.5,1.3-0.5,1.8,0
			c0.5,0.5,0.5,1.3,0,1.8l-4.2,4.1C68.4,392.8,68.1,393,67.8,393z"/>
	<path class="st23" d="M51.5,385.7c-0.4,0-0.8-0.2-1-0.5l-3.6-4.6c-0.4-0.6-0.3-1.3,0.2-1.8c0.6-0.4,1.3-0.3,1.8,0.2l3.6,4.6
			c0.4,0.6,0.3,1.3-0.2,1.8C52,385.6,51.7,385.7,51.5,385.7z"/>
	<path class="st23" d="M53.7,371.6c-0.1,0-0.2,0-0.4-0.1l-5.6-1.7c-0.7-0.2-1-0.9-0.8-1.6c0.2-0.7,0.9-1,1.6-0.8l5.6,1.7
			c0.7,0.2,1,0.9,0.8,1.6C54.8,371.2,54.3,371.6,53.7,371.6z"/>
	<path class="st23" d="M65.6,376.1c-0.1,0-0.1,0-0.2,0c-0.7-0.1-1.2-0.8-1.1-1.4l0.9-5.8c0.1-0.7,0.8-1.2,1.4-1.1
			c0.7,0.1,1.2,0.8,1.1,1.4l-0.9,5.8C66.8,375.7,66.3,376.1,65.6,376.1z"/>
	<path class="st23" d="M78.3,364.2c-0.3,0-0.5-0.1-0.7-0.2c-0.6-0.4-0.7-1.2-0.3-1.8l3.4-4.7c0.4-0.6,1.2-0.7,1.8-0.3
			c0.6,0.4,0.7,1.2,0.3,1.8l-3.4,4.7C79.1,364.1,78.7,364.2,78.3,364.2z"/>
	<path class="st91" d="M100.9,367.3c-0.1,0-0.2,0-0.4-0.1c-0.7-0.2-1-0.9-0.8-1.6l1.7-5.6c0.2-0.7,0.9-1,1.6-0.8
			c0.7,0.2,1,0.9,0.8,1.6l-1.7,5.6C102,367,101.5,367.3,100.9,367.3z"/>
	<path class="st91" d="M85.9,390.8c-0.2,0-0.5-0.1-0.7-0.2c-0.6-0.4-0.7-1.2-0.3-1.8l3.3-4.8c0.4-0.6,1.2-0.7,1.8-0.3
			c0.6,0.4,0.7,1.2,0.3,1.8l-3.3,4.8C86.7,390.6,86.3,390.8,85.9,390.8z"/>
	<path class="st23" d="M119,376.8c-0.2,0-0.4,0-0.6-0.1l-5.2-2.8c-0.6-0.3-0.8-1.1-0.5-1.7c0.3-0.6,1.1-0.8,1.7-0.5l5.2,2.8
			c0.6,0.3,0.8,1.1,0.5,1.7C119.9,376.6,119.4,376.8,119,376.8z"/>
	<path class="st23" d="M99.9,375.6c-0.4,0-0.9-0.2-1.1-0.6c-0.3-0.6-0.1-1.4,0.5-1.7l5.1-2.9c0.6-0.3,1.4-0.1,1.7,0.5
			c0.3,0.6,0.1,1.4-0.5,1.7l-5.1,2.9C100.4,375.5,100.1,375.6,99.9,375.6z"/>
	<path class="st23" d="M105.7,394.1c0,0-0.1,0-0.1,0c-0.7-0.1-1.2-0.7-1.1-1.4l0.6-5.8c0.1-0.7,0.7-1.2,1.4-1.1
			c0.7,0.1,1.2,0.7,1.1,1.4l-0.6,5.8C106.9,393.6,106.3,394.1,105.7,394.1z"/>
	<path class="st92" d="M60.3,370.5c-0.4,0-0.8-0.2-1-0.5l-3.6-4.6c-0.4-0.6-0.3-1.3,0.2-1.8c0.6-0.4,1.3-0.3,1.8,0.2l3.6,4.6
			c0.4,0.6,0.3,1.3-0.2,1.8C60.8,370.4,60.6,370.5,60.3,370.5z"/>
	<path class="st92" d="M108.3,368.9c-0.4,0-0.8-0.2-1-0.5c-0.4-0.6-0.3-1.3,0.2-1.8l4.6-3.6c0.6-0.4,1.3-0.3,1.8,0.2
			c0.4,0.6,0.3,1.3-0.2,1.8l-4.6,3.6C108.9,368.8,108.6,368.9,108.3,368.9z"/>
	<path class="st92" d="M86.9,372.1c-0.4,0-0.8-0.2-1.1-0.6l-3.1-5c-0.4-0.6-0.2-1.4,0.4-1.7c0.6-0.4,1.4-0.2,1.7,0.4l3.1,5
			c0.4,0.6,0.2,1.4-0.4,1.7C87.4,372,87.1,372.1,86.9,372.1z"/>
	<path class="st91" d="M125.2,381c-0.7,0-1.2-0.2-1.3-0.9c0-0.7,0.5-1.1,1.2-1.1l5.9-0.1c0.7-0.1,1.3,0.6,1.3,1.3
			c0,0.7-0.5,1-1.2,1L125.2,381C125.2,381,125.2,381,125.2,381z"/>
	<path class="st92" d="M58.5,389C58.5,389,58.5,389,58.5,389c-0.7,0-1.3,0-1.3-0.7l0-5.4c0-0.7,0.6-0.8,1.3-0.8c0,0,0,0,0,0
			c0.7,0,1.3,0.4,1.3,1.1l0,5.2C59.8,389,59.2,389,58.5,389z"/>
	<path class="st92" d="M99.4,388.9c-0.5,0-0.9-0.3-1.1-0.7l-2.6-5.2c-0.3-0.6-0.1-1.4,0.6-1.7c0.6-0.3,1.4-0.1,1.7,0.6l2.6,5.2
			c0.3,0.6,0.1,1.4-0.6,1.7C99.8,388.9,99.6,388.9,99.4,388.9z"/>
	<path class="st91" d="M54.8,379.8c-0.4,0-0.8-0.2-1.1-0.6c-0.4-0.6-0.2-1.4,0.4-1.7l5-3.1c0.6-0.4,1.4-0.2,1.7,0.4
			c0.4,0.6,0.2,1.4-0.4,1.7l-5,3.1C55.2,379.8,55,379.8,54.8,379.8z"/>
	<path class="st91" d="M108.1,381.5c-0.1,0-0.2,0-0.3,0l-5.7-1.4c-0.7-0.2-1.1-0.8-0.9-1.5c0.2-0.7,0.8-1.1,1.5-0.9l5.7,1.4
			c0.7,0.2,1.1,0.8,0.9,1.5C109.2,381.1,108.7,381.5,108.1,381.5z"/>
	<path class="st93" d="M80.3,385.5c-0.1,0-0.2,0-0.4-0.1l-5.6-1.7c-0.7-0.2-1-0.9-0.8-1.6c0.2-0.7,0.9-1,1.6-0.8l5.6,1.7
			c0.7,0.2,1,0.9,0.8,1.6C81.3,385.1,80.8,385.5,80.3,385.5z"/>
	<path class="st93" d="M78.2,370c-0.1,0-0.1,0-0.2,0l-5.8-0.9c-0.7-0.1-1.2-0.8-1.1-1.4c0.1-0.7,0.8-1.2,1.4-1.1l5.8,0.9
			c0.7,0.1,1.2,0.8,1.1,1.4C79.3,369.6,78.8,370,78.2,370z"/>
	<path class="st93" d="M123.3,389.6c-0.2,0-0.5-0.1-0.7-0.2l-4.9-3.3c-0.6-0.4-0.7-1.2-0.3-1.8c0.4-0.6,1.2-0.7,1.8-0.3l4.9,3.3
			c0.6,0.4,0.7,1.2,0.3,1.8C124.1,389.4,123.7,389.6,123.3,389.6z"/>
	<path class="st93" d="M89.1,362.5c-0.5,0-1-0.3-1.2-0.8c-0.3-0.6,0.1-1.4,0.7-1.6l5.4-2.2c0.6-0.3,1.4,0.1,1.6,0.7
			c0.3,0.6-0.1,1.4-0.7,1.6l-5.4,2.2C89.4,362.5,89.3,362.5,89.1,362.5z"/>
	<path class="st93" d="M91,396.5c-0.5,0-0.9-0.3-1.1-0.7c-0.3-0.6-0.1-1.4,0.6-1.7l5.2-2.6c0.6-0.3,1.4-0.1,1.7,0.6
			c0.3,0.6,0.1,1.4-0.6,1.7l-5.2,2.6C91.4,396.4,91.2,396.5,91,396.5z"/>
	<path class="st94" d="M124.2,374.6c-0.5,0-0.9-0.3-1.1-0.7l-2.5-5.3c-0.3-0.6,0-1.4,0.6-1.7c0.6-0.3,1.4,0,1.7,0.6l2.5,5.3
			c0.3,0.6,0,1.4-0.6,1.7C124.6,374.6,124.4,374.6,124.2,374.6z"/>
	<path class="st94" d="M65.6,384.5c-0.3,0-0.5-0.1-0.7-0.2c-0.6-0.4-0.7-1.2-0.3-1.8l3.4-4.7c0.4-0.6,1.2-0.7,1.8-0.3
			c0.6,0.4,0.7,1.2,0.3,1.8l-3.4,4.7C66.4,384.3,66,384.5,65.6,384.5z"/>
	<path class="st91" d="M70.2,364c-0.1,0-0.2,0-0.4-0.1l-5.6-1.7c-0.7-0.2-1-0.9-0.8-1.6c0.2-0.7,0.9-1,1.6-0.8l5.6,1.7
			c0.7,0.2,1,0.9,0.8,1.6C71.2,363.6,70.7,364,70.2,364z"/>
	<path class="st94" d="M96.5,369.9c-0.1,0-0.2,0-0.3,0l-5.6-1.6c-0.7-0.2-1.1-0.9-0.9-1.6c0.2-0.7,0.9-1.1,1.6-0.9l5.6,1.6
			c0.7,0.2,1.1,0.9,0.9,1.6C97.5,369.5,97,369.9,96.5,369.9z"/>
	<path class="st94" d="M112.1,385.7c-0.2,0-0.4,0-0.5-0.1c-0.6-0.3-0.9-1-0.6-1.7l2.5-5.3c0.3-0.6,1-0.9,1.7-0.6
			c0.6,0.3,0.9,1,0.6,1.7l-2.5,5.3C113.1,385.4,112.6,385.7,112.1,385.7z"/>
	<path class="st94" d="M41.7,379.4c-0.2,0-0.5-0.1-0.7-0.2c-0.6-0.4-0.7-1.2-0.3-1.8l3.3-4.8c0.4-0.6,1.2-0.7,1.8-0.3
			c0.6,0.4,0.7,1.2,0.3,1.8l-3.3,4.8C42.5,379.2,42.1,379.4,41.7,379.4z"/>
	<path class="st94" d="M81.2,396.1c-0.5,0-0.9-0.3-1.2-0.7l-2.4-5.3c-0.3-0.6,0-1.4,0.6-1.7c0.6-0.3,1.4,0,1.7,0.6l2.4,5.3
			c0.3,0.6,0,1.4-0.6,1.7C81.5,396.1,81.4,396.1,81.2,396.1z"/>
</svg>
