<svg id="Layer_1" data-name="Layer 1" xmlns="http://www.w3.org/2000/svg" viewBox="0 0 480 480"><polygon points="76.93 310.45 24.19 285.73 76.81 261.39 76.93 310.45" fill="#fc5959"/><path d="M27.27,406s0.41-8.29,1.76-9.17c1-.67,3.34.64,4.64,0,1.1-.54,1.4-4.75,2.68-5.26s3.09,2.86,4.37,2.44,1.73-4.55,3-4.92,3,3.14,4.22,2.82,1.92-4.42,3.18-4.7,2.85,3.32,4.11,3.07,2-4.31,3.29-4.53,2.78,3.45,4,3.25,2.14-4.23,3.39-4.4,2.71,3.55,4,3.4,2.22-4.16,3.47-4.29,2.66,3.63,3.91,3.52,2.28-4.09,3.53-4.18,2.6,3.71,3.85,3.63,2.34-4,3.59-4.09,2.56,3.77,3.8,3.73,2.4-4,3.65-4,2.51,3.83,3.75,3.82,2.46-3.91,3.71-3.91,2.47,3.89,3.7,3.91,2.52-3.85,3.75-3.82,2.42,4,3.64,4,2.57-3.79,3.8-3.73,2.37,4,3.59,4.09,2.63-3.72,3.85-3.63,2.31,4.07,3.53,4.18,2.69-3.65,3.91-3.52,2.25,4.14,3.47,4.29,2.75-3.56,4-3.4,2.18,4.21,3.39,4.4,2.83-3.46,4-3.25,2.09,4.3,3.3,4.53,2.92-3.34,4.11-3.07,2,4.4,3.18,4.7,3-3.16,4.22-2.82,1.84,4.53,3,4.92,3.23-2.89,4.37-2.44,1.59,4.72,2.69,5.26c1.3,0.63,3.6-.68,4.64,0,1.34,0.87,1.74,7.57,1.74,9.17" fill="#75c69f"/><ellipse cx="103.14" cy="406" rx="75.87" ry="19.61" fill="#75c69f"/><path d="M175.83,408c-1,.89-1,4.5-2.44,5.36-1.11.66-3.33-2.33-4.71-1.71-1.17.53-1.67,4.77-3,5.27s-3.13-2.9-4.47-2.49-2,4.56-3.29,4.91-3-3.18-4.34-2.87-2.12,4.41-3.44,4.68-2.92-3.35-4.24-3.12-2.24,4.3-3.56,4.5-2.85-3.48-4.17-3.3-2.33,4.21-3.65,4.36-2.79-3.59-4.1-3.45-2.4,4.13-3.72,4.24-2.73-3.67-4-3.58-2.47,4.05-3.78,4.12-2.68-3.75-4-3.7-2.53,4-3.84,4-2.63-3.83-3.95-3.81-2.59,3.91-3.9,3.91-2.6-3.9-3.89-3.91-2.65,3.84-3.94,3.81-2.55-4-3.84-4-2.7,3.77-4,3.7-2.5-4-3.78-4.12-2.76,3.69-4,3.58-2.44-4.11-3.72-4.24-2.83,3.6-4.11,3.45-2.37-4.19-3.65-4.36-2.9,3.5-4.17,3.3-2.29-4.28-3.56-4.5-3,3.37-4.24,3.12-2.2-4.39-3.45-4.68-3.09,3.2-4.34,2.87-2.07-4.53-3.29-4.91-3.26,2.93-4.47,2.49c-1.36-.5-1.85-4.74-3-5.28-1.38-.62-3.6,2.37-4.71,1.7-1.42-.85-1.26-5.1-2.22-6-1.58-1.51-2.9,3.13-3.47-1.33v9c0,5.41,12.26,10.59,21.2,12.9,14.67,3.79,34.07,5.9,54.68,5.9s40-2.11,54.68-5.9c8.94-2.31,21.2-6.34,21.2-14.92v-6.84C178.6,409.18,177.56,406.41,175.83,408Z" fill="#6a8"/><ellipse cx="79.07" cy="404.29" rx="17.93" ry="4.37" fill="#4d4d4d"/><circle cx="134.3" cy="399.49" r="10.22" fill="#fff"/><circle cx="127.66" cy="398.82" r="1.28" fill="#e6e6e6"/><circle cx="133.57" cy="406.3" r="1.28" fill="#e6e6e6"/><circle cx="133.2" cy="400.64" r="1.28" fill="#e6e6e6"/><circle cx="128.94" cy="403.75" r="1.28" fill="#e6e6e6"/><circle cx="138.5" cy="404" r="1.28" fill="#e6e6e6"/><circle cx="130.64" cy="394.46" r="1.28" fill="#e6e6e6"/><path d="M61.14,404.29c0,0.81.92,1.57,2.49,2.22,3.12-1.29,8.86-2.15,15.43-2.15s12.32,0.86,15.44,2.15c1.58-.65,2.5-1.41,2.5-2.22s-0.78-1.46-2.16-2.08q-0.41-.19-0.9-0.36a35.73,35.73,0,0,0-8.21-1.61c-2.06-.2-4.3-0.31-6.66-0.31a56.15,56.15,0,0,0-12.68,1.28q-0.61.15-1.16,0.31a14.21,14.21,0,0,0-2.18.83C61.84,402.93,61.14,403.59,61.14,404.29Z" fill="#6a8"/><path d="M81.67,408.62s-1.09,0-2.47,0-2.47,0-2.47,0V261.23h4.93V408.62Z" fill="#fff"/></svg>