<svg id="Layer_1" data-name="Layer 1" xmlns="http://www.w3.org/2000/svg" viewBox="0 0 480 480"><path d="M90.27,330a75,75,0,0,0-50.6,0A7.2,7.2,0,0,0,35,337v47a7.29,7.29,0,0,0,4.78,7h0a75,75,0,0,0,50.58,0h0A7.18,7.18,0,0,0,95,384V337A7.25,7.25,0,0,0,90.27,330Z" fill="#fff"/><path d="M42.56,336.24a75.81,75.81,0,0,0,45,0,1,1,0,0,0,0-2,75.81,75.81,0,0,0-45,0A1,1,0,0,0,42.56,336.24Z" fill="#e6e6e6"/><path d="M46.52,337.34a75.79,75.79,0,0,0,37.07,0A75.79,75.79,0,0,0,46.52,337.34Z" fill="#5e4c3e"/><path d="M98.9,381.07h-7a5.5,5.5,0,0,1,0-11h7a5.43,5.43,0,0,0,5.42-5.42v-7.49a5.43,5.43,0,0,0-5.42-5.42h-7a5.5,5.5,0,0,1,0-11h7a16.44,16.44,0,0,1,16.42,16.42v7.49A16.44,16.44,0,0,1,98.9,381.07Z" fill="#fff"/><g opacity="0.3"><path d="M60.22,334.76a2,2,0,0,1-1.46-3.37s3.4-3.72,3.14-7.7a7.3,7.3,0,0,0-3-5.21,11.23,11.23,0,0,1-4.4-8.06c-0.35-5.71,4-10.46,4.22-10.66a2,2,0,0,1,2.92,2.73h0s-3.4,3.72-3.15,7.7a7.3,7.3,0,0,0,3,5.21,11.23,11.23,0,0,1,4.4,8.06c0.35,5.71-4,10.46-4.22,10.66A2,2,0,0,1,60.22,334.76Z" fill="#e6e6e6"/></g><g opacity="0.3"><path d="M67.62,312.13a2,2,0,0,1-1.46-3.37s3.4-3.72,3.14-7.7a7.3,7.3,0,0,0-3-5.21,11.23,11.23,0,0,1-4.4-8.06c-0.35-5.71,4-10.46,4.22-10.66a2,2,0,0,1,2.92,2.73c-0.05.05-3.4,3.73-3.15,7.7a7.3,7.3,0,0,0,3,5.21,11.23,11.23,0,0,1,4.4,8.06c0.35,5.71-4,10.46-4.22,10.66A2,2,0,0,1,67.62,312.13Z" fill="#e6e6e6"/></g></svg>